<?xml version="1.0" encoding="UTF-8"?>
<svg width="12px" height="14px" viewBox="0 0 12 14" version="1.1" xmlns="http://www.w3.org/2000/svg" xmlns:xlink="http://www.w3.org/1999/xlink">
    <!-- Generator: Sketch 54.1 (76490) - https://sketchapp.com -->
    <title>编组 2</title>
    <desc>Created with Sketch.</desc>
    <g id="页面-1" stroke="none" stroke-width="1" fill="none" fill-rule="evenodd">
        <g id="最热" transform="translate(-150.000000, -124.000000)">
            <g id="编组-5" transform="translate(0.000000, 99.000000)">
                <g id="编组-2" transform="translate(149.000000, 25.000000)">
                    <rect id="矩形" x="0" y="0" width="14" height="14"></rect>
                    <path d="M6.95505047,7.10976375 C6.14482578,7.10976375 5.48582968,6.43361907 5.48582968,5.60380514 C5.48582968,4.77740609 6.14482578,4.10126141 6.95505047,4.10126141 C7.76527516,4.10126141 8.4246051,4.77740609 8.4246051,5.60380514 C8.4246051,6.43361907 7.76527516,7.10976375 6.95505047,7.10976375 Z M4.48431584,5.60380514 C4.48431584,7.00048784 5.59265782,8.13422538 6.95505047,8.13422538 C8.31777696,8.13422538 9.42611894,7.00048784 9.42611894,5.60380514 C9.42611894,4.21053732 8.31777696,3.07679978 6.95505047,3.07679978 C5.59265782,3.07679978 4.48431584,4.21053732 4.48431584,5.60380514 Z M11.2291777,6.95267963 C11.1186773,7.40002788 11.0991202,7.66106284 10.422019,8.66694543 C9.97061821,9.33753382 8.81351541,10.603437 6.95071058,12.4646549 C4.93296954,10.1898772 3.89698367,9.02089831 3.84275296,8.95771818 C3.78852225,8.89453805 3.58549903,8.62004045 3.23368328,8.13422538 C3.14020866,7.96348178 2.95533806,7.60150533 2.81679531,7.15415708 C2.64219806,6.58728831 2.55706939,6.05456826 2.55706939,5.52526308 C2.55706939,3.04265106 4.53005164,1.02446163 6.95505047,1.02446163 C9.49188501,1.02446163 11.220164,3.10411875 11.4251405,5.11206356 C11.4772193,5.6208795 11.4151254,6.20823751 11.2291777,6.95267963 Z M6.95505047,-3.45402719e-14 C3.97788368,-3.45402719e-14 1.55555556,2.47919716 1.55555556,5.52526308 C1.55555556,6.1604293 1.65604078,6.79559551 1.86201879,7.46149557 C2.03160846,8.01128999 2.26863341,8.44156387 2.3697863,8.62596697 L2.39282112,8.66694543 C2.3934888,8.6703603 2.39449031,8.6703603 2.39515799,8.67377518 L6.50804146,13.7384022 C6.59650852,13.8989012 6.76109062,13.9979325 6.94002776,13.9979325 C7.11729571,13.9979325 7.2852162,13.9023161 7.37535244,13.745232 C7.41240845,13.6803494 10.6140191,10.1967278 11.2592231,9.32260088 C11.9044271,8.44847398 12.0474145,7.82005715 12.1999784,7.20879504 C12.4156377,6.33800265 12.4860775,5.64136874 12.421313,5.00620252 C12.1302063,2.15478431 9.78032099,-3.45402719e-14 6.95505047,-3.45402719e-14 Z" id="2I" fill="#9E9E9E"></path>
                </g>
            </g>
        </g>
    </g>
</svg>