<?xml version="1.0" encoding="UTF-8"?>
<svg width="22px" height="22px" viewBox="0 0 22 22" version="1.1" xmlns="http://www.w3.org/2000/svg" xmlns:xlink="http://www.w3.org/1999/xlink">
    <!-- Generator: Sketch 61.2 (89653) - https://sketch.com -->
    <title>message</title>
    <desc>Created with Sketch.</desc>
    <g id="页面-1" stroke="none" stroke-width="1" fill="none" fill-rule="evenodd">
        <g id="最热" transform="translate(-159.000000, -480.000000)" fill-rule="nonzero">
            <g id="编组-5" transform="translate(0.000000, 99.000000)">
                <g id="评论" transform="translate(156.000000, 378.000000)">
                    <g id="message">
                        <rect id="Rectangle" fill="#000000" opacity="0" x="0" y="0" width="28" height="28"></rect>
                        <path d="M14,3.5 C15.4109375,3.5 16.7796875,3.77421875 18.06875,4.315625 C19.3296875,4.84296875 20.459375,5.6046875 21.4273437,6.57265625 C22.3953125,7.54296875 23.1546875,8.67265625 23.684375,9.93125 C24.2304687,11.234375 24.5070312,12.6195313 24.5001308,14.046875 C24.4929687,15.4671875 24.2117187,16.8429688 23.6585937,18.1367188 C23.1265625,19.3859375 22.3648437,20.50625 21.396875,21.4648438 C20.43125,22.4234375 19.3039062,23.1734375 18.05,23.6960938 C16.7679687,24.228125 15.40625,24.5 14.0023437,24.5 L14.0023437,24.5 L13.953125,24.5 C12.3265625,24.4929688 10.7117187,24.1039063 9.26796875,23.375 L9.26796875,23.375 L5.703125,23.375 C5.1078125,23.375 4.625,22.8921875 4.625,22.296875 L4.625,22.296875 L4.625,18.734375 C3.89609375,17.290625 3.50703125,15.6757813 3.49986703,14.0492188 C3.49296875,12.6289063 3.76484375,11.2484375 4.30390625,9.95 C4.3559375,9.82460938 4.41028906,9.70050781 4.46693516,9.57772344 L4.4813385,9.54870605 C4.80822245,9.47465007 5.11852519,9.55924988 5.4122467,9.80250549 C5.70596822,10.0457611 5.8583356,10.3856021 5.86934885,10.8220285 L5.86934885,10.8220285 C5.47915758,11.834746 5.27672269,12.9209036 5.28117693,14.0398438 C5.28828125,15.453125 5.63984375,16.8570313 6.30078125,18.096875 L6.30078125,18.096875 L6.40625,18.29375 L6.40625,21.59375 L9.70625,21.59375 L9.903125,21.6992188 C11.1429687,22.3601563 12.546875,22.7117188 13.9601562,22.71875 L13.9601562,22.71875 L14,22.71875 C16.3203125,22.71875 18.5,21.8234375 20.1429687,20.196875 C21.7929687,18.5609375 22.709375,16.3742188 22.7235085,14.0398438 C22.728125,12.8539063 22.5007812,11.7054688 22.0460937,10.6226563 C21.6078125,9.57734375 20.975,8.6375 20.1710937,7.83359375 C19.3648437,7.02734375 18.4273437,6.396875 17.3820312,5.95859375 C16.3109375,5.50859375 15.1742187,5.28125 14.0023437,5.28125 L14.0023437,5.28125 L13.9625,5.28125 C12.9116701,5.28546597 11.8911751,5.47263959 10.937464,5.82763707 L10.9264473,5.81779461 C10.5975527,5.89035536 10.2781576,5.75233968 9.96826172,5.40374756 C9.65836589,5.05515544 9.53922838,4.73905722 9.6108492,4.4554529 L9.6108492,4.4554529 L9.86328125,4.34140625 C11.1570312,3.78828125 12.5328125,3.50703125 13.953125,3.5 L13.953125,3.5 L14,3.5 Z M7.83529942,5.49593035 C8.11416719,5.43447516 8.39613851,5.56032308 8.68121338,5.87347412 C8.96628825,6.18662516 9.10036271,6.49160526 9.08343677,6.78841441 L9.08343677,6.78841441 C8.6282587,7.09963078 8.19952301,7.4566579 7.803125,7.85703125 C7.45492401,8.20822109 7.14039134,8.58386811 6.86103398,8.98014684 C6.50351872,8.89727274 6.20547627,8.76164839 5.96740723,8.57345581 C5.72659914,8.38309803 5.61131428,8.08738439 5.62155264,7.6863149 L5.62155264,7.6863149 L5.60817239,7.67250305 C5.8913275,7.29772276 6.20068716,6.94086518 6.53515625,6.603125 C6.93928073,6.1950482 7.3721475,5.82404481 7.83129802,5.4913441 L7.83529942,5.49593035 Z" id="Shape" fill="#AEAEAD"></path>
                    </g>
                </g>
            </g>
        </g>
    </g>
</svg>