<?xml version="1.0" encoding="UTF-8"?>
<svg width="22px" height="20px" viewBox="0 0 22 20" version="1.1" xmlns="http://www.w3.org/2000/svg" xmlns:xlink="http://www.w3.org/1999/xlink">
    <!-- Generator: Sketch 61.2 (89653) - https://sketch.com -->
    <title>heart</title>
    <desc>Created with Sketch.</desc>
    <g id="页面-1" stroke="none" stroke-width="1" fill="none" fill-rule="evenodd">
        <g id="最热" transform="translate(-19.000000, -481.000000)">
            <g id="编组-5" transform="translate(0.000000, 99.000000)">
                <g id="编组-4" transform="translate(16.000000, 378.000000)">
                    <g id="heart">
                        <rect id="Rectangle" fill="#000000" opacity="0" x="0" y="0" width="28" height="28"></rect>
                        <g>
                            <rect id="Rectangle" fill="#000000" fill-rule="nonzero" opacity="0" x="0" y="0" width="28" height="28"></rect>
                            <path d="M23.5645118,9.48380011 C23.2853131,8.80065898 22.8852673,8.19000549 22.3789593,7.66501922 C21.8726513,7.14222954 21.285084,6.73366282 20.6287588,6.44590884 C19.9515979,6.14936848 19.2348492,6 18.4951811,6 C17.4679802,6 16.465782,6.29654036 15.5948489,6.85667216 C15.3864917,6.99066447 15.1885524,7.13783635 15.0010309,7.29818781 C14.8135095,7.13783635 14.6155701,6.99066447 14.4072129,6.85667216 C13.5362798,6.29654036 12.5340817,6 11.5068807,6 C10.7672127,6 10.0504639,6.14936848 9.37330303,6.44590884 C8.71906143,6.73146623 8.12941056,7.14222954 7.62310257,7.66501922 C7.11471101,8.19000549 6.71674876,8.80065898 6.43755011,9.48380011 C6.14793361,10.1933004 6,10.9467326 6,11.7221307 C6,12.4535969 6.14168289,13.2158155 6.42296511,13.9912136 C6.65840874,14.6392092 6.9959474,15.3113674 7.4272468,15.9901153 C8.11065841,17.0642504 9.05034937,18.184514 10.2171497,19.3201538 C12.1507045,21.2026359 14.0655071,22.5030203 14.1467664,22.5557386 L14.640573,22.8896211 C14.859348,23.036793 15.1406303,23.036793 15.3594053,22.8896211 L15.8532119,22.5557386 C15.9344712,22.5008237 17.8471903,21.2026359 19.7828286,19.3201538 C20.9496289,18.184514 21.8893199,17.0642504 22.5727315,15.9901153 C23.0040309,15.3113674 23.3436531,14.6392092 23.5770132,13.9912136 C23.8582954,13.2158155 24.0000213,12.4535969 24.0000213,11.7221307 C24.0020619,10.9467326 23.8541283,10.1933004 23.5645118,9.48380011 Z" id="Path" fill="#FF5696" fill-rule="nonzero"></path>
                            <path d="M4.01908793,9.72074197 C3.92339692,10.1496129 3.875,10.5889763 3.875,11.0351562 C3.875,11.815625 4.034375,12.6289062 4.35078125,13.45625 C4.615625,14.1476562 4.9953125,14.8648437 5.48046875,15.5890625 C6.24921875,16.7351562 7.30625,17.9304687 8.61875,19.1421875 C10.79375,21.1507812 12.9476562,22.5382812 13.0390625,22.5945312 L13.5945312,22.9507812 C13.840625,23.1078125 14.1570312,23.1078125 14.403125,22.9507812 L14.9585938,22.5945312 C15.05,22.5359375 17.2015625,21.1507812 19.3789062,19.1421875 C20.6914062,17.9304687 21.7484375,16.7351562 22.5171875,15.5890625 C23.0023438,14.8648437 23.384375,14.1476562 23.646875,13.45625 C23.9632813,12.6289062 24.1228795,11.815625 24.1228795,11.0351562 C24.125,10.2078125 23.9585938,9.40390625 23.6328125,8.646875 C23.31875,7.91796875 22.86875,7.26640625 22.2992187,6.70625 C21.7296875,6.1484375 21.06875,5.7125 20.3304688,5.40546875 C19.56875,5.0890625 18.7625,4.9296875 17.9304688,4.9296875 C16.775,4.9296875 15.6476563,5.24609375 14.6679688,5.84375 C14.4335938,5.98671875 14.2109375,6.14375 14,6.31484375 C13.7890625,6.14375 13.5664062,5.98671875 13.3320312,5.84375 C12.6342374,5.41806236 11.861535,5.13505753 11.0571159,5.00743897 C10.732148,4.95588383 10.4020039,4.9296875 10.0695313,4.9296875 M7.66953125,5.40546875 C6.93359375,5.71015625 6.2703125,6.1484375 5.70078125,6.70625 C5.412699,6.98842893 5.15613905,7.29380351 4.93229985,7.62057608" id="形状" stroke="#000000" stroke-linecap="round"></path>
                        </g>
                    </g>
                </g>
            </g>
        </g>
    </g>
</svg>