<?xml version="1.0" encoding="UTF-8"?>
<svg width="22px" height="20px" viewBox="0 0 22 20" version="1.1" xmlns="http://www.w3.org/2000/svg" xmlns:xlink="http://www.w3.org/1999/xlink">
    <!-- Generator: Sketch 61.2 (89653) - https://sketch.com -->
    <title>heart</title>
    <desc>Created with Sketch.</desc>
    <g id="页面-1" stroke="none" stroke-width="1" fill="none" fill-rule="evenodd">
        <g id="最热" transform="translate(-19.000000, -481.000000)">
            <g id="编组-5" transform="translate(0.000000, 99.000000)">
                <g id="编组-4" transform="translate(16.000000, 378.000000)">
                    <g id="heart">
                        <rect id="Rectangle" fill="#000000" opacity="0" x="0" y="0" width="28" height="28"></rect>
                        <path d="M4.01908793,9.72074197 C3.92339692,10.1496129 3.875,10.5889763 3.875,11.0351562 C3.875,11.815625 4.034375,12.6289062 4.35078125,13.45625 C4.615625,14.1476562 4.9953125,14.8648437 5.48046875,15.5890625 C6.24921875,16.7351562 7.30625,17.9304687 8.61875,19.1421875 C10.79375,21.1507812 12.9476562,22.5382812 13.0390625,22.5945312 L13.5945312,22.9507812 C13.840625,23.1078125 14.1570312,23.1078125 14.403125,22.9507812 L14.9585938,22.5945312 C15.05,22.5359375 17.2015625,21.1507812 19.3789062,19.1421875 C20.6914062,17.9304687 21.7484375,16.7351562 22.5171875,15.5890625 C23.0023438,14.8648437 23.384375,14.1476562 23.646875,13.45625 C23.9632813,12.6289062 24.1228795,11.815625 24.1228795,11.0351562 C24.125,10.2078125 23.9585938,9.40390625 23.6328125,8.646875 C23.31875,7.91796875 22.86875,7.26640625 22.2992187,6.70625 C21.7296875,6.1484375 21.06875,5.7125 20.3304688,5.40546875 C19.56875,5.0890625 18.7625,4.9296875 17.9304688,4.9296875 C16.775,4.9296875 15.6476563,5.24609375 14.6679688,5.84375 C14.4335938,5.98671875 14.2109375,6.14375 14,6.31484375 C13.7890625,6.14375 13.5664062,5.98671875 13.3320312,5.84375 C12.6342374,5.41806236 11.861535,5.13505753 11.0571159,5.00743897 C10.732148,4.95588383 10.4020039,4.9296875 10.0695313,4.9296875 M7.66953125,5.40546875 C6.93359375,5.71015625 6.2703125,6.1484375 5.70078125,6.70625 C5.412699,6.98842893 5.15613905,7.29380351 4.93229985,7.62057608" id="形状" stroke="#AEAEAD" stroke-width="1.5" stroke-linecap="round"></path>
                    </g>
                </g>
            </g>
        </g>
    </g>
</svg>