<?xml version="1.0" encoding="UTF-8"?>
<svg width="22px" height="23px" viewBox="0 0 22 23" version="1.1" xmlns="http://www.w3.org/2000/svg" xmlns:xlink="http://www.w3.org/1999/xlink">
    <!-- Generator: Sketch 61.2 (89653) - https://sketch.com -->
    <title>thumbs-up</title>
    <desc>Created with Sketch.</desc>
    <g id="页面-1" stroke="none" stroke-width="1" fill="none" fill-rule="evenodd">
        <g id="最热" transform="translate(-298.000000, -479.000000)">
            <g id="编组-5" transform="translate(0.000000, 99.000000)">
                <g id="转发" transform="translate(295.000000, 376.000000)">
                    <g id="编组-3">
                        <g id="编组" transform="translate(0.000000, 0.174944)">
                            <g id="thumbs-up">
                                <rect id="矩形" x="0" y="0.825056133" width="28" height="28"></rect>
                                <path d="M13.2149113,4.08701777 C15.4136563,4.08701777 17.1960912,5.86945271 17.1960912,8.06819764 L17.1960912,11.0540939 L21.8228953,11.0541464 C22.6988818,11.0442263 23.5350313,11.4194991 24.1098719,12.0805657 C24.6847125,12.7416324 24.9402428,13.6217914 24.8085528,14.4894048 L23.4352925,23.4454413 C23.2120396,24.9175962 21.9382993,26.0002754 20.4606587,25.983887 L9.23373145,25.983887 L9.34980387,25.976811 C9.84480256,25.9193177 10.2290264,25.498635 10.2290264,24.9882121 L10.2290264,24.9882121 L10.2290264,23.9930452 L20.4719098,23.9930452 C20.9682071,23.9985914 21.3927872,23.6376983 21.4674516,23.1453618 L22.8407312,14.1891979 C22.884552,13.9004903 22.7993753,13.607104 22.6077618,13.3867485 C22.4161482,13.1663929 22.1374317,13.041302 21.8341658,13.0446725 L16.2007962,13.0446725 C15.65111,13.0446725 15.2055013,12.5990638 15.2055013,12.0493775 L15.2055013,8.06819764 C15.2055013,7.17983218 14.6235625,6.42738581 13.8200982,6.17127187 L12.8219616,8.41701777 L11.1314139,7.77074822 C11.2614054,7.48965993 11.4656078,7.05531353 11.6978127,6.5821595 C12.2552008,5.44639331 12.9739392,4.08701777 13.2149113,4.08701777 Z M8.60796164,13.0440178 L8.5673519,13.1290178 C8.49107504,13.2879894 8.41003088,13.4568968 8.32421941,13.6357399 C8.26766056,13.7629973 8.23843648,13.9007074 8.23843648,14.0399674 L8.23843648,14.0399674 L8.23796164,15.0350177 L6.24784654,15.0352624 C5.69816031,15.0352624 5.25255157,15.4808711 5.25255157,16.0305574 L5.25255157,22.9976222 C5.25255157,23.5473084 5.69816031,23.9929171 6.24784654,23.9929171 L8.23796164,23.9920177 L8.23843648,24.9882121 C8.23843648,25.498635 8.62266034,25.9194833 9.11765903,25.9770003 L9.23373145,25.9836992 L6.24784654,25.9835071 C4.59878784,25.9835071 3.26196164,24.6466809 3.26196164,22.9976222 L3.26196164,16.0305574 C3.26196164,14.3814987 4.59878784,13.0446725 6.24784654,13.0446725 L8.60796164,13.0440178 Z M9.83533996,10.4863533 L11.6019616,11.1620178 L10.2290264,14.2511834 L10.2290264,14.0399674 C10.2290264,13.4902812 9.78341768,13.0446725 9.23373145,13.0446725 L9.23373145,13.0446725 L8.60796164,13.0440178 L8.6781917,12.8980121 C8.89272037,12.4509044 9.06434329,12.0932182 9.19306049,11.8249535 C9.36866284,11.4589737 9.58275599,11.0127736 9.83533996,10.4863533 Z" id="path-1" fill="#AEAEAD" fill-rule="nonzero"></path>
                                <path d="M9,12.9457557 L9.46166834,12.9457557 C10.0139531,12.9457557 10.4616683,13.393471 10.4616683,13.9457557 L10.4616683,24.9836992 C10.4616683,25.535984 10.0139531,25.9836992 9.46166834,25.9836992 L9,25.9836992 C8.44771525,25.9836992 8,25.535984 8,24.9836992 L8,13.9457557 C8,13.393471 8.44771525,12.9457557 9,12.9457557 Z" id="矩形" fill="#AEAEAD"></path>
                            </g>
                        </g>
                    </g>
                </g>
            </g>
        </g>
    </g>
</svg>