<?xml version="1.0" encoding="UTF-8"?>
<svg width="21px" height="23px" viewBox="0 0 21 23" version="1.1" xmlns="http://www.w3.org/2000/svg" xmlns:xlink="http://www.w3.org/1999/xlink">
    <!-- Generator: Sketch 61.2 (89653) - https://sketch.com -->
    <title>thumbs-up-2</title>
    <desc>Created with Sketch.</desc>
    <g id="页面-1" stroke="none" stroke-width="1" fill="none" fill-rule="evenodd">
        <g id="最热" transform="translate(-262.000000, -478.000000)">
            <g id="编组-5" transform="translate(0.000000, 99.000000)">
                <g id="转发" transform="translate(259.000000, 376.000000)">
                    <g id="编组-3">
                        <g id="编组" transform="translate(0.000000, 0.174944)">
                            <g id="thumbs-up-2" transform="translate(0.000000, 0.825056)">
                                <rect id="矩形" x="0" y="0" width="28" height="28"></rect>
                                <path d="M12.4713582,8.03192484 L14.2446833,4.63542751 C14.5003089,4.14587914 15.1043824,3.9562178 15.5939433,4.2118195 C15.5967815,4.21330137 15.5996126,4.21479686 15.6024365,4.21630592 C16.8645263,4.89075436 17.2021734,7.14241579 16.6153777,10.9712902 L21.8106216,10.9712902 C22.3629063,10.9712902 22.8106216,11.4190055 22.8106216,11.9712902 C22.8106216,12.0288486 22.8056522,12.0862994 22.7957687,12.1430029 L21.0477491,22.1717127 C20.9642906,22.6505292 20.5486376,23 20.062602,23 L7,23 C6.44771525,23 6,22.5522847 6,22 L6,13.7884124 C6,13.2361276 6.44771525,12.7884124 7,12.7884124 L10.3906898,12.7884124 L10.3906898,12.7884124 L11.4707489,9.84606701" id="路径-8" fill="#FF5696"></path>
                                <path d="M11.374753,7.41466347 L13.455115,3.58628411 C13.684515,3.16410212 14.1817473,2.96475747 14.6392593,3.11153899 C16.3248385,3.65231583 16.8108432,6.15948752 16.0972733,10.6330541 L22.1754471,10.6330541 C22.7277319,10.6330541 23.1754471,11.0807693 23.1754471,11.6330541 C23.1754471,11.6929146 23.1700722,11.7526543 23.1593871,11.8115534 L21.1329039,22.9821128 C21.0466112,23.457783 20.632398,23.8036135 20.1489639,23.8036135 L5,23.8036135 C4.44771525,23.8036135 4,23.3558982 4,22.8036135 L4,13.6226702 C4,13.0703855 4.44771525,12.6226702 5,12.6226702 L9.00362551,12.6226702 L9.00362551,12.6226702 L10.2344597,9.40101675 M9.00362551,12.6226702 L9.00362551,23.8036135" id="形状结合" stroke="#333333" stroke-linecap="round"></path>
                            </g>
                        </g>
                    </g>
                </g>
            </g>
        </g>
    </g>
</svg>