<svg xmlns="http://www.w3.org/2000/svg" width="100" height="100" viewBox="0 0 100 100">
  <g fill="none" fill-rule="evenodd">
    <g transform="translate(1.5 2)">
      <circle cx="48.341" cy="48.341" r="45.341" fill="#FFF"/>
      <path fill="#1E9DFF" fill-rule="nonzero" d="M48.3409091,0.5 C74.7627136,0.5 96.1818182,21.9191046 96.1818182,48.3409091 C96.1818182,74.7627136 74.7627136,96.1818182 48.3409091,96.1818182 C21.9191046,96.1818182 0.5,74.7627136 0.5,48.3409091 C0.5,21.9191046 21.9191046,0.5 48.3409091,0.5 Z M48.3409091,5.5 C24.6805283,5.5 5.5,24.6805283 5.5,48.3409091 C5.5,72.0012898 24.6805283,91.1818182 48.3409091,91.1818182 C72.0012898,91.1818182 91.1818182,72.0012898 91.1818182,48.3409091 C91.1818182,24.6805283 72.0012898,5.5 48.3409091,5.5 Z"/>
      <g fill="#1E9DFF" fill-rule="nonzero" transform="rotate(45 14.34 72.703)">
        <path d="M23.0948666,0.506367876 C35.3085936,0.506367876 45.2097757,10.4075499 45.2097757,22.621277 C45.2097757,34.835004 35.3085936,44.7361861 23.0948666,44.7361861 C10.8811395,44.7361861 0.979957476,34.835004 0.979957476,22.621277 C0.979957476,10.4075499 10.8811395,0.506367876 23.0948666,0.506367876 Z M23.0948666,6.55436788 C14.2213577,6.55436788 7.02795748,13.7477681 7.02795748,22.621277 C7.02795748,31.4947858 14.2213577,38.6881861 23.0948666,38.6881861 C31.9683754,38.6881861 39.1617757,31.4947858 39.1617757,22.621277 C39.1617757,13.7477681 31.9683754,6.55436788 23.0948666,6.55436788 Z"/>
        <path d="M17.2645712,43.2966793 C17.2344318,41.9162964 16.0909776,40.8217077 14.7105948,40.8518471 C13.3302119,40.8819865 12.2356232,42.0254407 12.2657626,43.4058236 L12.596297,58.544299 C12.62551,59.8822553 13.7031729,60.9599182 15.0411292,60.9891312 L30.1796047,61.3196656 C31.5599875,61.349805 32.7034417,60.2552163 32.7335811,58.8748334 C32.7637205,57.4944506 31.6691318,56.3509964 30.2887489,56.320857 L17.5428656,56.0425626 L17.2645712,43.2966793 Z" transform="rotate(-45 22.5 51.086)"/>
      </g>
    </g>
    <path fill="#1E9DFF" fill-rule="nonzero" d="M30.1982042,73.939177 L43.7718011,60.3655801 C44.7481118,59.3892694 44.7481118,57.806357 43.7718011,56.8300462 C42.7954904,55.8537355 41.2125779,55.8537355 40.2362672,56.8300462 L26.6626703,70.4036431 C25.6863596,71.3799538 25.6863596,72.9628663 26.6626703,73.939177 C27.6389811,74.9154877 29.2218935,74.9154877 30.1982042,73.939177 Z"/>
  </g>
</svg>
