<svg xmlns="http://www.w3.org/2000/svg" width="100" height="100" viewBox="0 0 100 100">
  <g fill="none" fill-rule="evenodd" transform="translate(2 2)">
    <circle cx="48.341" cy="48.341" r="45.341" fill="#FFF"/>
    <path fill="#FF3287" fill-rule="nonzero" d="M48.3409091,0.5 C74.7627136,0.5 96.1818182,21.9191046 96.1818182,48.3409091 C96.1818182,74.7627136 74.7627136,96.1818182 48.3409091,96.1818182 C21.9191046,96.1818182 0.5,74.7627136 0.5,48.3409091 C0.5,21.9191046 21.9191046,0.5 48.3409091,0.5 Z M48.3409091,5.5 C24.6805283,5.5 5.5,24.6805283 5.5,48.3409091 C5.5,72.0012898 24.6805283,91.1818182 48.3409091,91.1818182 C72.0012898,91.1818182 91.1818182,72.0012898 91.1818182,48.3409091 C91.1818182,24.6805283 72.0012898,5.5 48.3409091,5.5 Z"/>
    <g transform="rotate(-135 39.871 35.269)">
      <path fill="#FF3287" fill-rule="nonzero" d="M23,0.857864376 C35.7025492,0.857864376 46,11.1553151 46,23.8578644 C46,36.5604136 35.7025492,46.8578644 23,46.8578644 C10.2974508,46.8578644 -9.09494702e-13,36.5604136 -9.09494702e-13,23.8578644 C-9.09494702e-13,11.1553151 10.2974508,0.857864376 23,0.857864376 Z M23,6.85786438 C13.6111593,6.85786438 6,14.4690236 6,23.8578644 C6,33.2467051 13.6111593,40.8578644 23,40.8578644 C32.3888407,40.8578644 40,33.2467051 40,23.8578644 C40,14.4690236 32.3888407,6.85786438 23,6.85786438 Z"/>
      <path stroke="#FF3287" stroke-width="6" d="M13.8983766,63.978145 C13.9044135,63.9841818 13.9044135,63.9939696 13.8983766,64.0000064 L30.4568182,47.4415649 C30.4507813,47.4476017 30.4409936,47.4476017 30.4349567,47.4415649 C30.4289198,47.435528 30.4289198,47.4257403 30.4349567,47.4197034 L13.8765152,63.978145 C13.882552,63.9721081 13.8923397,63.9721081 13.8983766,63.978145 Z" transform="rotate(135 22.167 55.71)"/>
      <path stroke="#FF3287" stroke-width="6" d="M14.6778756,47.3555451 C14.6421069,47.3913139 14.5841142,47.3913139 14.5483455,47.3555451 L31.3221244,64.1293241 C31.2863556,64.0935553 31.2863556,64.0355627 31.3221244,63.9997939 C31.3578931,63.9640252 31.4158858,63.9640252 31.4516545,63.9997939 L14.6778756,47.226015 C14.7136444,47.2617838 14.7136444,47.3197764 14.6778756,47.3555451 Z" transform="rotate(135 23 55.678)"/>
    </g>
  </g>
</svg>
