<svg xmlns="http://www.w3.org/2000/svg" xmlns:xlink="http://www.w3.org/1999/xlink" width="220" height="100" viewBox="0 0 220 100">
  <defs>
    <linearGradient id="b3备份-b" x1="101.436%" x2="0%" y1="41.454%" y2="59.003%">
      <stop offset="0%" stop-color="#FF9B8C"/>
      <stop offset="100%" stop-color="#BD62FF"/>
    </linearGradient>
    <rect id="b3备份-a" width="220" height="100" x="0" y="0" rx="10"/>
  </defs>
  <g fill="none" fill-rule="evenodd">
    <mask id="b3备份-c" fill="#fff">
      <use xlink:href="#b3备份-a"/>
    </mask>
    <use fill="url(#b3备份-b)" xlink:href="#b3备份-a"/>
    <path fill="#FFF" d="M3.15,77 C7.7891919,77 11.55,80.581722 11.55,85 C11.55,85.5452313 11.4927287,86.0777232 11.383603,86.5923167 C12.5955454,87.2739008 13.6719304,88.1522171 14.5640865,89.1808136 C15.508873,87.8641929 17.0984689,87 18.9,87 C21.7994949,87 24.15,89.2385763 24.15,92 C29.9489899,92 34.65,96.4771525 34.65,102 L34.65,102 L15.8573009,101.999623 C13.8094527,105.574585 9.82713155,108 5.25,108 C-1.41883835,108 -6.825,102.851275 -6.825,96.5 C-6.825,93.703578 -5.77697252,91.1402797 -4.03458188,89.1469283 C-4.80566871,87.9385201 -5.25,86.5186787 -5.25,85 C-5.25,80.581722 -1.4891919,77 3.15,77 Z" mask="url(#b3备份-c)"/>
    <circle cx="17.5" cy="83.5" r="3.5" fill="#FFF" mask="url(#b3备份-c)"/>
    <circle cx="200.5" cy="82.5" r="2.5" fill="#FFF" mask="url(#b3备份-c)"/>
  </g>
</svg>
