<svg xmlns="http://www.w3.org/2000/svg" xmlns:xlink="http://www.w3.org/1999/xlink" width="220" height="100" viewBox="0 0 220 100">
  <defs>
    <linearGradient id="b4备份-b" x1="103.992%" x2="0%" y1="39.669%" y2="60.331%">
      <stop offset="0%" stop-color="#62D6FF"/>
      <stop offset="100%" stop-color="#854EFF"/>
    </linearGradient>
    <rect id="b4备份-a" width="220" height="100" x="0" y="0" rx="10"/>
  </defs>
  <g fill="none" fill-rule="evenodd">
    <mask id="b4备份-c" fill="#fff">
      <use xlink:href="#b4备份-a"/>
    </mask>
    <use fill="url(#b4备份-b)" xlink:href="#b4备份-a"/>
    <circle cx="220" cy="9" r="5" fill="#FFF" mask="url(#b4备份-c)"/>
    <path fill="#FFF" d="M8,83.5 C13.6853731,83.5 18.4071413,87.6256833 19.3347553,93.0465008 C21.1030886,91.4626116 23.4391293,90.5 26,90.5 C31.5228475,90.5 36,94.9771525 36,100.5 C33.9740053,100.499049 25.1096364,100.498951 18.267794,100.499706 L18.1021914,100.499623 C16.1518597,104.074585 12.3591729,106.5 8,106.5 C1.64872538,106.5 -3.5,101.351275 -3.5,95 C-3.5,88.6487254 1.64872538,83.5 8,83.5 Z M25,78.5 C27.7614237,78.5 30,80.7385763 30,83.5 C30,86.2614237 27.7614237,88.5 25,88.5 C22.2385763,88.5 20,86.2614237 20,83.5 C20,80.7385763 22.2385763,78.5 25,78.5 Z M2,72.5 C4.48528137,72.5 6.5,74.5147186 6.5,77 C6.5,79.4852814 4.48528137,81.5 2,81.5 C-0.485281374,81.5 -2.5,79.4852814 -2.5,77 C-2.5,74.5147186 -0.485281374,72.5 2,72.5 Z" mask="url(#b4备份-c)"/>
  </g>
</svg>
