<svg height="39" viewBox="0 0 40 39" width="40" xmlns="http://www.w3.org/2000/svg"><g fill="none" fill-rule="evenodd" transform="translate(0 -1)"><rect fill="#f9d44f" height="39" rx="19.5" width="40" y="1"/><path d="m23.666 28.545c0 1.908-1.532 3.455-3.42 3.455-1.826 0-3.318-1.446-3.415-3.266l-.005-.19h6.84zm-3.466-20.545c1.102 0 1.995.893 1.995 1.995v.279l-.002.05a8.804 8.804 0 0 1 6.762 8.564v5.837l1.372.001a1.273 1.273 0 1 1 0 2.546h-20.254a1.273 1.273 0 1 1 0-2.546l1.28-.001v-5.837a8.804 8.804 0 0 1 6.853-8.585v-.014l-.001-.294c0-1.102.893-1.995 1.995-1.995zm0 4.19a6.46 6.46 0 0 0 -6.46 6.46v6.112h12.92v-6.112a6.46 6.46 0 0 0 -6.46-6.46z" fill="#484848"/></g></svg>