<?xml version="1.0" encoding="UTF-8"?>
<svg width="12px" height="12px" viewBox="0 0 12 12" version="1.1" xmlns="http://www.w3.org/2000/svg" xmlns:xlink="http://www.w3.org/1999/xlink">
    <!-- Generator: Sketch 58 (84663) - https://sketch.com -->
    <title>编组 3</title>
    <desc>Created with Sketch.</desc>
    <g id="页面-1" stroke="none" stroke-width="1" fill="none" fill-rule="evenodd">
        <g id="1.首页-修改版复制-4备份-16" transform="translate(-121.000000, -676.000000)">
            <g id="编组-4" transform="translate(122.000000, 675.000000)">
                <g id="编组-3" transform="translate(0.000000, 2.000000)">
                    <rect id="矩形" stroke="#FF0000" fill="#FD0000" x="0" y="0" width="10" height="10" rx="2"></rect>
                    <path d="M3.5,7 C3.22385763,7 3,6.77614237 3,6.5 C3,6.22385763 3.22385763,6 3.5,6 L6,6 L6,1.5 C6,1.22385763 6.22385763,1 6.5,1 C6.77614237,1 7,1.22385763 7,1.5 L7,6.5 L7,6.5 C7,6.74545989 6.82312484,6.94960837 6.58987563,6.99194433 L6.5,7 L6.5,7 L3.5,7 Z" id="形状结合" fill="#FFFFFF" transform="translate(5.000000, 4.000000) rotate(45.000000) translate(-5.000000, -4.000000) "></path>
                </g>
            </g>
        </g>
    </g>
</svg>