<?xml version="1.0" encoding="UTF-8"?>
<svg width="20px" height="20px" viewBox="0 0 20 20" version="1.1" xmlns="http://www.w3.org/2000/svg" xmlns:xlink="http://www.w3.org/1999/xlink">
    <!-- Generator: Sketch 63.1 (92452) - https://sketch.com -->
    <title>搜索xx </title>
    <desc>Created with Sketch.</desc>
    <defs>
        <path d="M12,4 C16.418278,4 20,7.581722 20,12 C20,16.418278 16.418278,20 12,20 C7.581722,20 4,16.418278 4,12 C4,7.581722 7.581722,4 12,4 Z M12,6.4444779 C11.5581722,6.4444779 11.2,6.8026501 11.2,7.2444779 L11.2,7.2444779 L11.2,11.144 L7.3,11.1444779 C6.89215895,11.1444779 6.55559842,11.449666 6.50623314,11.8441276 L6.5,11.9444779 C6.5,12.3863057 6.8581722,12.7444779 7.3,12.7444779 L7.3,12.7444779 L11.2,12.744 L11.2,16.6444779 C11.2,17.0523189 11.5051881,17.3888795 11.8996497,17.4382448 L12,17.4444779 C12.4418278,17.4444779 12.8,17.0863057 12.8,16.6444779 L12.8,16.6444779 L12.799,12.744 L16.7,12.7444779 C17.107841,12.7444779 17.4444016,12.4392898 17.4937669,12.0448282 L17.5,11.9444779 C17.5,11.5026501 17.1418278,11.1444779 16.7,11.1444779 L16.7,11.1444779 L12.799,11.144 L12.8,7.2444779 C12.8,6.83663685 12.4948119,6.50007632 12.1003503,6.45071103 Z" id="path-1"></path>
    </defs>
    <g id="页面-1" stroke="none" stroke-width="1" fill="none" fill-rule="evenodd">
        <g id="泡吧-搜索结果页" transform="translate(-274.000000, -66.000000)">
            <g id="搜索框" transform="translate(15.000000, 59.000000)">
                <g id="搜索xx" transform="translate(257.000000, 5.000000)">
                    <rect id="矩形" fill="#FFFFFF" opacity="0.00999999978" x="2" y="2" width="20" height="20" rx="2"></rect>
                    <mask id="mask-2" fill="white">
                        <use xlink:href="#path-1"></use>
                    </mask>
                    <use id="搜索/xx" fill="#D8D8D8" transform="translate(12.000000, 12.000000) rotate(-315.000000) translate(-12.000000, -12.000000) " xlink:href="#path-1"></use>
                </g>
            </g>
        </g>
    </g>
</svg>