<svg xmlns="http://www.w3.org/2000/svg" width="30" height="30" viewBox="0 0 30 30">
  <g fill="none" fill-rule="evenodd">
    <polygon fill="#FFCE00" fill-rule="nonzero" points="26 7.5 23.079 15.539 19.665 24.5 14.728 15.35 10 13.367 18 10.431"/>
    <path fill="#4B4B4B" fill-rule="nonzero" d="M18.1037477,28.5 C17.5521403,28.5 17.0406498,28.1957783 16.7765468,27.7043434 L11.9090292,18.587723 L2.79580595,13.7201766 C2.27094313,13.4393566 1.9633802,12.8810597 2.00349711,12.2859888 C2.04361401,11.6909178 2.43141074,11.1827674 2.98970432,10.9788386 L25.9800331,2.59101297 C26.5282975,2.39042727 27.1467664,2.52749417 27.5579647,2.94203796 C27.972506,3.35658175 28.1095721,3.97171125 27.9089876,4.51997885 L19.5178686,27.5104439 C19.313941,28.0687407 18.8024505,28.4531967 18.2107261,28.4966569 C18.1772954,28.4966569 18.1405216,28.5 18.1037477,28.5 Z M4.58020582,12.2859792 L12.6951525,16.3502114 C13.0225687,16.5134024 13.2878172,16.7620744 13.4618865,17.0690288 L17.7970419,24.6768364 L25.3939252,5.16385896 L4.58020582,12.2859792 L4.58020582,12.2859792 Z"/>
  </g>
</svg>
