<svg xmlns="http://www.w3.org/2000/svg" width="52" height="52" viewBox="0 0 52 52">
  <g fill="#FFF" transform="translate(10.5 10.5)">
    <path d="M16.5725919,0.028259735 C8.72101926,0.028259735 2.33295626,6.18351304 2.33295626,13.7491893 C2.33295626,15.3532678 2.6186053,16.9263299 3.18061962,18.4255758 C3.3938345,18.9884556 4.00448464,19.2666721 4.55302364,19.0505243 C5.09847957,18.831153 5.36860948,18.1965701 5.15747308,17.6315772 C4.68964744,16.3870526 4.45263426,15.0814981 4.45263426,13.7492251 C4.45263426,7.39172046 9.88952686,2.21989513 16.5725573,2.21989513 C23.2555878,2.21989513 28.6924804,7.39172046 28.6924804,13.7492251 C28.6924804,20.1056553 23.2555878,25.2775165 16.5621997,25.2775165 C15.4930423,25.2646586 14.2831042,25.0559962 12.9945312,24.8098706 C9.15160591,24.0789434 4.37192086,23.1639951 0.763895707,28.4867121 C0.428571589,28.9832254 0.544480127,29.6659804 1.02366797,30.013751 C1.20892763,30.1475227 1.42110326,30.2117045 1.63120044,30.2117045 C1.96551997,30.2117045 2.29360414,30.0490295 2.50061829,29.7451331 C5.32617432,25.5749301 8.86280454,26.2512383 12.6095319,26.9650097 C13.9653776,27.2239574 15.2487891,27.4690443 16.4763248,27.4690443 C24.3444558,27.522553 30.8122275,21.3448074 30.8122275,13.7491892 C30.8122275,6.18351304 24.4241645,0.028259735 16.5725919,0.028259735 Z"/>
    <path d="M20.5352567 14.2058251C20.5352567 15.451184 21.5448196 16.4607468 22.7901785 16.4607468 24.0355373 16.4607468 25.0451002 15.451184 25.0451002 14.2058251 25.0451002 12.9604662 24.0355373 11.9509034 22.7901785 11.9509034 21.5448196 11.9509034 20.5352567 12.9604662 20.5352567 14.2058251zM14.3474682 14.2058251C14.3474682 15.451184 15.357031 16.4607468 16.6023899 16.4607468 17.8477488 16.4607468 18.8573117 15.451184 18.8573117 14.2058251 18.8573117 12.9604662 17.8477488 11.9509034 16.6023899 11.9509034 15.357031 11.9509034 14.3474682 12.9604662 14.3474682 14.2058251L14.3474682 14.2058251zM8.15967968 14.2058251C8.15967968 15.451184 9.16924252 16.4607468 10.4146014 16.4607468 11.6599603 16.4607468 12.6695231 15.451184 12.6695231 14.2058251 12.6695231 12.9604662 11.6599603 11.9509034 10.4146014 11.9509034 9.16924252 11.9509034 8.15967968 12.9604662 8.15967968 14.2058251z"/>
  </g>
</svg>
