<?xml version="1.0" encoding="UTF-8"?>
<svg width="28px" height="28px" viewBox="0 0 28 28" version="1.1" xmlns="http://www.w3.org/2000/svg" xmlns:xlink="http://www.w3.org/1999/xlink">
    <!-- Generator: Sketch 59.1 (86144) - https://sketch.com -->
    <title>图标/收藏-已收藏</title>
    <desc>Created with Sketch.</desc>
    <defs>
        <linearGradient x1="50%" y1="0%" x2="50%" y2="100%" id="linearGradient-1">
            <stop stop-color="#FFE150" offset="0%"></stop>
            <stop stop-color="#FFD815" offset="100%"></stop>
        </linearGradient>
    </defs>
    <g id="页面1" stroke="none" stroke-width="1" fill="none" fill-rule="evenodd">
        <g id="2、视频-1" transform="translate(-313.000000, -593.000000)" fill-rule="nonzero">
            <g id="图标/收藏-已收藏" transform="translate(313.000000, 593.000000)">
                <g id="收藏">
                    <g id="编组" transform="translate(0.363636, 0.363636)">
                        <path d="M27.2180454,10.234926 C27.0860081,9.82675344 26.7493131,9.5342298 26.3366967,9.46960249 L19.4278476,8.43896687 L18.7148464,8.29950793 L18.7082445,8.29950793 C18.3748505,8.24848636 18.0876695,8.03759722 17.9424285,7.73146783 L14.6249926,0.639470283 C14.4434413,0.251706388 14.0539314,0 13.6347132,0 C13.2154949,0 12.8292859,0.251706388 12.6444338,0.639470283 L9.33359972,7.72126352 C9.18505782,8.03419579 8.89787679,8.24848636 8.5611818,8.29610649 L0.936030565,9.46620105 C0.523414156,9.53082836 0.186719166,9.823352 0.0546819149,10.2315245 C-0.0740544048,10.639697 0.0282744647,11.0818839 0.322057348,11.3880133 L5.91383492,17.1432459 C6.12839546,17.3609379 6.22412246,17.6738702 6.17460849,17.9765981 L4.8773425,25.9529695 C4.80802295,26.3747477 4.98297231,26.8101317 5.31966729,27.0584367 C5.50782038,27.1978956 5.72898277,27.2693258 5.96004796,27.2693258 C6.14159918,27.2693258 6.31984947,27.2217057 6.4815951,27.1332683 L13.1296707,23.4461099 C13.2848145,23.3610739 13.4597638,23.3134538 13.6347132,23.3134538 C13.8096625,23.3134538 13.9846119,23.3576725 14.1364547,23.4427085 L20.7878312,27.1366698 C20.9462759,27.2251071 21.1278272,27.2727273 21.3093784,27.2727273 C21.5404436,27.2727273 21.761606,27.1978956 21.949759,27.0618381 C22.286454,26.8135332 22.4614034,26.3781492 22.3920838,25.9563709 L21.0948178,17.983401 C21.0453039,17.6772716 21.1443318,17.3643393 21.3621933,17.1432459 L26.9506699,11.3948162 C27.2444528,11.0852854 27.3467817,10.6430985 27.2180454,10.234926 Z" id="形状" fill="url(#linearGradient-1)"></path>
                        <path d="M16.8667458,13.0076785 C16.7556645,12.8328018 16.5656571,12.7272727 16.3639569,12.7272727 C16.121332,12.7272727 15.9050158,12.8750134 15.8114737,13.1041622 C15.4899226,13.8820621 14.7562015,14.3855864 13.9377079,14.3855864 C13.1192143,14.3855864 12.3854932,13.8820621 12.0639422,13.1071773 C11.9704,12.8780285 11.7511607,12.7302878 11.511459,12.7302878 C11.3068356,12.7302878 11.1197513,12.8358169 11.00867,13.0106936 C10.8975887,13.1855703 10.8771264,13.4056738 10.9589758,13.6016563 C11.4705343,14.8348387 12.6427341,15.6338443 13.9406311,15.6338443 C15.2385281,15.6338443 16.4107279,14.8378538 16.9222865,13.6016563 C16.9982894,13.4026587 16.9807503,13.1825552 16.8667458,13.0076785 L16.8667458,13.0076785 Z" id="路径" fill="#FFFFFF"></path>
                    </g>
                </g>
            </g>
        </g>
    </g>
</svg>