<?xml version="1.0" encoding="UTF-8"?>
<svg width="16px" height="20px" viewBox="0 0 16 20" version="1.1" xmlns="http://www.w3.org/2000/svg" xmlns:xlink="http://www.w3.org/1999/xlink">
    <!-- Generator: Sketch 63.1 (92452) - https://sketch.com -->
    <title>搜索/删除</title>
    <desc>Created with Sketch.</desc>
    <defs>
        <path d="M11.3664254,5.51032868 C12.5704913,5.51032868 13.5465796,6.48641695 13.5465796,7.69048285 L13.5465796,16.4937375 C13.5465796,17.6978034 12.5704913,18.6738916 11.3664254,18.6738916 L3.3932807,18.6738916 C2.1892148,18.6738916 1.21312653,17.6978034 1.21312653,16.4937375 L1.21312653,7.69048285 C1.21312653,6.48641695 2.1892148,5.51032868 3.3932807,5.51032868 L11.3664254,5.51032868 Z M5.52259007,8.97979488 L5.49664258,8.97979488 C5.17323645,8.97979488 4.90549729,9.21813349 4.85949022,9.52874558 L4.85250612,9.62393134 L4.85250612,14.1521165 C4.85250612,14.4755226 5.09084473,14.7432618 5.40145682,14.7892688 L5.49664258,14.7962529 L5.52259007,14.7962529 C5.8459962,14.7962529 6.11373537,14.5579143 6.15974244,14.2473022 L6.16672653,14.1521165 L6.16672653,9.62393134 C6.16672653,9.2681846 5.87833681,8.97979488 5.52259007,8.97979488 Z M9.26306354,8.97979488 L9.23711605,8.97979488 C8.91370992,8.97979488 8.64597076,9.21813349 8.59996368,9.52874558 L8.59297959,9.62393134 L8.59297959,14.1521165 C8.59297959,14.4755226 8.8313182,14.7432618 9.14193029,14.7892688 L9.23711605,14.7962529 L9.26306354,14.7962529 C9.58646967,14.7962529 9.85420884,14.5579143 9.90021591,14.2473022 L9.9072,14.1521165 L9.9072,9.62393134 C9.9072,9.2681846 9.61881028,8.97979488 9.26306354,8.97979488 Z M9.55985778,-2.50188485e-14 C9.90631575,-2.47494249e-14 10.2214253,0.200640514 10.3679955,0.51456769 L11.223,2.346 L13.7707229,2.34699184 C14.3727559,2.34699184 14.8608,2.83503598 14.8608,3.43706893 L14.8608,3.50186348 C14.8608,4.10389643 14.3727559,4.59194056 13.7707229,4.59194056 L1.09007709,4.59194056 C0.488044136,4.59194056 -1.48316832e-16,4.10389643 0,3.50186348 L0,3.43706893 C-7.37277727e-17,2.83503598 0.488044136,2.34699184 1.09007709,2.34699184 L3.524,2.346 L4.37994798,0.51456769 C4.52651826,0.200640514 4.84162778,-2.46221383e-14 5.18808574,-2.50188485e-14 L9.55985778,-2.50188485e-14 Z" id="path-1"></path>
    </defs>
    <g id="页面-1" stroke="none" stroke-width="1" fill="none" fill-rule="evenodd" opacity="0.800000012">
        <g id="搜索" transform="translate(-321.000000, -117.000000)">
            <g id="搜索/删除" transform="translate(311.000000, 110.000000)">
                <g id="叠加色" transform="translate(10.368000, 7.607882)">
                    <mask id="mask-2" fill="white">
                        <use xlink:href="#path-1"></use>
                    </mask>
                    <use id="Mask" fill="#BBBBBB" xlink:href="#path-1"></use>
                </g>
            </g>
        </g>
    </g>
</svg>