<?xml version="1.0" encoding="UTF-8"?>
<svg width="9px" height="9px" viewBox="0 0 9 9" version="1.1" xmlns="http://www.w3.org/2000/svg" xmlns:xlink="http://www.w3.org/1999/xlink">
    <!-- Generator: Sketch 63.1 (92452) - https://sketch.com -->
    <title>编组 6</title>
    <desc>Created with Sketch.</desc>
    <g id="页面-1" stroke="none" stroke-width="1" fill="none" fill-rule="evenodd">
        <g id="泡吧-搜索" transform="translate(-94.000000, -159.000000)" fill="#A5A5A5" fill-rule="nonzero">
            <g id="编组-9" transform="translate(16.000000, 148.485972)">
                <g id="编组-6" transform="translate(78.000000, 11.000000)">
                    <path d="M7.67573307,8.29581418 L0.138643212,0.840309018 C-0.0447724328,0.658592222 -0.0464213097,0.362582915 0.134995682,0.17915728 C0.317022265,-0.00454816903 0.613311386,-0.00527767098 0.796147421,0.175509751 L8.33323727,7.63101492 C8.51665292,7.81273171 8.5183018,8.10874102 8.3368848,8.29216666 C8.24127963,8.38873119 8.11393597,8.43486991 7.98834111,8.43053285 C7.87490802,8.4266155 7.76258418,8.381626 7.67573307,8.29581418 Z" id="路径"></path>
                    <path d="M0.492183515,8.47148508 C0.378750419,8.46756774 0.266736366,8.42258824 0.179575458,8.33676642 C-0.00384018666,8.15504962 -0.00548906361,7.85904032 0.175927929,7.67561468 L7.63143309,0.138524829 C7.81345968,-0.0451806202 8.10882942,-0.0459401026 8.29258483,0.1348773 C8.47600048,0.316594097 8.47764935,0.612603403 8.29623236,0.796029038 L0.840727196,8.33311889 C0.745132011,8.42967342 0.617788348,8.47582214 0.492183515,8.47148508 Z" id="路径"></path>
                </g>
            </g>
        </g>
    </g>
</svg>