<?xml version="1.0" encoding="UTF-8"?>
<svg width="12px" height="16px" viewBox="0 0 12 16" version="1.1" xmlns="http://www.w3.org/2000/svg" xmlns:xlink="http://www.w3.org/1999/xlink">
    <!-- Generator: Sketch 61 (89581) - https://sketch.com -->
    <title>ipad</title>
    <desc>Created with Sketch.</desc>
    <g id="页面-1" stroke="none" stroke-width="1" fill="none" fill-rule="evenodd">
        <g id="我的-收藏备份" transform="translate(-187.000000, -303.000000)" fill-rule="nonzero">
            <g id="编组-9备份" transform="translate(16.000000, 244.000000)">
                <g id="ipad" transform="translate(167.000000, 57.000000)">
                    <rect id="矩形" fill="#000000" opacity="0" x="0" y="0" width="20" height="20"></rect>
                    <path d="M14.5833333,2.91666666 C15.2736893,2.91666666 15.8333333,3.47631072 15.8333333,4.16666666 L15.8333333,15.8333333 C15.8333333,16.5236893 15.2736893,17.0833333 14.5833333,17.0833333 L5.41666666,17.0833333 C4.72631072,17.0833333 4.16666666,16.5236893 4.16666666,15.8333333 L4.16666666,4.16666666 C4.16666666,3.47631072 4.72631072,2.91666666 5.41666666,2.91666666 L14.5833333,2.91666666 Z M14.5833333,4.16666666 L5.41666666,4.16666666 L5.41666666,15.8333333 L14.5833333,15.8333333 L14.5833333,4.16666666 Z M10,13.3333333 C10.2977517,13.3332878 10.5729051,13.4921102 10.7217942,13.7499632 C10.8706832,14.0078161 10.8706832,14.3255172 10.7217942,14.5833702 C10.5729051,14.8412231 10.2977517,15.0000456 10,15 C9.53981253,14.9999295 9.16679424,14.6268541 9.16679424,14.1666667 C9.16679424,13.7064792 9.53981253,13.3334038 10,13.3333333 L10,13.3333333 Z M13.75,5 L13.75,12.9166667 L6.25,12.9166667 L6.25,5 L13.75,5 Z M12.5,6.25 L7.5,6.25 L7.5,11.6666667 L12.5,11.6666667 L12.5,6.25 Z" id="形状" fill="#333333"></path>
                </g>
            </g>
        </g>
    </g>
</svg>