<?xml version="1.0" encoding="UTF-8"?>
<svg width="30px" height="26px" viewBox="0 0 30 26" version="1.1" xmlns="http://www.w3.org/2000/svg" xmlns:xlink="http://www.w3.org/1999/xlink">
    <!-- Generator: Sketch 59.1 (86144) - https://sketch.com -->
    <title>图标/点赞-已点赞</title>
    <desc>Created with Sketch.</desc>
    <defs>
        <linearGradient x1="50%" y1="0%" x2="50%" y2="100%" id="linearGradient-1">
            <stop stop-color="#FF6B99" offset="0%"></stop>
            <stop stop-color="#FF3960" offset="100%"></stop>
        </linearGradient>
    </defs>
    <g id="页面1" stroke="none" stroke-width="1" fill="none" fill-rule="evenodd">
        <g id="2、视频-1" transform="translate(-312.000000, -540.000000)" fill-rule="nonzero">
            <g id="图标/点赞-已点赞" transform="translate(312.000000, 540.000000)">
                <g id="点赞_点中">
                    <g id="心" transform="translate(0.454545, 0.090909)">
                        <g id="编组">
                            <path d="M26.6098662,14.5906025 L14.5772628,25.4184526 L14.5772628,25.4545455 L14.5772628,25.4184526 L14.5409105,25.4545455 L14.5409105,25.3823598 L2.50830706,14.5545096 C-0.836102355,11.1978761 -0.836102355,5.82004386 2.50830706,2.49950311 C5.78001193,-0.78494477 11.1601488,-0.821037603 14.5045582,2.42731745 L14.5772628,2.49950311 C17.8489677,-0.821037603 23.2291045,-0.821037603 26.5371617,2.42731745 L26.6098662,2.49950311 C29.9179234,5.85613666 29.9179234,11.2339689 26.6098662,14.5906025 Z" id="路径" fill="url(#linearGradient-1)"></path>
                            <path d="M8.40294839,4.10319409 L8.23095822,4.10319409 C5.96068796,4.10319409 4.10319409,5.96068793 4.10319409,8.23095822 L4.10319409,8.40294839 C4.10319409,8.78132677 3.79361177,9.09090909 3.41523341,9.09090909 C3.03685505,9.09090909 2.72727273,8.78132677 2.72727273,8.40294839 L2.72727273,8.33415232 L2.72727273,8.23095822 C2.72727273,5.20393119 5.20393121,2.72727273 8.23095822,2.72727273 L8.40294839,2.72727273 C8.78132677,2.72727273 9.09090909,3.03685505 9.09090909,3.41523341 C9.09090909,3.79361177 8.78132677,4.10319409 8.40294839,4.10319409 Z" id="路径" fill="#FFFFFF"></path>
                        </g>
                    </g>
                </g>
            </g>
        </g>
    </g>
</svg>