<?xml version="1.0" encoding="UTF-8"?>
<svg width="300px" height="300px" viewBox="0 0 300 300" version="1.1" xmlns="http://www.w3.org/2000/svg" xmlns:xlink="http://www.w3.org/1999/xlink">
    <!-- Generator: Sketch 59.1 (86144) - https://sketch.com -->
    <title>加载中1。2</title>
    <desc>Created with Sketch.</desc>
    <defs>
        <filter x="-5.9%" y="-8.6%" width="111.8%" height="117.3%" filterUnits="objectBoundingBox" id="filter-1">
            <feOffset dx="8" dy="8" in="SourceAlpha" result="shadowOffsetOuter1"></feOffset>
            <feColorMatrix values="0 0 0 0 1   0 0 0 0 0.159660823   0 0 0 0 0.159660823  0 0 0 1 0" type="matrix" in="shadowOffsetOuter1" result="shadowMatrixOuter1"></feColorMatrix>
            <feMerge>
                <feMergeNode in="shadowMatrixOuter1"></feMergeNode>
                <feMergeNode in="SourceGraphic"></feMergeNode>
            </feMerge>
        </filter>
    </defs>
    <g id="加载中1。2" stroke="none" stroke-width="1" fill="none" fill-rule="evenodd" opacity="0.300000012">
        <g id="编组-2" filter="url(#filter-1)" transform="translate(10.500000, 58.000000)">
            <path d="M75.5,30 C75.5,20.0588745 83.5588745,12 93.5,12 L228.5,12 C238.441125,12 246.5,20.0588745 246.5,30 L246.5,102 C246.5,111.941125 238.441125,120 228.5,120 L93.5,120 C83.5588745,120 75.5,111.941125 75.5,102 C75.5,98.6862915 72.8137085,96 69.5,96 C66.1862915,96 63.5,98.6862915 63.5,102 C63.5,118.568542 76.9314575,132 93.5,132 L228.5,132 C245.068542,132 258.5,118.568542 258.5,102 L258.5,30 C258.5,13.4314575 245.068542,0 228.5,0 L93.5,0 C76.9314575,0 63.5,13.4314575 63.5,30 C63.5,33.3137085 66.1862915,36 69.5,36 C72.8137085,36 75.5,33.3137085 75.5,30 Z" id="路径" fill="#FFDA22" fill-rule="nonzero"></path>
            <path d="M41.2700044,22.5427696 L41.7511762,22.7027682 C43.0265901,23.1500606 44.2390314,23.7617658 45.3576329,24.5229307 L90.2126136,55.0450077 C96.4589145,59.2953735 98.0769395,67.8046031 93.8265737,74.050904 C92.502877,75.9961973 90.6998088,77.5671871 88.5915972,78.6120711 L18.785282,113.209877 C12.5502818,116.300104 4.99069181,113.750761 1.90046524,107.515761 C0.456238471,104.601815 0.194662034,101.242298 1.1704502,98.1399265 L21.7457609,32.7238165 C24.2931545,24.6247611 32.8468034,20.0786988 40.958257,22.4482171 L41.2700044,22.5427696 Z M37.5680696,33.6487679 C35.5863885,33.1341271 33.5279527,34.2591122 32.9067081,36.2342661 L12.3313975,101.650376 C12.2616983,101.871974 12.2803823,102.11194 12.3835414,102.320079 C12.6042719,102.765436 13.1442426,102.947532 13.5895997,102.726801 L83.3959149,68.128995 C83.7010508,67.9777618 83.9620211,67.7503816 84.1536088,67.468826 C84.7687934,66.5647562 84.5346055,65.3331572 83.6305357,64.7179726 L38.7755549,34.1958956 C38.5253244,34.0256235 38.2562012,33.885442 37.9737783,33.7780606 L37.7595548,33.7037169 L37.5680696,33.6487679 Z" id="路径-3" fill="#FFDA22" fill-rule="nonzero"></path>
            <g id="编组" transform="translate(18.500000, 40.000000)" fill="#FFFFFF">
                <circle id="椭圆形" cx="3.51" cy="39.33" r="3.51"></circle>
                <circle id="椭圆形备份" cx="8.91" cy="52.56" r="3.51"></circle>
                <circle id="椭圆形备份-2" cx="24.705" cy="36.63" r="3.51"></circle>
                <circle id="椭圆形备份-4" cx="41.1830163" cy="32.5351803" r="3.51"></circle>
                <circle id="椭圆形备份-5" cx="55.485" cy="26.1" r="3.51"></circle>
                <circle id="椭圆形备份-6" cx="44.955" cy="15.57" r="3.51"></circle>
                <circle id="椭圆形备份-7" cx="29.4830163" cy="18.1351803" r="3.51"></circle>
                <circle id="椭圆形备份-8" cx="17.7830163" cy="3.73518025" r="3.51"></circle>
                <circle id="椭圆形备份-3" cx="15.12" cy="25.155" r="3.51"></circle>
            </g>
            <ellipse id="椭圆形" fill="#FFDA22" cx="220" cy="33" rx="10.5" ry="9"></ellipse>
            <path d="M268.270827,171.520862 C235.551301,157.065055 200.051868,149.5 163.5,149.5 C140.714571,149.5 118.312046,152.438276 96.6922096,158.182383 C93.4896088,159.033272 91.5831697,162.319275 92.4340587,165.521875 C93.2849477,168.724476 96.5709505,170.630915 99.7735513,169.780026 C120.390267,164.302435 141.757093,161.5 163.5,161.5 C198.373703,161.5 232.222232,168.713242 263.421326,182.497307 C266.452387,183.83646 269.995146,182.464897 271.334298,179.433835 C272.673451,176.402774 271.301888,172.860015 268.270827,171.520862 Z" id="路径" fill="#FFDA22" fill-rule="nonzero"></path>
            <path d="M71.8314581,166.156952 C65.9487594,168.378666 60.1527807,170.813694 54.4537484,173.45643 C51.4475318,174.850462 50.1405981,178.417568 51.5346303,181.423785 C52.9286625,184.430002 56.495769,185.736935 59.5019856,184.342903 C64.9360287,181.823048 70.4623382,179.501313 76.0711975,177.38302 C79.1711907,176.212249 80.7351337,172.75011 79.564362,169.650117 C78.3935903,166.550123 74.9314513,164.98618 71.8314581,166.156952 Z" id="路径" fill="#FFDA22" fill-rule="nonzero"></path>
        </g>
    </g>
</svg>