<?xml version="1.0" encoding="UTF-8"?>
<svg width="203px" height="196px" viewBox="0 0 203 196" version="1.1" xmlns="http://www.w3.org/2000/svg" xmlns:xlink="http://www.w3.org/1999/xlink">
    <!-- Generator: Sketch 59.1 (86144) - https://sketch.com -->
    <title>编组 2</title>
    <desc>Created with Sketch.</desc>
    <defs>
        <filter x="-4.8%" y="-4.1%" width="109.5%" height="108.2%" filterUnits="objectBoundingBox" id="filter-1">
            <feOffset dx="5" dy="4" in="SourceAlpha" result="shadowOffsetOuter1"></feOffset>
            <feColorMatrix values="0 0 0 0 0.577558877   0 0 0 0 0.386879884   0 0 0 0 0  0 0 0 1 0" type="matrix" in="shadowOffsetOuter1" result="shadowMatrixOuter1"></feColorMatrix>
            <feMerge>
                <feMergeNode in="shadowMatrixOuter1"></feMergeNode>
                <feMergeNode in="SourceGraphic"></feMergeNode>
            </feMerge>
        </filter>
    </defs>
    <g id="页面1" stroke="none" stroke-width="1" fill="none" fill-rule="evenodd" opacity="0.0352836668">
        <g id="2、视频-1备份-7" transform="translate(-78.000000, -253.000000)" fill="#FFFFFF">
            <g id="编组-2" filter="url(#filter-1)" transform="translate(70.000000, 227.000000)">
                <path d="M29.2581385,98.5803349 C29.6220308,96.28946 31.7741448,94.7273319 34.0650197,95.0912241 C36.3558945,95.4551164 37.9180226,97.6072304 37.5541304,99.8981053 L37.4894537,100.339511 C37.166398,102.727153 37.015917,106.772802 37.0574808,112.418554 L37.0679287,113.531245 L37.0827143,114.651251 L37.0827143,202.851251 C37.0827143,215.711091 47.4034247,226.1604 60.2137681,226.3681 L60.6027143,226.371251 L61.6854638,226.371251 C68.8091327,226.371251 75.428745,223.220096 79.927811,217.858534 C81.4188537,216.08165 84.0680318,215.849929 85.8449158,217.340972 C87.6217999,218.832015 87.85352,221.481193 86.3624772,223.258077 C80.3895179,230.376086 71.6306799,234.620578 62.1917589,234.767317 L61.6854638,234.771251 L60.6027143,234.771251 C43.1500744,234.771251 28.9688695,220.764572 28.6869907,203.379106 L28.6827143,202.851251 L28.6831906,114.714501 L28.6611641,112.909005 C28.6000931,106.257699 28.7906839,101.523184 29.2581385,98.5803349 Z M183.204259,94.3249346 C183.727392,92.065099 185.983434,90.6572237 188.24327,91.1803571 C190.503105,91.7034905 191.91098,93.9595326 191.387847,96.2193682 C189.028408,106.41169 184.364023,118.399221 177.90068,129.486699 C169.611965,143.705494 158.924265,155.640987 145.833534,164.093486 C127.470812,175.950035 110.688833,178.49717 95.9423654,171.326277 L95.4961262,171.106002 L93.845426,204.176502 C93.7769855,205.547654 93.6227611,206.905407 93.384507,208.24397 C92.978025,210.527673 90.7971994,212.049461 88.5134968,211.642979 C86.2297942,211.236497 84.7080061,209.055671 85.1144881,206.771968 C85.2555444,205.979484 85.3568864,205.177162 85.4177882,204.366898 L85.4558707,203.757741 L87.1941114,168.933436 C87.2495179,167.823409 87.5583415,166.740804 88.0969105,165.768603 C90.0452379,162.251572 94.475787,160.979886 97.9928181,162.928213 C110.213387,169.698032 124.468003,167.890047 141.277055,157.03668 C153.170388,149.357324 162.980813,138.401529 170.643698,125.256308 C176.673048,114.913319 181.03081,103.713812 183.204259,94.3249346 Z M47.8198709,56.5001114 C49.2615289,54.6829301 51.90334,54.3785084 53.7205212,55.8201664 C55.5377025,57.2618244 55.8421242,59.9036356 54.4004662,61.7208168 C49.1321127,68.3614714 45.1471323,75.3652038 42.5353433,83.8982101 C41.856449,86.1162335 39.5080332,87.3639442 37.2900098,86.6850499 C35.0719863,86.0061557 33.8242756,83.6577398 34.5031699,81.4397164 C37.454153,71.7985252 41.945899,63.904136 47.8198709,56.5001114 Z M185.44376,59.9934642 C187.698541,59.4489609 189.96781,60.8354157 190.512314,63.0901977 C191.704074,68.0252637 192.400866,73.1363985 192.64351,78.2321408 C192.753837,80.5491115 190.964999,82.5168253 188.648028,82.6271526 C186.331058,82.7374799 184.363344,80.9486419 184.253017,78.6316712 C184.034775,74.0483943 183.409455,69.4615255 182.347026,65.0620184 C181.802523,62.8072365 183.188978,60.5379675 185.44376,59.9934642 Z M117.947505,21.4436899 C148.719616,17.015299 169.874602,25.1812353 181.919331,43.0357702 C183.216558,44.9587179 182.709311,47.5691851 180.786363,48.866412 C178.863415,50.1636389 176.252948,49.6563921 174.955721,47.7334444 C164.808277,32.6913544 146.871749,25.7677599 119.144016,29.7580366 C97.7518874,32.8365614 80.6117686,39.2326918 67.6735771,48.8880908 C65.8145783,50.2754079 63.1829192,49.8930344 61.7956021,48.0340356 C60.4082849,46.1750368 60.7906585,43.5433777 62.6496573,42.1560606 C76.8020267,31.5945558 95.2513371,24.7098779 117.947505,21.4436899 Z" id="形状" fill-rule="nonzero" transform="translate(110.649222, 127.515412) rotate(17.000000) translate(-110.649222, -127.515412) "></path>
                <path d="M110.879999,53.6694839 L111.33533,53.8211192 C112.390442,54.1944724 113.393049,54.7039955 114.31754,55.3372619 L160.149608,86.7317539 C165.125187,90.1399741 166.395782,96.9363862 162.987562,101.911965 C161.938123,103.444016 160.515318,104.683132 158.853639,105.512183 L87.4368633,141.143731 C82.5937915,143.560056 76.7088876,141.592789 74.2925625,136.749717 C73.1621491,134.484015 72.952548,131.86872 73.7076839,129.451901 L94.7448971,62.1221332 C96.8351501,55.4322619 103.878914,51.6599883 110.580189,53.5797129 L110.879999,53.6694839 Z M109.209901,59.0146472 L108.974661,58.945391 C105.206777,57.9035799 101.26467,60.0328835 100.09006,63.7922316 L79.0528473,131.122 C78.7292176,132.157779 78.8190466,133.27862 79.3035095,134.249635 C80.3390774,136.325237 82.8611791,137.168352 84.9367813,136.132784 L156.353557,100.501236 C157.163093,100.09734 157.856254,99.4936677 158.36752,98.7472839 C160.027934,96.3232839 159.408926,93.0122113 156.984926,91.3517964 L111.152858,59.9573044 C110.655203,59.6164156 110.1175,59.3389662 109.552253,59.1310235 L109.209901,59.0146472 Z" id="路径-3" fill-rule="nonzero"></path>
                <g id="编组" transform="translate(87.331687, 59.899813)">
                    <circle id="椭圆形" cx="3.64" cy="50.12" r="3.64"></circle>
                    <circle id="椭圆形备份" cx="9.24" cy="63.84" r="3.64"></circle>
                    <circle id="椭圆形备份-2" cx="25.62" cy="47.32" r="3.64"></circle>
                    <circle id="椭圆形备份-4" cx="46.62" cy="47.32" r="3.64"></circle>
                    <circle id="椭圆形备份-5" cx="57.54" cy="36.4" r="3.64"></circle>
                    <circle id="椭圆形备份-6" cx="46.62" cy="25.48" r="3.64"></circle>
                    <circle id="椭圆形备份-7" cx="26.46" cy="24.5" r="3.64"></circle>
                    <circle id="椭圆形备份-8" cx="14.7" cy="15.4" r="3.64"></circle>
                    <circle id="椭圆形备份-9" cx="25.76" cy="3.64" r="3.64"></circle>
                    <circle id="椭圆形备份-3" cx="15.68" cy="35.42" r="3.64"></circle>
                </g>
                <circle id="椭圆形" cx="156.351687" cy="52.4798131" r="4.2"></circle>
                <path d="M166.400656,60.1216779 C170.723708,62.8106133 173.863041,65.9832576 175.867524,69.6436533 C177.906487,73.3670133 179.194609,78.3124014 179.689726,84.4837337 C179.813394,86.0251782 181.163235,87.174513 182.704679,87.0508451 C184.246124,86.9271771 185.395458,85.5773368 185.27179,84.0358924 C184.717959,77.1327247 183.234508,71.4374258 180.779274,66.9539115 C178.28956,62.4074331 174.466306,58.5436103 169.358382,55.3664855 C168.045272,54.5497319 166.318677,54.9521084 165.501923,56.2652185 C164.685169,57.5783287 165.087546,59.3049243 166.400656,60.1216779 Z" id="路径-4" fill-rule="nonzero" transform="translate(175.180022, 71.001830) rotate(-2.000000) translate(-175.180022, -71.001830) "></path>
            </g>
        </g>
    </g>
</svg>