<?xml version="1.0" encoding="UTF-8"?>
<svg width="22px" height="22px" viewBox="0 0 22 22" version="1.1" xmlns="http://www.w3.org/2000/svg" xmlns:xlink="http://www.w3.org/1999/xlink">
    <!-- Generator: Sketch 54.1 (76490) - https://sketchapp.com -->
    <title>形状</title>
    <desc>Created with Sketch.</desc>
    <g id="页面-1" stroke="none" stroke-width="1" fill="none" fill-rule="evenodd">
        <g id="个人中心备份" transform="translate(-29.000000, -254.000000)" fill="#000000" fill-rule="nonzero">
            <g id="编组-3" transform="translate(15.119574, 236.000000)">
                <path d="M35.0251115,28.4406857 C35.0411115,29.8166857 34.8011115,31.1166857 34.3051115,32.3406857 C33.8091115,33.5646857 33.1291115,34.6446857 32.2651115,35.5806857 C31.4011115,36.5166857 30.3771115,37.2886857 29.1931115,37.8966857 C28.0091115,38.5046857 26.7371115,38.8806857 25.3771115,39.0246857 C25.0091115,39.0566857 24.6251115,39.0926857 24.2251115,39.1326857 C23.8251115,39.1726857 23.3811115,39.1966857 22.8931115,39.2046857 C22.4051115,39.2126857 21.8611115,39.2086857 21.2611115,39.1926857 C20.6611115,39.1766857 19.9851115,39.1366857 19.2331115,39.0726857 C17.5851115,38.9126857 16.3531115,38.7046857 15.5371115,38.4486857 C14.7211115,38.1926857 14.3931115,38.0486857 14.5531115,38.0166857 C15.0011115,37.9366857 15.4051115,37.8406857 15.7651115,37.7286857 C16.1251115,37.6166857 16.4491115,37.4726857 16.7371115,37.2966857 C17.0571115,37.1206857 17.1891115,36.8686857 17.1331115,36.5406857 C17.0771115,36.2126857 16.9211115,35.9046857 16.6651115,35.6166857 C15.8651115,34.7206857 15.2091115,33.6806857 14.6971115,32.4966857 C14.1851115,31.3126857 13.9131115,30.0246857 13.8811115,28.6326857 C13.8651115,27.1766857 14.1291115,25.8086857 14.6731115,24.5286857 C15.2171115,23.2486857 15.9611115,22.1286857 16.9051115,21.1686857 C17.8491115,20.2086857 18.9611115,19.4446857 20.2411115,18.8766857 C21.5211115,18.3086857 22.8971115,18.0166857 24.3691115,18.0006857 C25.8251115,17.9846857 27.1971115,18.2486857 28.4851115,18.7926857 C29.7731115,19.3366857 30.8971115,20.0806857 31.8571115,21.0246857 C32.8171115,21.9686857 33.5811115,23.0766857 34.1491115,24.3486857 C34.7171115,25.6206857 35.0091115,26.9846857 35.0251115,28.4406857 Z M25.9291115,31.5606857 L25.9291115,30.2166857 L29.3131115,30.2166857 C29.6331115,30.1846857 29.8811115,30.1166857 30.0571115,30.0126857 C30.2331115,29.9086857 30.3371115,29.7126857 30.3691115,29.4246857 C30.3371115,29.1206857 30.2371115,28.9046857 30.0691115,28.7766857 C29.9011115,28.6486857 29.6571115,28.5686857 29.3371115,28.5366857 L26.9851115,28.5366857 L29.2171115,25.0326857 C29.3451115,24.8886857 29.4531115,24.7006857 29.5411115,24.4686857 C29.6291115,24.2366857 29.6731115,24.0326857 29.6731115,23.8566857 C29.6091115,23.3446857 29.4571115,23.0246857 29.2171115,22.8966857 C28.9771115,22.7686857 28.6891115,22.6886857 28.3531115,22.6566857 C28.0651115,22.6886857 27.8171115,22.7726857 27.6091115,22.9086857 C27.4011115,23.0446857 27.1531115,23.3926857 26.8651115,23.9526857 C26.7211115,24.2406857 26.5211115,24.6206857 26.2651115,25.0926857 C26.0091115,25.5646857 25.7451115,26.0326857 25.4731115,26.4966857 C25.1691115,27.0246857 24.8411115,27.5846857 24.4891115,28.1766857 C24.1851115,27.6166857 23.8891115,27.0806857 23.6011115,26.5686857 C23.3611115,26.1366857 23.1251115,25.6966857 22.8931115,25.2486857 C22.6611115,24.8006857 22.4811115,24.4406857 22.3531115,24.1686857 C22.0811115,23.6566857 21.8331115,23.2846857 21.6091115,23.0526857 C21.3851115,22.8206857 21.1291115,22.6886857 20.8411115,22.6566857 C20.3451115,22.7206857 20.0091115,22.8566857 19.8331115,23.0646857 C19.6571115,23.2726857 19.5371115,23.5366857 19.4731115,23.8566857 C19.4571115,24.1286857 19.5051115,24.3726857 19.6171115,24.5886857 C19.7291115,24.8046857 19.8491115,24.9926857 19.9771115,25.1526857 L21.9451115,28.5366857 L19.6171115,28.5366857 C19.2971115,28.5686857 19.0531115,28.6486857 18.8851115,28.7766857 C18.7171115,28.9046857 18.6171115,29.1206857 18.5851115,29.4246857 C18.6171115,29.7126857 18.7171115,29.9126857 18.8851115,30.0246857 C19.0531115,30.1366857 19.2971115,30.2086857 19.6171115,30.2406857 L22.8331115,30.2646857 L22.8331115,31.5606857 L19.6171115,31.5606857 C19.2971115,31.5926857 19.0531115,31.6526857 18.8851115,31.7406857 C18.7171115,31.8286857 18.6171115,32.0246857 18.5851115,32.3286857 C18.6171115,32.6326857 18.7171115,32.8326857 18.8851115,32.9286857 C19.0531115,33.0246857 19.2971115,33.0886857 19.6171115,33.1206857 L22.8331115,33.1206857 L22.8331115,34.6566857 C22.8811115,35.6646857 23.4011115,36.1686857 24.3931115,36.1686857 C24.9051115,36.1686857 25.2811115,36.0446857 25.5211115,35.7966857 C25.7611115,35.5486857 25.8971115,35.1686857 25.9291115,34.6566857 L25.9291115,33.0966857 L29.3371115,33.1206857 C29.6571115,33.0886857 29.9011115,33.0366857 30.0691115,32.9646857 C30.2371115,32.8926857 30.3371115,32.7126857 30.3691115,32.4246857 C30.3371115,32.1206857 30.2371115,31.9086857 30.0691115,31.7886857 C29.9011115,31.6686857 29.6571115,31.5926857 29.3371115,31.5606857 L25.9291115,31.5606857 L25.9291115,31.5606857 Z" id="形状"></path>
            </g>
        </g>
    </g>
</svg>