<svg xmlns="http://www.w3.org/2000/svg" width="48" height="48" viewBox="0 0 48 48">
  <g id="_4" data-name="4" transform="translate(-828.246 -435.138)">
    <circle id="椭圆_2" data-name="椭圆 2" cx="22" cy="22" r="22" transform="translate(830.245 437.138)" opacity="0.297"/>
    <g id="组_29" data-name="组 29">
      <g id="组_27" data-name="组 27">
        <path id="路径_29" data-name="路径 29" d="M838.144,444.251a2,2,0,0,1-1.273-3.544l.108-.089a2,2,0,0,1,2.545,3.087l-.109.089A1.993,1.993,0,0,1,838.144,444.251Z" fill="#fff"/>
      </g>
      <g id="组_28" data-name="组 28">
        <path id="路径_30" data-name="路径 30" d="M852.246,483.138a24.008,24.008,0,0,1-21.1-35.448,2,2,0,0,1,3.514,1.91,19.961,19.961,0,1,0,11.044-9.37,2,2,0,1,1-1.306-3.78,24,24,0,1,1,7.847,46.688Z" fill="#fff"/>
      </g>
    </g>
    <g id="组_30" data-name="组 30">
      <path id="路径_31" data-name="路径 31" d="M850.164,468.267A5.584,5.584,0,0,1,844.6,462.7v-7.114a5.564,5.564,0,0,1,8.346-4.819l6.161,3.557a5.564,5.564,0,0,1,0,9.637l-6.161,3.557A5.55,5.55,0,0,1,850.164,468.267Zm.009-14.256a1.617,1.617,0,0,0-.79.215,1.538,1.538,0,0,0-.782,1.355V462.7a1.563,1.563,0,0,0,2.346,1.353l6.161-3.556a1.564,1.564,0,0,0,0-2.709l-6.161-3.557A1.528,1.528,0,0,0,850.173,454.011Z" fill="#fff"/>
    </g>
  </g>
</svg>
