<?xml version="1.0" encoding="UTF-8"?>
<svg width="30px" height="30px" viewBox="0 0 30 30" version="1.1" xmlns="http://www.w3.org/2000/svg" xmlns:xlink="http://www.w3.org/1999/xlink">
    <!-- Generator: Sketch 54.1 (76490) - https://sketchapp.com -->
    <title>搜索 </title>
    <desc>Created with Sketch.</desc>
    <defs>
        <path d="M13.5060359,15.0529117 C12.0865597,16.2008241 10.2794013,16.8883332 8.31166656,16.8883332 C3.74611263,16.8883332 0.0449998971,13.1872205 0.0449998971,8.62166656 C0.0449998971,4.05611263 3.74611263,0.354999892 8.31166656,0.354999892 C12.8772205,0.354999892 16.5783332,4.05611263 16.5783332,8.62166656 C16.5783332,10.6149833 15.8728316,12.4435214 14.6979076,13.8712016 L13.5060359,15.0529117 Z M8.31166656,14.6797947 C11.5768968,14.6797947 14.223889,11.9674784 14.223889,8.62166656 C14.223889,5.27585475 11.5768968,2.56353837 8.31166656,2.56353837 C5.04643628,2.56353837 2.39944414,5.27585475 2.39944414,8.62166656 C2.39944414,11.9674784 5.04643628,14.6797947 8.31166656,14.6797947 Z" id="path-1"></path>
    </defs>
    <g id="页面1" stroke="none" stroke-width="1" fill="none" fill-rule="evenodd">
        <g id="3.专题/专题详情" transform="translate(-319.000000, -49.000000)">
            <g id="搜索" transform="translate(319.000000, 49.000000)">
                <rect id="矩形" fill="#FFFFFF" opacity="0.00999999978" x="0" y="0" width="30" height="30"></rect>
                <g transform="translate(6.000000, 6.000000)">
                    <g id="搜索/q">
                        <mask id="mask-2" fill="white">
                            <use xlink:href="#path-1"></use>
                        </mask>
                        <use id="Mask" fill="#363636" fill-rule="nonzero" xlink:href="#path-1"></use>
                    </g>
                    <path d="M17.2874284,14.0000716 L17.2874284,14.0000716 C18.0152099,14.0077875 18.6043468,14.5939249 18.6157774,15.3216576 L18.6590793,18.0784855 C18.6701289,18.7819653 18.1088034,19.3612058 17.4053236,19.3722554 C17.3941537,19.3724309 17.382982,19.3724594 17.3718113,19.372341 L17.3718113,19.372341 C16.6440297,19.3646251 16.0548928,18.7784877 16.0434622,18.050755 L16.0001604,15.293927 C15.9891107,14.5904473 16.5504362,14.0112068 17.253916,14.0001571 C17.2650859,13.9999817 17.2762577,13.9999532 17.2874284,14.0000716 Z" id="矩形" fill="#FFD952" transform="translate(17.329620, 16.686206) rotate(-45.000000) translate(-17.329620, -16.686206) "></path>
                </g>
            </g>
        </g>
    </g>
</svg>