<svg xmlns="http://www.w3.org/2000/svg" xmlns:xlink="http://www.w3.org/1999/xlink" width="21" height="19" viewBox="0 0 21 19">
  <defs>
    <path id="q-a" d="M22.8014072,19.9280991 L24.781398,21.8468518 C25.2866466,22.3364738 25.2993144,23.1429758 24.8096924,23.6482244 L24.786056,23.6719817 L24.786056,23.6719817 C24.2659808,24.181145 23.4349363,24.183266 22.912269,23.6767639 L20.9322782,21.7580112 C20.4270296,21.2683892 20.4143618,20.4618872 20.9039838,19.9566386 L20.9276202,19.9328813 L20.9276202,19.9328813 C21.4476954,19.423718 22.2787399,19.421597 22.8014072,19.9280991 Z M14.2394,6.1499999 C18.8727377,6.1499999 22.6288,9.81560012 22.6288,14.3373471 C22.6288,16.3115379 21.912824,18.1225309 20.7204561,19.5365124 L19.510889,20.7068839 C18.0703381,21.843782 16.2363492,22.5246944 14.2394,22.5246944 C9.60606224,22.5246944 5.8499999,18.8590942 5.8499999,14.3373471 C5.8499999,9.81560012 9.60606224,6.1499999 14.2394,6.1499999 Z M14.2394001,8.33734725 C10.9256915,8.33734725 8.23940006,11.0236387 8.23940006,14.3373473 C8.23940006,17.6510556 10.9256915,20.3373473 14.2394001,20.3373473 C17.5531084,20.3373473 20.2394001,17.6510556 20.2394001,14.3373473 C20.2394001,11.0236387 17.5531084,8.33734725 14.2394001,8.33734725 Z"/>
  </defs>
  <use fill="#FFF" transform="translate(-5 -6)" xlink:href="#q-a"/>
</svg>
