<?xml version="1.0" encoding="UTF-8"?>
<svg width="271px" height="193px" viewBox="0 0 271 193" version="1.1" xmlns="http://www.w3.org/2000/svg" xmlns:xlink="http://www.w3.org/1999/xlink">
    <!-- Generator: Sketch 59.1 (86144) - https://sketch.com -->
    <title>tc_1</title>
    <desc>Created with Sketch.</desc>
    <defs>
        <path d="M30.4312098,6.27429451 L31.1668144,9.73226922 C46.1877005,10.5689086 58.2092536,22.6431926 58.9625357,37.6861831 L59,37.6859716 L59,68.6859716 L0,68.6859716 L0,37.6859716 L0.0374643402,37.6861831 C0.60503107,26.3519145 7.56959153,16.7029796 17.3942057,12.2763184 L16.7371434,9.18505819 C15.9333582,5.40354617 18.3472828,1.68642834 22.1287948,0.882643145 C25.9103068,0.0788579521 29.6274246,2.49278249 30.4312098,6.27429451 Z" id="path-1"></path>
        <path d="M1.5,0 L60.5,0 L61.7817485,34.1799602 C61.9184294,37.8248 59.5724619,41.1006415 56.0777361,42.1448784 C49.0009407,44.2594507 40.6416954,45.3167369 31,45.3167369 C21.358302,45.3167369 12.9990546,44.2594501 5.92225802,42.1448766 C2.42753594,41.1006353 0.0815701601,37.8247957 0.218251567,34.1799582 L1.5,0 L1.5,0 Z" id="path-3"></path>
    </defs>
    <g id="页面1" stroke="none" stroke-width="1" fill="none" fill-rule="evenodd">
        <g id="余额不足" transform="translate(-47.000000, -169.000000)">
            <g id="tc_1" transform="translate(47.000000, 169.000000)">
                <g>
                    <rect id="矩形" fill="#FFFFFF" x="0" y="0.5" width="271" height="192" rx="8"></rect>
                    <ellipse id="椭圆形" fill="#D6D6D6" cx="145.5" cy="150.5" rx="32.5" ry="9.5"></ellipse>
                    <ellipse id="椭圆形" fill="#4E4E4E" cx="131.5" cy="102.185972" rx="44.5" ry="8.5"></ellipse>
                    <g id="路径-36" transform="translate(102.000000, 52.000000)">
                        <mask id="mask-2" fill="white">
                            <use xlink:href="#path-1"></use>
                        </mask>
                        <use id="蒙版" fill="#FFE03C" xlink:href="#path-1"></use>
                        <path d="M22,0.728239478 C26.4692572,1.12525879 28.9692572,4.11116948 29.5,9.68597155 C32.9770282,9.68597155 35.7812215,10.0666506 37.9125799,10.8280086 L35.8342926,8.1039664 C32.5393324,5.1586365 30.8918523,3.68597155 30.8918523,3.68597155 C30.8918523,3.68597155 29.8407365,2.59271747 27.7385049,0.4062093 L25.220598,1.77635684e-15 L22,0.728239478 Z" fill="#FFCB27" mask="url(#mask-2)"></path>
                    </g>
                    <g id="路径-35" transform="translate(101.934493, 52.728239)"></g>
                    <g id="路径" transform="translate(100.000000, 113.685972)">
                        <mask id="mask-4" fill="white">
                            <use xlink:href="#path-3"></use>
                        </mask>
                        <use id="蒙版" fill="#272526" xlink:href="#path-3"></use>
                        <circle id="椭圆形" fill="#717171" opacity="0.5" mask="url(#mask-4)" cx="10" cy="22" r="4"></circle>
                        <circle id="椭圆形备份-7" fill="#717171" opacity="0.5" mask="url(#mask-4)" cx="8.5" cy="4.81402845" r="2.5"></circle>
                        <circle id="椭圆形备份-2" fill="#717171" opacity="0.5" mask="url(#mask-4)" cx="21" cy="33.3140284" r="4"></circle>
                        <circle id="椭圆形备份-3" fill="#717171" opacity="0.5" mask="url(#mask-4)" cx="35" cy="25.3140284" r="4"></circle>
                        <circle id="椭圆形备份-6" fill="#717171" opacity="0.5" mask="url(#mask-4)" cx="24" cy="10.3140284" r="5"></circle>
                        <circle id="椭圆形备份-4" fill="#717171" opacity="0.5" mask="url(#mask-4)" cx="51" cy="33.3140284" r="4"></circle>
                        <circle id="椭圆形备份-5" fill="#717171" opacity="0.5" mask="url(#mask-4)" cx="51" cy="14.3140284" r="4"></circle>
                        <path d="M-1.04814882,31.1194377 C11.7581468,43.4758645 29.2682284,45.1501553 51.482096,36.1423099 C52.4578736,35.7466267 52.4578736,23.2028935 51.482096,-1.48888989 L63.8799613,-3.88135243 L63.8799613,40.932705 L59.1087114,45.3167369 L41.3365233,48.4273555 L17.1103615,48.4273555 L2,42.8957688 L-1.04814882,39.6704913 L-1.04814882,31.1194377 Z" id="路径-32" fill="#111111" opacity="0.600000024" mask="url(#mask-4)"></path>
                    </g>
                    <ellipse id="椭圆形备份" stroke="#4E4E4E" stroke-width="10" fill="#01000A" cx="131.5" cy="102.185972" rx="44.5" ry="8.5"></ellipse>
                    <path d="M89.9867612,103.792826 C95.8215183,107.18794 111.773881,110.185972 131.5,110.185972 C147.096556,110.185972 160.77901,107.505752 168.724894,105.185972" id="路径" stroke="#FFFFFF" stroke-width="3" opacity="0.200000003" stroke-linecap="round"></path>
                    <path d="M98.7633619,107.045556 C100.155986,107.325004 101.647171,107.586366 103.226271,107.827608 M109.349534,108.613887 C115.040164,109.220356 121.499832,109.595149 128.378845,109.671471" id="形状" stroke="#FFFFFF" stroke-width="2" stroke-linecap="round"></path>
                    <path d="M102,88.6859716 C115.055001,87.2093739 124.888334,86.4710751 131.5,86.4710751 C138.111666,86.4710751 147.944999,87.2093739 161,88.6859716 L161,101.685972 C147.38029,104.019305 136.832885,105.185972 129.357787,105.185972 C121.882688,105.185972 112.763426,104.019305 102,101.685972 L102,88.6859716 Z" id="矩形" fill="#FFE03C"></path>
                    <g id="编组-8" transform="translate(101.001119, 52.728239)" fill="#FFCB27">
                        <path d="M41.4988815,8.95773207 C52.5233697,18.604696 56.960765,28.5540314 54.8110676,38.8057382 C53.1863974,46.5536391 41.5823353,49.937637 19.9988815,48.9577321 C9.7039,46.9839061 3.04597424,45.2225415 0.0251042117,43.6736384 C-0.0972015643,46.5428658 0.227390864,48.908955 0.998881496,50.7719061 C4.79741724,51.313645 7.66364784,51.694312 9.59757328,51.9139069 C11.5314987,52.1335019 13.9913924,52.3147769 16.9772543,52.4577321 L16.9772543,52.4577321 C23.5723694,52.7684635 27.7276998,52.9281185 29.4432456,52.9366971 C31.0464161,52.9442018 35.0925336,52.8419138 41.5815982,52.6298332 L41.5815982,52.6298328 C42.5791009,52.5972317 43.5760596,52.5496992 44.5721393,52.4872514 C47.7082545,52.2906371 50.0902863,52.0995223 51.7182347,51.9139069 C53.6109448,51.698104 56.3711604,51.2746039 59.9988815,50.6434068 L66.2280478,48.1445057 L65.2229666,19.2164423 L50.6739507,8.95773207 L41.4988815,8.95773207 Z" id="路径-35"></path>
                    </g>
                    <path d="M97.1171386,42.8970666 L97.8816857,41.9915674 L97.8816857,41.9915674 C94.6627417,37.3059599 89.1765068,35.4593023 81.4229812,36.4515944 C76.3451746,37.1014494 57.2850757,35.9844935 61.6420716,35.9844935 C64.5467356,35.9844935 72.1832488,35.5975273 84.5516112,34.8235949 C91.0452345,33.8706531 96.0233989,35.5196405 99.4861046,39.7705573 C99.6004385,39.6089811 99.7133547,39.4506854 99.824853,39.2956701 C100.636124,38.1677753 102.208128,37.9110945 103.336026,38.722361 C103.890808,39.121401 104.259374,39.7289735 104.356965,40.4053557 L104.871487,43.9714153 C105.029224,45.064664 104.270842,46.0787885 103.177594,46.2365258 C103.165637,46.238251 103.153665,46.2398678 103.141678,46.241376 L99.2019523,46.7371164 C97.9167902,46.8988299 96.7438657,45.9880948 96.5821522,44.7029327 C96.5003287,44.0526689 96.6943237,43.3978317 97.1171386,42.8970666 Z" id="路径-37" fill="#FFE03C"></path>
                    <circle id="椭圆形" fill="#FFE03C" cx="166.5" cy="57.0618378" r="3.5"></circle>
                    <path d="M169.018898,55.0618378 C169.258083,52.5019673 170.814729,51.222032 173.688838,51.222032 C176.562946,51.222032 180.230313,48.9083532 184.690938,44.2809956" id="路径-38备份" stroke="#FFE03C" stroke-linecap="round"></path>
                    <circle id="椭圆形备份-8" fill="#FFE03C" cx="161.930577" cy="15.5730995" r="1.44"></circle>
                    <path d="M161.199381,13.9806061 C161.294615,12.9548384 161.914412,12.4419545 163.05877,12.4419545 C163.792895,12.4419545 164.956264,12.3613606 165.950357,11.5982638 C166.320694,11.3139815 166.817035,10.6680956 167.439381,9.66060614" id="路径-38备份-2" stroke="#FFE03C" stroke-width="0.626415649" stroke-linecap="round"></path>
                    <circle id="椭圆形" fill="#FFFFFF" cx="122" cy="57.5" r="1.5"></circle>
                </g>
                <path d="M123.831398,82.8451093 C123.007472,81.9052508 122.059272,81.109806 121.018182,80.4905295 C119.383491,79.5181593 117.554627,79 115.66069,79 C113.60959,79 111.63686,79.6077413 109.90631,80.7380616 C108.981527,81.3420897 108.721504,82.5814361 109.325532,83.5062192 C109.92956,84.4310023 111.168907,84.6910255 112.09369,84.0869974 C113.184553,83.3744928 114.400158,83 115.66069,83 C116.82377,83 117.948243,83.3185889 118.973271,83.928311 C119.648327,84.329857 120.272924,84.8538316 120.82355,85.4819352 C121.551689,86.3125295 122.815292,86.3955856 123.645887,85.6674462 C124.476481,84.9393068 124.559537,83.6757036 123.831398,82.8451093 Z" id="路径" stroke="#353535" stroke-width="0.4" fill="#FFFFFF" fill-rule="nonzero" transform="translate(116.663635, 82.581774) rotate(-15.000000) translate(-116.663635, -82.581774) "></path>
                <circle id="椭圆形" fill="#353535" cx="111.5" cy="83.5" r="2.5"></circle>
                <path d="M143.831398,82.8451093 C143.007472,81.9052508 142.059272,81.109806 141.018182,80.4905295 C139.383491,79.5181593 137.554627,79 135.66069,79 C133.60959,79 131.63686,79.6077413 129.90631,80.7380616 C128.981527,81.3420897 128.721504,82.5814361 129.325532,83.5062192 C129.92956,84.4310023 131.168907,84.6910255 132.09369,84.0869974 C133.184553,83.3744928 134.400158,83 135.66069,83 C136.82377,83 137.948243,83.3185889 138.973271,83.928311 C139.648327,84.329857 140.272924,84.8538316 140.82355,85.4819352 C141.551689,86.3125295 142.815292,86.3955856 143.645887,85.6674462 C144.476481,84.9393068 144.559537,83.6757036 143.831398,82.8451093 Z" id="路径备份" stroke="#353535" stroke-width="0.4" fill="#FFFFFF" fill-rule="nonzero" transform="translate(136.663635, 82.581774) rotate(-15.000000) translate(-136.663635, -82.581774) "></path>
                <circle id="椭圆形备份-9" fill="#353535" cx="131.5" cy="83.5" r="2.5"></circle>
            </g>
        </g>
    </g>
</svg>