<?xml version="1.0" encoding="UTF-8"?>
<svg width="58px" height="65px" viewBox="0 0 58 65" version="1.1" xmlns="http://www.w3.org/2000/svg" xmlns:xlink="http://www.w3.org/1999/xlink">
    <!-- Generator: Sketch 59.1 (86144) - https://sketch.com -->
    <title>zhi_2</title>
    <desc>Created with Sketch.</desc>
    <defs>
        <filter x="-16.1%" y="-15.3%" width="132.1%" height="130.5%" filterUnits="objectBoundingBox" id="filter-1">
            <feOffset dx="0" dy="4" in="SourceAlpha" result="shadowOffsetOuter1"></feOffset>
            <feColorMatrix values="0 0 0 0 0.7794101   0 0 0 0 0.331879497   0 0 0 0 0  0 0 0 0.202005026 0" type="matrix" in="shadowOffsetOuter1" result="shadowMatrixOuter1"></feColorMatrix>
            <feMerge>
                <feMergeNode in="shadowMatrixOuter1"></feMergeNode>
                <feMergeNode in="SourceGraphic"></feMergeNode>
            </feMerge>
        </filter>
    </defs>
    <g id="页面1" stroke="none" stroke-width="1" fill="none" fill-rule="evenodd">
        <g id="画板" transform="translate(-69.000000, -564.000000)">
            <g id="zhi_2" filter="url(#filter-1)" transform="translate(70.000000, 565.000000)">
                <path d="M0.520408712,19.1323489 L21.9284331,1.38493924 C23.7306753,-0.113835015 26.1155621,-0.39613482 29.0830935,0.538039826 C33.5343905,1.93930179 36.7554192,4.91333978 41.7808589,10.5938642 C46.8062986,16.2743887 49.1926602,26.3060086 46.68944,29.302169 C45.0206265,31.2996093 37.4929014,37.5001289 24.1062645,47.9037279" id="路径-48" stroke="#6B040A" stroke-width="1.6"></path>
                <path d="M18.5309023,45.811639 C16.3505233,45.811639 15.1746223,46.6672103 15.0031993,48.378353 C14.8732224,49.6757807 16.0944071,51.4376783 18.5309023,53.6085296 C20.2092061,55.1038529 24.0676083,56.6619329 30.106109,58.2827696 C30.1610706,58.2974759 30.2197017,58.2881184 30.2673308,58.2569973 L36.2938782,54.3192223 C36.3384699,54.2900859 36.3695964,54.244365 36.3803568,54.1921965 L37.1536944,50.4429037 C37.1703236,50.3622822 37.2346524,50.3000844 37.3157882,50.2861796 L43.0593984,49.3018567 C43.1143541,49.2924386 43.1628836,49.260507 43.1932806,49.2137645 L45.0010281,46.4339318 C45.0254167,46.3964287 45.0616747,46.368185 45.1040058,46.3537159 L48.9605319,45.0355198 C48.9787453,45.0292943 48.9959646,45.0204722 49.0116571,45.0093264 L55.4040158,40.4690872 C55.4939952,40.4050899 55.5151394,40.280281 55.4512009,40.1902598 C55.4211625,40.1479677 55.375862,40.1190066 55.3248676,40.1094935 C47.7320218,38.6930353 43.4325025,36.397239 42.4263099,33.2221046" id="路径-50" stroke="#6B040A" stroke-width="1.6" fill="#FFF7E8" stroke-linecap="round"></path>
                <path d="M0.520408712,19.1323489 L21.9284331,1.38493924 C23.7306753,-0.113835015 26.1155621,-0.39613482 29.0830935,0.538039826 C33.5343905,1.93930179 36.7554192,4.91333978 41.7808589,10.5938642 C46.8062986,16.2743887 49.1926602,26.3060086 46.68944,29.302169 C45.0206265,31.2996093 37.4929014,37.5001289 24.1062645,47.9037279" id="路径-48备份" fill="#FFFFFF"></path>
                <path d="M22.485231,40.3114274 L23.858775,43.1115633 L24.1062645,45.5031913 L24.1062645,47.4960083 L46.2655866,29.618424 C47.7162097,27.6976116 48.191721,25.598335 47.6921204,23.3205941 C47.1925197,21.0428531 46.9251825,20.2164843 46.8901085,20.8414876 L22.485231,40.3114274 Z" id="路径-49" fill="#FFF4E8"></path>
                <path d="M0.520408712,19.1323489 L21.9284331,1.38493924 C23.7306753,-0.113835015 26.1155621,-0.39613482 29.0830935,0.538039826 C33.5343905,1.93930179 36.7554192,4.91333978 41.7808589,10.5938642 C46.8062986,16.2743887 49.1926602,26.3060086 46.68944,29.302169 C45.0206265,31.2996093 37.4929014,37.5001289 24.1062645,47.9037279" id="路径-48备份-2" stroke="#6B040A" stroke-width="1.6"></path>
                <path d="M1.06540455,25.4668454 C4.07745683,32.8230628 14.8681636,44.9385487 20.9577114,47.3918559 C28.7095562,50.5148558 23.3788396,38.8324133 12.3443283,26.3557277 C1.30981705,13.8790421 -1.94664773,18.110628 1.06540455,25.4668454 Z" id="路径-47" stroke="#6B040A" stroke-width="1.6"></path>
                <path d="M1.06540455,25.4668454 C4.07745683,32.8230628 14.8681636,44.9385487 20.9577114,47.3918559 C28.7095562,50.5148558 23.3788396,38.8324133 12.3443283,26.3557277 C1.30981705,13.8790421 -1.94664773,18.110628 1.06540455,25.4668454 Z" id="路径-47备份-2" stroke="#6B040A" stroke-width="1.6" fill="#FFFFFF"></path>
                <path d="M9.2942201,31.1337337 C10.1260227,33.1298835 13.1059638,36.417487 14.7876418,37.0832054 C16.9283765,37.9306485 15.456256,34.7605537 12.4089863,31.3749367 C9.36171659,27.9893197 8.46241746,29.1375838 9.2942201,31.1337337 Z" id="路径-47备份" stroke="#6B040A" stroke-width="1.6" fill="#FFDCC5"></path>
                <path d="M21.1116869,37.5400544 L23.858775,35.2824121 M27.8104213,32.0348265 L30.1924666,30.0771877 M34.3196626,26.6853299 L36.8558074,24.6010472 M40.8864324,21.2885545 L43.4451721,19.1857027" id="形状" stroke="#6B040A" stroke-width="1.6" stroke-linecap="round"></path>
                <path d="M22.9,23.1641787 L24.5196315,22.8490619 C24.8958906,22.7758567 25.1971955,22.4940154 25.2953267,22.123475 L25.5978592,20.9811215 C25.7140065,20.542553 26.1108464,20.2371286 26.5645341,20.2371286 L27.6372581,20.2371286 C28.1055793,20.2371286 28.5111721,19.9121094 28.613226,19.4550429 L28.8780349,18.2690496 C28.9983856,17.7300374 29.5329049,17.3906453 30.0719171,17.5109961 C30.0724275,17.51111 30.0729379,17.5112244 30.0734482,17.5113392 L31.1510091,17.7537129 C31.6706338,17.8705911 32.1906824,17.5596868 32.3337181,17.0466459 L32.6630288,15.8654735 L32.6630288,15.8654735" id="路径-52" stroke="#6B040A" stroke-width="1.2" stroke-linecap="round"></path>
                <line x1="19.5562763" y1="15" x2="16.5" y2="20.5" id="路径-55" stroke="#6B040A" stroke-width="1.63129075" stroke-linecap="round"></line>
                <line x1="24.1062645" y1="11.3014253" x2="30.1924666" y2="9.36376566" id="路径-56" stroke="#6B040A" stroke-width="1.63129075" stroke-linecap="round"></line>
            </g>
        </g>
    </g>
</svg>