<?xml version="1.0" encoding="UTF-8"?>
<svg width="30px" height="30px" viewBox="0 0 30 30" version="1.1" xmlns="http://www.w3.org/2000/svg" xmlns:xlink="http://www.w3.org/1999/xlink">
    <!-- Generator: Sketch 59.1 (86144) - https://sketch.com -->
    <title>图标/收藏-未收藏</title>
    <desc>Created with Sketch.</desc>
    <g id="页面1" stroke="none" stroke-width="1" fill="none" fill-rule="evenodd">
        <g id="2、视频-" transform="translate(-310.000000, -594.000000)" fill-rule="nonzero">
            <g id="图标/收藏-未收藏" transform="translate(311.000000, 595.000000)">
                <g id="未收藏">
                    <g id="编组" transform="translate(0.363636, 0.363636)">
                        <path d="M27.2180454,10.234926 C27.0860081,9.82675344 26.7493131,9.5342298 26.3366967,9.46960249 L19.4278476,8.43896687 L18.7148464,8.29950793 C18.3748505,8.24848636 18.0876695,8.03759722 17.9424285,7.73146783 L14.6249926,0.639470283 C14.4434413,0.251706388 14.0539314,0 13.6347132,0 C13.2154949,0 12.8292859,0.251706388 12.6444338,0.639470283 L9.33359972,7.72126352 C9.18505782,8.03419579 8.89787679,8.24848636 8.5611818,8.29610649 L0.936030565,9.46620105 C0.523414156,9.53082836 0.186719166,9.823352 0.0546819149,10.2315245 C-0.0740544048,10.639697 0.0282744647,11.0818839 0.322057348,11.3880133 L5.91383492,17.1432459 C6.12839546,17.3609379 6.22412246,17.6738702 6.17460849,17.9765981 L4.8773425,25.9529695 C4.80802295,26.3747477 4.98297231,26.8101317 5.31966729,27.0584367 C5.50782038,27.1978956 5.72898277,27.2693258 5.96004796,27.2693258 C6.14159918,27.2693258 6.31984947,27.2217057 6.4815951,27.1332683 L13.1296707,23.4461099 C13.2848145,23.3610739 13.4597638,23.3134538 13.6347132,23.3134538 C13.8096625,23.3134538 13.9846119,23.3576725 14.1364547,23.4427085 L20.7878312,27.1366698 C20.9462759,27.2251071 21.1278272,27.2727273 21.3093784,27.2727273 C21.5404436,27.2727273 21.761606,27.1978956 21.949759,27.0618381 C22.286454,26.8135332 22.4614034,26.3781492 22.3920838,25.9563709 L21.0948178,17.983401 C21.0453039,17.6772716 21.1443318,17.3643393 21.3621933,17.1432459 L26.9506699,11.3948162 C27.2444528,11.0852854 27.3467817,10.6430985 27.2180454,10.234926 Z" id="形状" stroke="#FFFFFF" stroke-width="2"></path>
                        <path d="M16.9576549,12.2804058 C16.8465736,12.1055291 16.6565662,12 16.454866,12 C16.2122411,12 15.9959249,12.1477407 15.9023828,12.3768895 C15.5808317,13.1547893 14.8471106,13.6583137 14.028617,13.6583137 C13.2101234,13.6583137 12.4764023,13.1547893 12.1548512,12.3799046 C12.0613091,12.1507558 11.8420698,12.0030151 11.602368,12.0030151 C11.3977446,12.0030151 11.2106604,12.1085442 11.0995791,12.2834209 C10.9884978,12.4582976 10.9680355,12.6784011 11.0498849,12.8743836 C11.5614434,14.1075659 12.7336432,14.9065716 14.0315402,14.9065716 C15.3294372,14.9065716 16.501637,14.110581 17.0131955,12.8743836 C17.0891985,12.6753859 17.0716594,12.4552825 16.9576549,12.2804058 L16.9576549,12.2804058 Z" id="路径" fill="#FFFFFF"></path>
                    </g>
                </g>
            </g>
        </g>
    </g>
</svg>