<?xml version="1.0" encoding="UTF-8"?>
<svg width="44px" height="34px" viewBox="0 0 44 34" version="1.1" xmlns="http://www.w3.org/2000/svg" xmlns:xlink="http://www.w3.org/1999/xlink">
    <!-- Generator: Sketch 58 (84663) - https://sketch.com -->
    <title>编组</title>
    <desc>Created with Sketch.</desc>
    <g id="页面-1" stroke="none" stroke-width="1" fill="none" fill-rule="evenodd">
        <g id="1.首页-修改版复制-4备份-16" transform="translate(-246.000000, -214.000000)" fill-rule="nonzero">
            <g id="编组" transform="translate(248.000000, 216.000000)">
                <path d="M23.1461298,22.4057364 L26.5165691,17.5862069 L30.8235954,22.5459233 C31.2887033,23.0825008 30.778996,23.7931034 29.937979,23.7931034 L24.2547431,23.7931034 C23.3117847,23.7931034 22.7065073,23.0341605 23.1461298,22.4057364 L23.1461298,22.4057364 Z" id="路径" fill="#A3A3A3"></path>
                <path d="M32.7153353,30 L7.28466467,30 C3.27028295,30 0,27.5469043 0,24.5356473 L0,5.46435272 C0,2.4530957 3.27028295,0 7.28466467,0 L32.7153353,0 C36.729717,0 40,2.4530957 40,5.46435272 L40,24.5403377 C40,27.5515947 36.729717,30 32.7153353,30 Z" id="路径" stroke="#333333" stroke-width="3"></path>
                <path d="M25.1464372,21.3653345 L28.5158402,16.5517241 L32.8233156,21.5104685 C33.2891611,22.0474642 32.7786456,22.7586207 31.9362948,22.7586207 L26.2504272,22.7586207 C25.3123548,22.7586207 24.7061175,21.9990862 25.1464372,21.3653345 L25.1464372,21.3653345 Z" id="路径" fill="#FFD44D"></path>
                <path d="M26.4068966,20.8171035 C26.1793103,20.822069 26,20.9561379 26,21.1150345 C26.0068966,21.2788966 26.1931035,21.408 26.4137931,21.4030345 C26.6413793,21.398069 26.8206897,21.264 26.8137931,21.1051034 C26.8137931,20.9462069 26.6275862,20.8121379 26.4068966,20.8171035 Z M30.5034483,20.7674483 C30.275862,20.7724138 30.0965517,20.9064828 30.0965517,21.0653793 C30.1034483,21.2292414 30.2896552,21.3583448 30.5103448,21.3533793 C30.7379311,21.3484138 30.9172414,21.2143448 30.9103448,21.0554483 C30.9172414,20.8965517 30.7310345,20.7674483 30.5034483,20.7674483 Z M30.4482759,18.4088276 C30.524138,18.4088276 30.6,18.3889655 30.662069,18.3641379 L30.2137931,17.8725517 C30.1034483,17.9271724 30.0344827,18.0165518 30.0344827,18.1208276 C30.0344827,18.2797242 30.2206896,18.4088276 30.4482759,18.4088276 Z M28.4344828,19.9084138 C28.662069,19.9034483 28.8413793,19.7693793 28.8344828,19.6104828 C28.8275862,19.4466207 28.6413793,19.3175172 28.4206896,19.3224828 C28.1931034,19.3274483 28.0137931,19.4615173 28.0206897,19.6204138 C28.0206897,19.7793104 28.2068965,19.9084138 28.4344828,19.9084138 Z M28.737931,16.7702069 C28.7586207,16.7354483 28.7655172,16.6957241 28.7655172,16.656 C28.7655172,16.6212414 28.7517241,16.5864827 28.737931,16.5517241 L28.4482758,16.9489655 C28.5793103,16.9291034 28.6896551,16.8595862 28.737931,16.7702069 Z M32.9448275,22.3713104 C32.937931,22.3613793 32.9310344,22.3564138 32.9241379,22.3464828 C32.9034483,22.3216552 32.8758621,22.3017931 32.8413793,22.2868965 C32.7724138,22.2471724 32.675862,22.2223448 32.5793103,22.2223448 C32.5241379,22.2223448 32.4689655,22.2322759 32.4206896,22.2471724 C32.3586207,22.2670345 32.3034483,22.2968276 32.2689655,22.3315862 C32.2620689,22.3365517 32.2551724,22.3464827 32.2482759,22.3564138 C32.2068965,22.406069 32.1793103,22.4606896 32.1793103,22.5202759 C32.1793103,22.5351724 32.1793103,22.5451035 32.1862069,22.56 C32.2068965,22.6444138 32.2689655,22.713931 32.3586207,22.7586207 L32.5517241,22.7586207 C32.6689655,22.7586207 32.7793103,22.7486896 32.8758621,22.7238621 C32.9448276,22.6791724 32.9862069,22.6146207 33,22.5451035 L33,22.5103448 C33,22.4606896 32.9793104,22.4110345 32.9448275,22.3713104 L32.9448275,22.3713104 Z M28.4827586,22.2670345 C28.4413793,22.2670345 28.4,22.272 28.3586207,22.2819311 C28.3310345,22.2868966 28.3103448,22.2968276 28.2827586,22.3067586 C28.2689655,22.3117241 28.262069,22.3166897 28.2482759,22.3216552 C28.1379311,22.3762759 28.0689655,22.4656552 28.0758621,22.5699311 C28.0758621,22.5848276 28.0758621,22.5947586 28.0827586,22.6096552 C28.0965517,22.6692414 28.1310345,22.7188966 28.1793103,22.7586207 L28.7931034,22.7586207 C28.8137931,22.7437242 28.8275862,22.7238621 28.8482758,22.704 C28.8551724,22.6990345 28.862069,22.6891035 28.862069,22.684138 C28.862069,22.6791724 28.8689655,22.6742069 28.8689655,22.6692414 C28.8758621,22.6543448 28.8827587,22.6444138 28.8827586,22.6295173 C28.8827586,22.6245517 28.8896552,22.6146207 28.8896552,22.6096552 C28.8965517,22.5947586 28.8965517,22.5748966 28.8965517,22.56 C28.8965517,22.5202759 28.8827586,22.4805517 28.862069,22.4457931 C28.8,22.3365517 28.6551724,22.2670345 28.4827586,22.2670345 L28.4827586,22.2670345 Z" id="形状" fill="#231B3B"></path>
                <path d="M11.202509,21.9368353 L15.8392489,15.5172414 L21.7574375,22.1279217 C22.3950666,22.842221 21.7017223,23.7931034 20.5378944,23.7931034 L12.7191996,23.7931034 C11.4253697,23.7931034 10.5958328,22.7785255 11.202509,21.9368353 Z" id="路径" fill="#A3A3A3"></path>
                <path d="M13.202623,20.8978029 L17.8357797,14.4827586 L23.7573009,21.093439 C24.3952891,21.8077382 23.7015544,22.7586207 22.5370711,22.7586207 L14.7201677,22.7586207 C13.4256092,22.754071 12.5956052,21.7394931 13.202623,20.8978029 L13.202623,20.8978029 Z" id="路径" fill="#FFD44D"></path>
                <path d="M20,8.79310345 C20,10.2214261 21.5670034,11.3793103 23.5,11.3793103 C25.4329966,11.3793103 27,10.2214261 27,8.79310345 C27,7.36478082 25.4329966,6.20689655 23.5,6.20689655 C21.5670034,6.20689655 20,7.36478082 20,8.79310345 Z" id="路径" fill="#FFD44D"></path>
                <path d="M14.5195333,20.1680378 C14.2254099,20.1727056 13.993866,20.3500788 14.0001239,20.5694615 C14.0063819,20.7888442 14.2441837,20.9615497 14.5383072,20.956882 C14.8324306,20.9522142 15.0639745,20.774841 15.0577166,20.5554583 C15.0514586,20.3407433 14.8073988,20.1680378 14.5195333,20.1680378 Z M19.7887228,20.1073575 C19.4945994,20.1120252 19.2630554,20.2893984 19.2693133,20.5087811 C19.2755713,20.7281639 19.5133732,20.9008693 19.8074966,20.8962017 C20.10162,20.8915339 20.3331639,20.7141607 20.326906,20.494778 C20.3206481,20.2753953 20.0828462,20.1026898 19.7887228,20.1073575 L19.7887228,20.1073575 Z M19.7198854,16.9613163 C19.8200124,16.9613163 19.9138816,16.9379777 19.995235,16.900636 L19.4132461,16.2424879 C19.2693133,16.3125037 19.1817021,16.438532 19.1817021,16.5738958 C19.1879601,16.7886108 19.4320199,16.9613163 19.7198854,16.9613163 L19.7198854,16.9613163 Z M17.1290963,18.9590991 C17.4232197,18.9544314 17.6547636,18.7770582 17.6485057,18.5576755 C17.6422477,18.3382928 17.4044459,18.1655873 17.1103224,18.170255 C16.816199,18.1749227 16.5846551,18.3522959 16.590913,18.5716787 C16.597171,18.7863936 16.8349728,18.9590991 17.1290963,18.9590991 Z M17.5233468,14.7768248 C17.5483785,14.7301476 17.5608945,14.6788027 17.5608945,14.6227902 C17.5608945,14.5714453 17.5483785,14.5247681 17.5233468,14.4827586 L17.1478701,15.0102106 C17.3168346,14.986872 17.4607674,14.8981854 17.5233468,14.7768248 Z M22.9364689,22.2405041 C22.930211,22.2311687 22.9176951,22.2171655 22.9114372,22.2078301 C22.8801474,22.1751561 22.8488577,22.1471498 22.8050521,22.1238112 C22.7111829,22.0677986 22.592282,22.0351246 22.4671231,22.0397923 C22.3920278,22.0397923 22.3231904,22.0537954 22.2606109,22.0724663 C22.1792576,22.1004726 22.1166782,22.1378144 22.0603567,22.1891592 C22.0478408,22.1984947 22.0415829,22.2078301 22.0290669,22.2218333 C21.9727454,22.2871813 21.9414557,22.3618648 21.9414557,22.4412159 C21.9414557,22.4598868 21.9414557,22.4785577 21.9477137,22.4925608 C21.9727454,22.6045861 22.0540987,22.6979404 22.1729997,22.7586207 L22.4170596,22.7586207 C22.5672503,22.7586207 22.704925,22.7446176 22.8363418,22.7166112 C22.9239531,22.6559309 22.9802746,22.571912 22.9927904,22.4785577 C22.9927904,22.4645546 22.9990484,22.4458837 22.9990484,22.4318805 C23.0053064,22.3571971 22.9802746,22.2965167 22.9364689,22.2405041 L22.9364689,22.2405041 Z M17.1979337,22.1051403 C17.1416122,22.1051403 17.0915486,22.1144758 17.041485,22.1238112 C17.0101953,22.1331466 16.9789056,22.142482 16.9476159,22.1564852 C16.9351,22.1611529 16.9163262,22.1704884 16.9038103,22.1751561 C16.7661355,22.2498395 16.6785242,22.3665325 16.6785242,22.5018963 C16.6785242,22.5205671 16.6785242,22.539238 16.6847822,22.5532412 C16.6972981,22.6279246 16.7473617,22.6979404 16.8099411,22.753953 L17.5984421,22.753953 C17.6234739,22.7306144 17.6485057,22.7072758 17.6672795,22.6839372 L17.6860534,22.6559309 C17.6923113,22.6512632 17.6923113,22.6465955 17.6985692,22.6372601 C17.7048272,22.6185892 17.7110852,22.6045861 17.7173431,22.5859152 C17.7173431,22.5765797 17.723601,22.5672443 17.723601,22.5579089 C17.729859,22.5345703 17.729859,22.5112317 17.729859,22.4878931 C17.729859,22.4318805 17.7110852,22.3805356 17.6860534,22.3338584 C17.6047001,22.1984946 17.4169618,22.1004726 17.1979337,22.1051403 L17.1979337,22.1051403 Z" id="形状" fill="#231B3B"></path>
                <path d="M24,11.3793103 C21.7914439,11.3793103 20,9.98524803 20,8.27586205 C20,6.56647608 21.7967914,5.17241379 24,5.17241379 C26.2032086,5.17241379 28,6.56647611 28,8.27586205 C28,9.98524799 26.2085561,11.3793103 24,11.3793103 Z" id="路径" stroke="#2C2C2C" stroke-width="2"></path>
                <path d="M33.7653816,20.960971 L28.3334172,14.3488078 C27.9117579,13.8369286 27.1676532,13.5363757 26.3863433,13.5692487 C25.6236359,13.6021217 24.9353391,13.949636 24.5880902,14.4849958 L22.3247717,17.6220164 L17.0664318,11.2211794 C16.5951655,10.6435543 15.7642486,10.3101285 14.8961264,10.3476976 C14.040406,10.3852667 13.2714978,10.7797424 12.8808428,11.3808481 L6.19010137,20.6604182 C5.7808438,21.228651 6.05368218,21.942464 6.80398776,22.2524092 C7.03962094,22.3510281 7.29385666,22.3979895 7.54809244,22.3979895 C8.0937692,22.3979895 8.62704425,22.1772709 8.9122844,21.7874915 L15.0759517,13.2452152 L20.6195318,19.9935665 L22.1387455,21.8438451 C22.2503612,21.9847293 22.3991822,22.0974366 22.5666058,22.1866632 C23.0626756,22.449647 23.7323698,22.4778238 24.2780466,22.2242324 C25.0035486,21.8814142 25.2267801,21.1582089 24.7741164,20.6087606 L24.209837,19.9184283 L26.5723694,16.6452196 L31.1424125,22.2054478 C31.5950762,22.7548961 32.5500106,22.923957 33.2755126,22.5811389 C33.9948138,22.2383208 34.2180453,21.5151154 33.7653816,20.960971 Z" id="路径" fill="#2C2C2C"></path>
            </g>
        </g>
    </g>
</svg>