<svg xmlns="http://www.w3.org/2000/svg" xmlns:xlink="http://www.w3.org/1999/xlink" width="66" height="42" viewBox="0 0 66 42">
  <defs>
    <linearGradient id="编组-6备份-2-a" x1="100%" x2="4.81%" y1="35.022%" y2="64.145%">
      <stop offset="0%" stop-color="#FF7545"/>
      <stop offset="100%" stop-color="#FF406E"/>
    </linearGradient>
    <rect id="编组-6备份-2-c" width="24" height="5" x="20" y="18" rx="2.4"/>
    <filter id="编组-6备份-2-b" width="162.5%" height="400%" x="-31.2%" y="-150%" filterUnits="objectBoundingBox">
      <feOffset in="SourceAlpha" result="shadowOffsetOuter1"/>
      <feGaussianBlur in="shadowOffsetOuter1" result="shadowBlurOuter1" stdDeviation="2.5"/>
      <feColorMatrix in="shadowBlurOuter1" values="0 0 0 0 0.864611639   0 0 0 0 0   0 0 0 0 0.350587172  0 0 0 0.35270979 0"/>
    </filter>
  </defs>
  <g fill="none" fill-rule="evenodd" transform="translate(1 1)">
    <path fill="url(#编组-6备份-2-a)" d="M21,2.5 L22.2843802,2.5 L22.2843802,2.5 L23.7764485,2.5 L45,2.5 C55.4934102,2.5 64,11.0065898 64,21.5 C64,31.9934102 55.4934102,40.5 45,40.5 L21,40.5 C10.5065898,40.5 2,31.9934102 2,21.5 C2,11.0065898 10.5065898,2.5 21,2.5 Z"/>
    <path fill="#A10000" d="M54.0014185,5.44425771 C51.4243142,3.51820691 48.4928165,2.53668086 45.2069254,2.49967958 C55.5860539,2.49967958 64,10.9136257 64,21.2927542 L64,21.4998398 C64,31.9933385 55.4933385,40.5 44.9998398,40.5 L22.4399157,40.5 L22.4399157,40.5 C22.3221177,40.5 22.2266235,40.4045058 22.2266235,40.2867078 C22.2266235,40.1712932 22.3184283,40.0768152 22.4337943,40.0734668 C34.3600067,39.7311037 41.4128659,39.2949624 43.5923717,38.7650427 C52.772107,36.5331044 56.5098004,32.2056809 58.7476293,27.6768198 C63.5562313,17.9452935 57.8670749,8.33333392 54.0014185,5.44425771 Z" opacity=".5"/>
    <path stroke="#FFF" stroke-linecap="round" stroke-width="2" d="M20.2752111,0 C20.9186437,0 24.6070231,0 25.3403493,0 C29.8559644,0 36.075848,0 44,0 C55.045695,0 64,8.954305 64,20 C64,31.045695 55.045695,40 44,40 L20,40 C8.954305,40 0,31.045695 0,20 C0,15.4460493 1.5220273,11.2475871 4.08513795,7.88555737 M7.60694681,4.30143675 C9.03680275,3.17111309 10.6247497,2.2319743 12.332198,1.52261015 M17.4489099,0.161171986 C18.2842777,0.0548198326 19.1357369,-5.55111512e-17 20,-5.55111512e-17"/>
    <path stroke="#FFF" stroke-linecap="round" stroke-width="2" d="M11.5046415,8.87123813 C12.5468263,8.07445639 13.7042219,7.42075337 14.9474972,6.93946031 M20,6 C20.6422717,6 21.1682513,6 21.5779387,6"/>
    <rect width="32" height="5" x="16" y="18" fill="#FFF" rx="2.4"/>
    <g transform="rotate(90 32 20.5)">
      <use fill="#000" filter="url(#编组-6备份-2-b)" xlink:href="#编组-6备份-2-c"/>
      <use fill="#FFF" xlink:href="#编组-6备份-2-c"/>
    </g>
  </g>
</svg>
