<?xml version="1.0" encoding="UTF-8"?>
<svg width="41px" height="26px" viewBox="0 0 41 26" version="1.1" xmlns="http://www.w3.org/2000/svg" xmlns:xlink="http://www.w3.org/1999/xlink">
    <!-- Generator: Sketch 58 (84663) - https://sketch.com -->
    <title>编组</title>
    <desc>Created with Sketch.</desc>
    <g id="页面-1" stroke="none" stroke-width="1" fill="none" fill-rule="evenodd">
        <g id="1.首页-修改版复制-4备份-16" transform="translate(-71.000000, -221.000000)" fill-rule="nonzero">
            <g id="编组" transform="translate(72.000000, 222.000000)">
                <path d="M39.3793403,8.18142361 C39.0928819,8.18142361 38.8585069,7.94704861 38.8585069,7.66059028 L38.8585069,5.46875 C38.8585069,5.18229167 39.0928819,4.94791667 39.3793403,4.94791667 C39.6657986,4.94791667 39.9001736,5.18229167 39.9001736,5.46875 L39.9001736,7.66059028 C39.9001736,7.94704861 39.6701389,8.18142361 39.3793403,8.18142361 Z" id="路径" fill="#333333"></path>
                <path d="M36.5701722,21.3541667 L28.8216692,15.3123508 C28.7538049,15.3123508 28.6979167,15.2547313 28.6979167,15.1888805 L28.6979167,11.4518445 C28.6979167,11.381878 28.7538049,11.3283742 28.8216692,11.3283742 L36.5182759,5.37710322 C36.5901322,5.32359941 36.6979167,5.36887187 36.6979167,5.45941679 L36.6979167,21.2306963 C36.6979167,21.2965472 36.6420284,21.3541667 36.5701722,21.3541667 L36.5701722,21.3541667 Z M22.8647908,22.7300347 L3.17687583,22.7300347 C1.71605246,22.7300347 0.520833333,21.594058 0.520833333,20.2056419 L0.520833333,6.2544275 C0.520833333,4.86601147 1.71605246,3.73003472 3.17687583,3.73003472 L22.8647908,3.73003472 C24.3256142,3.73003472 25.5208333,4.86601147 25.5208333,6.2544275 L25.5208333,20.2056419 C25.5208333,21.594058 24.3256142,22.7300347 22.8647908,22.7300347 Z" id="形状" fill="#F4EA2A"></path>
                <path d="M39.2057292,23.3420139 L39.0277778,23.3420139 L28.2465278,14.8914931 C27.9774306,14.7960069 27.7821181,14.5399306 27.7821181,14.2361111 L27.7821181,9.03645833 C27.7821181,8.73263889 27.9774306,8.4765625 28.2465278,8.38107639 L38.8107639,0.164930556 C39.0147569,0.00434027778 39.2838542,-0.0217013889 39.5182292,0.0911458333 C39.7482639,0.199652778 39.8958333,0.4296875 39.9001736,0.681423611 L39.9001736,3.27690972 C39.9001736,3.56336806 39.6657986,3.79774306 39.3793403,3.79774306 C39.0928819,3.79774306 38.8585069,3.56336806 38.8585069,3.27690972 L38.8585069,1.44965278 L28.8237847,9.25347222 L28.8237847,14.0234375 L38.8585069,21.8880208 L38.8585069,9.93923611 C38.8585069,9.65277778 39.0928819,9.41840278 39.3793403,9.41840278 C39.6657986,9.41840278 39.9001736,9.65277778 39.9001736,9.93923611 L39.9001736,22.6475694 C39.9001736,23.0295139 39.5920139,23.3420139 39.2057292,23.3420139 Z" id="路径" fill="#333333"></path>
                <path d="M25.5251736,23.2552083 L3.29861111,23.2552083 C1.48003472,23.2552083 0,21.7751736 0,19.9565972 L0,3.29861111 C0,1.48003472 1.48003472,0 3.29861111,0 L25.5251736,0 C27.34375,0 28.8237847,1.48003472 28.8237847,3.29861111 L28.8237847,19.9565972 C28.8237847,21.7751736 27.34375,23.2552083 25.5251736,23.2552083 Z" id="路径" stroke="#333333" stroke-width="2"></path>
            </g>
        </g>
    </g>
</svg>