<svg xmlns="http://www.w3.org/2000/svg" width="66" height="66" viewBox="0 0 66 66">
  <defs>
    <filter id="zhi_1-a" width="132.1%" height="130.5%" x="-16.1%" y="-15.3%" filterUnits="objectBoundingBox">
      <feOffset dy="4" in="SourceAlpha" result="shadowOffsetOuter1"/>
      <feColorMatrix in="shadowOffsetOuter1" result="shadowMatrixOuter1" values="0 0 0 0 0.7794101   0 0 0 0 0.331879497   0 0 0 0 0  0 0 0 0.202005026 0"/>
      <feMerge>
        <feMergeNode in="shadowMatrixOuter1"/>
        <feMergeNode in="SourceGraphic"/>
      </feMerge>
    </filter>
  </defs>
  <g fill="none" fill-rule="evenodd" filter="url(#zhi_1-a)" transform="translate(5 2)">
    <path stroke="#6B040A" stroke-width="1.6" d="M0.520408712,19.1323489 L21.9284331,1.38493924 C23.7306753,-0.113835015 26.1155621,-0.39613482 29.0830935,0.538039826 C33.5343905,1.93930179 36.7554192,4.91333978 41.7808589,10.5938642 C46.8062986,16.2743887 49.1926602,26.3060086 46.68944,29.302169 C45.0206265,31.2996093 37.4929014,37.5001289 24.1062645,47.9037279"/>
    <path fill="#FFF7E8" stroke="#6B040A" stroke-linecap="round" stroke-width="1.6" d="M18.5309023,45.811639 C16.3505233,45.811639 15.1746223,46.6672103 15.0031993,48.378353 C14.8732224,49.6757807 16.0944071,51.4376783 18.5309023,53.6085296 C20.2092061,55.1038529 24.0676083,56.6619329 30.106109,58.2827696 C30.1610706,58.2974759 30.2197017,58.2881184 30.2673308,58.2569973 L36.2938782,54.3192223 C36.3384699,54.2900859 36.3695964,54.244365 36.3803568,54.1921965 L37.1536944,50.4429037 C37.1703236,50.3622822 37.2346524,50.3000844 37.3157882,50.2861796 L43.0593984,49.3018567 C43.1143541,49.2924386 43.1628836,49.260507 43.1932806,49.2137645 L45.0010281,46.4339318 C45.0254167,46.3964287 45.0616747,46.368185 45.1040058,46.3537159 L48.9605319,45.0355198 C48.9787453,45.0292943 48.9959646,45.0204722 49.0116571,45.0093264 L55.4040158,40.4690872 C55.4939952,40.4050899 55.5151394,40.280281 55.4512009,40.1902598 C55.4211625,40.1479677 55.375862,40.1190066 55.3248676,40.1094935 C47.7320218,38.6930353 43.4325025,36.397239 42.4263099,33.2221046"/>
    <path fill="#FFF" d="M0.520408712,19.1323489 L21.9284331,1.38493924 C23.7306753,-0.113835015 26.1155621,-0.39613482 29.0830935,0.538039826 C33.5343905,1.93930179 36.7554192,4.91333978 41.7808589,10.5938642 C46.8062986,16.2743887 49.1926602,26.3060086 46.68944,29.302169 C45.0206265,31.2996093 37.4929014,37.5001289 24.1062645,47.9037279"/>
    <path fill="#FFF4E8" d="M22.485231,40.3114274 L23.858775,43.1115633 L24.1062645,45.5031913 L24.1062645,47.4960083 L46.2655866,29.618424 C47.7162097,27.6976116 48.191721,25.598335 47.6921204,23.3205941 C47.1925197,21.0428531 46.9251825,20.2164843 46.8901085,20.8414876 L22.485231,40.3114274 Z"/>
    <path stroke="#6B040A" stroke-width="1.6" d="M0.520408712,19.1323489 L21.9284331,1.38493924 C23.7306753,-0.113835015 26.1155621,-0.39613482 29.0830935,0.538039826 C33.5343905,1.93930179 36.7554192,4.91333978 41.7808589,10.5938642 C46.8062986,16.2743887 49.1926602,26.3060086 46.68944,29.302169 C45.0206265,31.2996093 37.4929014,37.5001289 24.1062645,47.9037279"/>
    <path stroke="#6B040A" stroke-width="1.6" d="M1.06540455,25.4668454 C4.07745683,32.8230628 14.8681636,44.9385487 20.9577114,47.3918559 C28.7095562,50.5148558 23.3788396,38.8324133 12.3443283,26.3557277 C1.30981705,13.8790421 -1.94664773,18.110628 1.06540455,25.4668454 Z"/>
    <path fill="#FFF" stroke="#6B040A" stroke-width="1.6" d="M1.06540455,25.4668454 C4.07745683,32.8230628 14.8681636,44.9385487 20.9577114,47.3918559 C28.7095562,50.5148558 23.3788396,38.8324133 12.3443283,26.3557277 C1.30981705,13.8790421 -1.94664773,18.110628 1.06540455,25.4668454 Z"/>
    <path fill="#FFDCC5" stroke="#6B040A" stroke-width="1.6" d="M9.2942201,31.1337337 C10.1260227,33.1298835 13.1059638,36.417487 14.7876418,37.0832054 C16.9283765,37.9306485 15.456256,34.7605537 12.4089863,31.3749367 C9.36171659,27.9893197 8.46241746,29.1375838 9.2942201,31.1337337 Z"/>
    <path stroke="#6B040A" stroke-linecap="round" stroke-width="1.6" d="M21.1116869 37.5400544L23.858775 35.2824121M27.8104213 32.0348265L30.1924666 30.0771877M34.3196626 26.6853299L36.8558074 24.6010472M40.8864324 21.2885545L43.4451721 19.1857027M25.6395855 22.0183762C25.3254741 20.2214763 25.807256 18.9129079 27.0849312 18.092671 28.3626063 17.2724342 29.911986 17.2724342 31.7330702 18.092671"/>
    <line x1="15.054" x2="19.391" y1="17.99" y2="13.743" stroke="#6B040A" stroke-linecap="round" stroke-width="2"/>
    <line x1="23" x2="28.292" y1="10.895" y2="8" stroke="#6B040A" stroke-linecap="round" stroke-width="2"/>
  </g>
</svg>
