<?xml version="1.0" encoding="UTF-8"?>
<svg width="18px" height="18px" viewBox="0 0 18 18" version="1.1" xmlns="http://www.w3.org/2000/svg" xmlns:xlink="http://www.w3.org/1999/xlink">
    <!-- Generator: Sketch 59.1 (86144) - https://sketch.com -->
    <title>男</title>
    <desc>Created with Sketch.</desc>
    <g id="页面-1" stroke="none" stroke-width="1" fill="none" fill-rule="evenodd">
        <g id="男" transform="translate(-1.000000, -1.000000)">
            <rect id="矩形" x="0" y="0" width="20" height="20"></rect>
            <g id="编组" transform="translate(1.000000, 1.000000)" fill="#70B2E1" fill-rule="nonzero">
                <path d="M6.21671875,7.15804688 C6.1909375,6.775 5.84470703,6.4884375 5.47728516,6.51261719 C3.94421875,6.61724609 3.28025391,7.76185547 3.14332031,8.35257813 C3.05746094,8.72160156 3.28527344,9.08474609 3.65269531,9.17648438 C3.70692501,9.19017761 3.76264243,9.19708985 3.81857422,9.19708985 C4.12681641,9.19708985 4.40972656,8.98759766 4.49289062,8.67710938 C4.52542969,8.55708984 4.72882812,7.9553125 5.57128906,7.89792969 C5.95412109,7.87169922 6.24292969,7.540625 6.21671875,7.15804688 L6.21671875,7.15804688 Z M11.6951563,6.83679688 C11.6951563,7.11851563 11.9235352,7.34689453 12.2052539,7.34689453 C12.4869727,7.34689453 12.7153516,7.11849609 12.7153516,6.83679688 C12.7153516,6.55507813 12.4869727,6.32669922 12.2052539,6.32669922 C11.9235547,6.32667969 11.6951563,6.55507812 11.6951563,6.83679688 M12.6396094,7.40029297 C12.2857227,7.54742188 12.1180469,7.95373047 12.2653906,8.30787109 C12.5519141,8.99642578 12.6970117,9.72705078 12.6970117,10.4793555 C12.6970117,13.5967773 10.1605859,16.1330078 7.04337891,16.1330078 C6.73176999,16.1330422 6.42067827,16.1076388 6.11320313,16.0570508 C6.00032316,16.0382886 5.88803285,16.0161366 5.77648438,15.990625 C5.40273437,15.906543 5.0303125,16.1393359 4.94533203,16.5128711 C4.85992188,16.8866602 5.09357422,17.2588477 5.46734375,17.3442578 C5.60641297,17.3761467 5.74643419,17.4037314 5.88720703,17.4269727 C6.26937894,17.4898112 6.65603628,17.5214258 7.04333984,17.5214258 C10.9261719,17.5214258 14.0854297,14.3624023 14.0854297,10.4793359 C14.0854297,9.54310547 13.9041797,8.63304688 13.5471289,7.77455078 C13.4007031,7.42085938 12.9948242,7.25273438 12.6396094,7.40029297 L12.6396094,7.40029297 Z" id="形状"></path>
                <path d="M16.3357813,0.01765625 C16.3336914,0.01765625 16.3317773,0.0182617188 16.3296875,0.0182617188 C16.3275781,0.0182617188 16.3256836,0.01765625 16.3235742,0.01765625 L9.64353516,0.01765625 C9.26025391,0.01765625 8.94929688,0.328398438 8.94929688,0.711894531 C8.94929688,1.09537109 9.26025391,1.40611328 9.64353516,1.40611328 L14.6536523,1.40611328 L11.2368555,4.82324219 C10.0283008,3.92625 8.56365234,3.43726563 7.04335938,3.43726563 C3.16052734,3.43726563 0.00126953125,6.59626953 0.00126953125,10.4793555 C0.00126953125,12.9025781 1.22384766,15.1260156 3.27125,16.427207 C3.38243433,16.4979052 3.51146458,16.5354492 3.64322266,16.5354492 C3.87283203,16.5354492 4.09746094,16.4217773 4.22945313,16.2136523 C4.43509766,15.8900586 4.33972656,15.460918 4.01611328,15.2552539 C2.37140625,14.210332 1.38972656,12.4250586 1.38972656,10.4793555 C1.38972656,7.36189453 3.92617188,4.82568359 7.04339844,4.82568359 C8.45035156,4.82568359 9.79857422,5.34544922 10.8394531,6.28939453 C11.1232617,6.54634766 11.5626172,6.52533203 11.8201953,6.24125 C11.8457812,6.21308594 11.8560937,6.17818359 11.8761914,6.14726562 L15.641582,2.38154297 L15.641582,7.39195312 C15.641582,7.77544922 15.9525391,8.08617187 16.3358008,8.08617187 C16.719043,8.08617187 17.0300195,7.77544922 17.0300195,7.39195312 L17.0300195,0.711894531 C17.0300195,0.328398438 16.719043,0.01765625 16.3357813,0.01765625 Z" id="路径"></path>
            </g>
        </g>
    </g>
</svg>