<?xml version="1.0" encoding="UTF-8"?>
<svg width="100px" height="100px" viewBox="0 0 100 100" version="1.1" xmlns="http://www.w3.org/2000/svg" xmlns:xlink="http://www.w3.org/1999/xlink">
    <!-- Generator: Sketch 59.1 (86144) - https://sketch.com -->
    <title>购买视频@2x</title>
    <desc>Created with Sketch.</desc>
    <g id="购买视频" stroke="none" stroke-width="1" fill="none" fill-rule="evenodd">
        <circle id="椭圆形" fill="#FFCF43" cx="53" cy="53" r="26"></circle>
        <path d="M37.7661821,20.7098459 C37.2863464,20.8828831 36.7369471,21.2063074 36.3209926,21.4247247 C35.9050381,21.6431419 35.5267084,21.86199 35.0686177,22.1396035 M21.59655,35.2464732 C19.2987506,39.6611748 18,44.6789176 18,50 C18,67.673112 32.326888,82 50,82 L50,82 C67.673112,82 82,67.673112 82,50 C82,32.326888 67.673112,18 50,18 C48.6141309,18 47.2488384,18.0880988 45.9094174,18.2590017" id="形状" stroke="#603C24" stroke-width="3.4" stroke-linecap="round"></path>
        <path d="M53.7218531,38.9139052 L63.2169563,54.9825414 C63.7788831,55.9334946 63.463515,57.1599262 62.5125618,57.7218531 C62.2044086,57.9039436 61.8530353,58 61.4951032,58 L42.5048968,58 C41.4003273,58 40.5048968,57.1045695 40.5048968,56 C40.5048968,55.642068 40.6009532,55.2906946 40.7830437,54.9825414 L50.2781469,38.9139052 C50.8400738,37.962952 52.0665054,37.6475839 53.0174586,38.2095107 C53.307909,38.3811405 53.5502233,38.6234548 53.7218531,38.9139052 Z" id="三角形备份" stroke="#603C24" stroke-width="3.4" transform="translate(52.000000, 47.000000) rotate(-270.000000) translate(-52.000000, -47.000000) "></path>
    </g>
</svg>