<?xml version="1.0" encoding="UTF-8"?>
<svg width="22px" height="22px" viewBox="0 0 22 22" version="1.1" xmlns="http://www.w3.org/2000/svg" xmlns:xlink="http://www.w3.org/1999/xlink">
    <!-- Generator: Sketch 63.1 (92452) - https://sketch.com -->
    <title>Clock</title>
    <desc>Created with Sketch.</desc>
    <g id="页面-1" stroke="none" stroke-width="1" fill="none" fill-rule="evenodd">
        <g id="个人中心备份" transform="translate(-15.000000, -624.000000)">
            <g id="编组-10" transform="translate(15.000000, 447.000000)">
                <g id="编组-19备份-5" transform="translate(0.000000, 173.000000)">
                    <g id="Clock" transform="translate(0.000000, 4.500000)">
                        <path d="M9.24,21.12 C14.3431111,21.12 18.48,16.9831111 18.48,11.88 C18.48,6.77688891 14.3431111,2.64 9.24,2.64 C4.13688891,2.64 0,6.77688891 0,11.88 C0,16.9831111 4.13688891,21.12 9.24,21.12 Z" id="Path" fill="#FFE300" fill-rule="nonzero"></path>
                        <path d="M12.32,6.16 C12.32,5.67398942 11.9260106,5.28 11.44,5.28 C10.9539894,5.28 10.56,5.67398942 10.56,6.16 L10.56,11.44 C10.56,11.6733905 10.652714,11.897222 10.817746,12.062254 L13.457746,14.702254 C13.8014074,15.0459153 14.3585926,15.0459153 14.702254,14.702254 C15.0459153,14.3585926 15.0459153,13.8014074 14.702254,13.457746 L12.32,11.0754921 L12.32,6.16 Z M17.6622286,16.7822286 C16.0002857,18.4444857 13.7902286,19.36 11.44,19.36 C9.08945714,19.36 6.87971429,18.4444857 5.21777143,16.7822286 C3.55551429,15.1202857 2.64,12.9105429 2.64,10.56 C2.64,8.20977143 3.55551429,6.00002857 5.21777143,4.33777143 C6.87971429,2.67551429 9.08945714,1.76 11.44,1.76 C13.7902286,1.76 16.0002857,2.67551429 17.6622286,4.33777143 C19.3244857,6.00002857 20.24,8.20977143 20.24,10.56 C20.24,12.9105429 19.3244857,15.1202857 17.6622286,16.7822286 L17.6622286,16.7822286 Z M11.44,0 C8.61916,0 5.96761,1.09857 3.97309,3.09342 C1.97857,5.08761 0.88,7.73949 0.88,10.56 C0.88,13.38051 1.97857,16.03239 3.97309,18.02658 C5.96761,20.02143 8.61916,21.12 11.44,21.12 C14.26051,21.12 16.91206,20.02143 18.90658,18.02658 C20.90143,16.03239 22,13.38051 22,10.56 C22,7.73949 20.90143,5.08761 18.90691,3.09342 C16.91206,1.09857 14.26051,0 11.44,0 L11.44,0 Z" fill="#32363E"></path>
                    </g>
                </g>
            </g>
        </g>
    </g>
</svg>