<svg xmlns="http://www.w3.org/2000/svg" width="23" height="23" viewBox="0 0 23 23">
  <g fill="none" fill-rule="evenodd">
    <circle cx="11.5" cy="11.5" r="11.5" fill="#FFF" opacity=".8"/>
    <g fill="#FF5B6F" transform="translate(5.5 7)">
      <path d="M9.34516461,1.34504708 L9.35167386,9.0232267 C9.3522725,9.72998362 8.78731289,10.302444 8.08980078,10.3018532 C7.39228867,10.3012614 6.8263577,9.72784241 6.82575858,9.02108549 L6.81924934,1.34290587 C6.8186507,0.636148955 7.38361031,0.0636885971 8.08112242,0.0642794185 C8.77863453,0.0648711551 9.3445655,0.638290166 9.34516461,1.34504708 Z" transform="rotate(45 8.085 5.183)"/>
      <path d="M1.0828916,5.02246693 L5.99794052,5.0266334 C6.67690388,5.02720896 7.22716881,5.57747389 7.22774436,6.25643725 C7.22831866,6.93391433 6.67958054,7.48358357 6.00210346,7.48415786 C6.00141022,7.48415845 6.00071699,7.48415845 6.00002375,7.48415786 L1.08497483,7.47999139 C0.406011467,7.47941584 -0.144253461,6.92915091 -0.144829016,6.25018754 C-0.145403311,5.57271047 0.403334813,5.02304123 1.08081189,5.02246693 C1.08150512,5.02246634 1.08219836,5.02246634 1.0828916,5.02246693 Z" transform="rotate(45 3.541 6.253)"/>
    </g>
  </g>
</svg>
