<?xml version="1.0" encoding="UTF-8"?>
<svg width="82px" height="82px" viewBox="0 0 82 82" version="1.1" xmlns="http://www.w3.org/2000/svg" xmlns:xlink="http://www.w3.org/1999/xlink">
    <!-- Generator: Sketch 54.1 (76490) - https://sketchapp.com -->
    <title>编组 3 </title>
    <desc>Created with Sketch.</desc>
    <defs>
        <ellipse id="path-1" cx="40.5381005" cy="41" rx="40.5381005" ry="41"></ellipse>
    </defs>
    <g id="页面1" stroke="none" stroke-width="1" fill="none" fill-rule="evenodd">
        <g id="5.我的-编辑资料" transform="translate(-255.000000, -119.000000)">
            <g id="编组-3" transform="translate(255.000000, 119.000000)">
                <mask id="mask-2" fill="white">
                    <use xlink:href="#path-1"></use>
                </mask>
                <use id="蒙版" fill="#F3F3F3" xlink:href="#path-1"></use>
                <path d="M59.7685678,62.7281099 C47.8248389,61.6312489 47.1130553,56.0445703 47.1130552,56.0445703 L47.1130552,50.4432668 C54.0885346,47.6499275 56.2238854,36.959189 56.2238854,36.959189 C56.2238854,32.7033684 54.2166556,32.5717451 54.2166556,32.5717451 L54.2166556,25.6688333 C54.6721971,14.1298557 47.9387242,16.8061965 47.8533102,16.8061965 C47.7678961,16.8061965 44.0523858,13.7642353 44.0523858,13.7642353 C41.4472578,11.7021366 35.6533392,14.4662263 35.6533392,14.4662264 L35.4113328,14.4662264 C28.8486879,14.6417241 27.1404073,19.5556614 27.1404073,19.5556614 L27.2542926,32.3084985 C23.8377313,32.3084985 24.2932728,37.2955597 24.2932728,37.2955597 C24.2932728,42.7652399 33.5179884,50.2823938 33.5179884,50.2823939 C34.1016509,57.4485524 30.4430832,61.0901308 30.4430832,61.0901308 C25.9167472,61.3756394 21.4368246,62.1901338 17.0900228,63.5178498 L16.5348315,63.7079724 C12.506568,65.2590766 9.37041025,68.5883594 7.99342826,72.7753565 L7.99342826,79.3272729 C22.1003966,85.7757575 32.7583009,88.9999999 39.9671413,89 C47.1759817,89.0000001 57.8336237,85.7757577 71.9400674,79.3272729 L71.9400674,74.2378379 C72.0539528,66.7060591 59.7685678,62.7281099 59.7685678,62.7281099 Z" id="路径" fill="#000000" fill-rule="nonzero" mask="url(#mask-2)"></path>
            </g>
        </g>
    </g>
</svg>