<svg height="30" viewBox="0 0 30 30" width="30" xmlns="http://www.w3.org/2000/svg">
    <g fill="none" fill-rule="evenodd">
        <path d="m0 0h30v30h-30z" fill="#fff" opacity=".01" />
        <g stroke="#e67d37" transform="translate(6 7)">
            <path d="m3.11958987 13c-2.40825586-.6660714-3.42217067-2.156764-3.04174443-4.4720779.18079227-.93727365 1.38911753-2.59787535 2.84862069-2.42371142 0-2.61553143 1.94580416-6.34893259 6.47511392-6.09158767 3.40763605.42427308 5.20674195 2.4548023 5.39731745 6.09158767 2.0525819.29964825 3.1196161 1.46426822 3.2011025 3.49385992 0 .17989845-.0214585 2.9612088-3.053015 3.4019294" stroke-linecap="round" stroke-width="1.4" />
            <path d="m7.22929391 2.3609186c-.00090758-.00091666-.00090758-.00091666-.00182217-.00182632-.0880024-.08719431-.23002739-.08653921-.3172217.00146319l-4.56864175 4.61098305c-.08648602.08728756-.08664608.22791118-.00035898.31539538l.14169629.1436621c.00090758.00091666.00090758.00091666.00182217.00182633.0880024.0871943.23002739.08653921.3172217-.0014632l4.56864175-4.61098305c.08648602-.08728756.08664608-.22791117.00035897-.31539538z" stroke-width=".8" transform="matrix(.70710678 -.70710678 .70710678 .70710678 1.960502 10.367729)" />
            <path d="m3.21979187 5h2.78402277c.27955879 0 .50618596.22872751.50618596.51087719v2.80982456" stroke-linecap="round" stroke-width="1.4" transform="matrix(-.70710678 .70710678 -.70710678 -.70710678 17.014476 13.429929)" />
        </g>
    </g>
</svg>