<?xml version="1.0" encoding="UTF-8"?>
<svg width="22px" height="23px" viewBox="0 0 22 23" version="1.1" xmlns="http://www.w3.org/2000/svg" xmlns:xlink="http://www.w3.org/1999/xlink">
    <!-- Generator: Sketch 63.1 (92452) - https://sketch.com -->
    <title>Email</title>
    <desc>Created with Sketch.</desc>
    <g id="页面-1" stroke="none" stroke-width="1" fill="none" fill-rule="evenodd">
        <g id="个人中心备份" transform="translate(-15.000000, -539.000000)">
            <g id="编组-10" transform="translate(15.000000, 447.000000)">
                <g id="编组-19备份-3" transform="translate(0.000000, 88.000000)">
                    <g id="Email" transform="translate(0.000000, 4.500000)">
                        <path d="M15.84,3.52 C16.32576,3.52 16.72,3.12664 16.72,2.64 L16.72,1.76 C16.72,1.27336 16.32576,0.88 15.84,0.88 C15.35424,0.88 14.96,1.27336 14.96,1.76 L14.96,2.64 C14.96,3.12664 15.35424,3.52 15.84,3.52" id="Path" fill="#FFE300"></path>
                        <path d="M10.56,3.52 C11.04576,3.52 11.44,3.12664 11.44,2.64 L11.44,0.88 C11.44,0.39336 11.04576,0 10.56,0 C10.07424,0 9.68,0.39336 9.68,0.88 L9.68,2.64 C9.68,3.12664 10.07424,3.52 10.56,3.52" id="Path" fill="#FFE300"></path>
                        <path d="M5.28,3.52 C5.76576,3.52 6.16,3.12664 6.16,2.64 L6.16,1.76 C6.16,1.27336 5.76576,0.88 5.28,0.88 C4.79424,0.88 4.4,1.27336 4.4,1.76 L4.4,2.64 C4.4,3.12664 4.79424,3.52 5.28,3.52" id="Path" fill="#FFE300"></path>
                        <path d="M5.153,7.92 L10.43064,11.613624 C11.03696,12.037784 11.84392,12.037784 12.44936,11.613624 L12.44936,11.613624 L17.4801538,8.0921711 C18.071604,8.37583358 18.48,8.98022379 18.48,9.68 L18.48,9.68 L18.48,20.176263 C18.48,21.1482842 17.6920212,21.936263 16.72,21.936263 L16.72,21.936263 L1.76,21.936263 C0.78797884,21.936263 4.25295578e-14,21.1482842 4.26325641e-14,20.176263 L4.26325641e-14,20.176263 L4.26325641e-14,9.68 C4.29576151e-14,8.70797884 0.78797884,7.92 1.76,7.92 L1.76,7.92 L5.153,7.92 Z" id="Combined-Shape" fill="#FFE300"></path>
                        <path d="M12.44936,11.613624 C11.84392,12.037784 11.03696,12.037784 10.43064,11.613624 L2.64,6.160264 L20.24,6.160264 L12.44936,11.613624 Z M20.24,19.360264 L2.64,19.360264 L2.64,7.920264 L10.43064,13.373624 C11.03696,13.797784 11.84392,13.797784 12.44936,13.373624 L20.24,7.920264 L20.24,19.360264 Z M2.64,4.400264 C1.66848,4.400264 0.88,5.187864 0.88,6.160264 L0.88,19.360264 C0.88,20.331784 1.66848,21.120264 2.64,21.120264 L20.24,21.120264 C21.2124,21.120264 22,20.331784 22,19.360264 L22,6.160264 C22,5.187864 21.2124,4.400264 20.24,4.400264 L2.64,4.400264 Z M16.72,3.52 C17.20576,3.52 17.6,3.12664 17.6,2.64 L17.6,1.76 C17.6,1.27336 17.20576,0.88 16.72,0.88 C16.23424,0.88 15.84,1.27336 15.84,1.76 L15.84,2.64 C15.84,3.12664 16.23424,3.52 16.72,3.52 M11.44,3.52 C11.92576,3.52 12.32,3.12664 12.32,2.64 L12.32,0.88 C12.32,0.39336 11.92576,0 11.44,0 C10.95424,0 10.56,0.39336 10.56,0.88 L10.56,2.64 C10.56,3.12664 10.95424,3.52 11.44,3.52 M6.16,3.52 C6.64576,3.52 7.04,3.12664 7.04,2.64 L7.04,1.76 C7.04,1.27336 6.64576,0.88 6.16,0.88 C5.67424,0.88 5.28,1.27336 5.28,1.76 L5.28,2.64 C5.28,3.12664 5.67424,3.52 6.16,3.52" fill="#32363E"></path>
                    </g>
                </g>
            </g>
        </g>
    </g>
</svg>