<?xml version="1.0" encoding="UTF-8"?>
<svg width="18px" height="18px" viewBox="0 0 18 18" version="1.1" xmlns="http://www.w3.org/2000/svg" xmlns:xlink="http://www.w3.org/1999/xlink">
    <!-- Generator: Sketch 59.1 (86144) - https://sketch.com -->
    <title>女</title>
    <desc>Created with Sketch.</desc>
    <g id="页面-1" stroke="none" stroke-width="1" fill="none" fill-rule="evenodd">
        <g id="女" transform="translate(-1.000000, -1.000000)">
            <rect id="矩形备份-29" x="0" y="0" width="20" height="20"></rect>
            <g id="编组" transform="translate(1.000000, 1.000000)" fill="#FF2C56" fill-rule="nonzero">
                <path d="M10.8630859,10.2930664 C10.8879688,10.672832 11.231543,10.9576367 11.5977539,10.9327734 C13.1190039,10.8287891 13.7767969,9.69404297 13.9124414,9.10634766 C13.9983398,8.74015625 13.7723047,8.38074219 13.4061133,8.28808594 C13.3521327,8.27465099 13.296721,8.26781717 13.2410938,8.26773438 C12.935957,8.26773438 12.6556445,8.47568359 12.5720117,8.783125 C12.5403711,8.90291016 12.3369141,9.49966797 11.502832,9.55619141 C11.1230469,9.58554688 10.8382227,9.91332031 10.8630859,10.2930664 L10.8630859,10.2930664 Z M4.41630859,10.6117969 C4.41630859,10.8914258 4.64300781,11.118125 4.92263672,11.118125 C5.20230469,11.118125 5.42900391,10.8914258 5.42900391,10.6117969 C5.42900391,10.3321289 5.20230469,10.1054297 4.92263672,10.1054297 C4.64300781,10.1054492 4.41630859,10.3321484 4.41630859,10.6117969 M4.49091797,10.0534766 C4.84126953,9.90652344 5.00853516,9.50417969 4.86162109,9.15380859 C4.57679687,8.47117188 4.43439453,7.74556641 4.43439453,6.99960938 C4.43439453,3.90732422 6.95025391,1.39146484 10.0425391,1.39146484 C10.352207,1.39146484 10.6619141,1.41630859 10.9648047,1.46605469 C11.077832,1.48414063 11.1886133,1.50675781 11.2993555,1.53160156 C11.6700586,1.61523438 12.0407813,1.38466797 12.1244141,1.01396484 C12.2080469,0.643242188 11.9774805,0.274804688 11.6067578,0.18890625 C11.4690584,0.157213586 11.33035,0.130076404 11.1908594,0.107539063 C10.8133398,0.046484375 10.429082,0.01484375 10.0448047,0.01484375 C6.19302734,0.01484375 3.0578125,3.1478125 3.0578125,7.001875 C3.0578125,7.93089844 3.23865234,8.83283203 3.59125,9.68501953 C3.73591797,10.0308594 4.13828125,10.1981445 4.49091797,10.0534766 L4.49091797,10.0534766 Z" id="形状"></path>
                <path d="M13.7858398,1.09761719 C13.6705664,1.02527344 13.5439844,0.989101562 13.4173828,0.989101562 C13.189082,0.989101562 12.9675781,1.10210937 12.8364648,1.30783203 C12.6330078,1.62880859 12.7279492,2.05375 13.0489453,2.25947266 C14.6787109,3.29701172 15.6529688,5.06693359 15.6529688,6.99734375 C15.6529688,10.0896094 13.1370703,12.6055078 10.0448047,12.6055078 C8.68628906,12.6055078 7.38201172,12.1172266 6.36255859,11.2266211 C6.35349609,11.215332 6.34220703,11.204043 6.33091797,11.1927148 C6.28119141,11.1429883 6.22693359,11.1023047 6.16816406,11.0706641 C5.92626953,10.9282422 5.61886719,10.9440625 5.39509766,11.118125 C5.36370737,11.1405129 5.33421918,11.1654544 5.30693359,11.1926953 L3.69976563,12.7998828 L1.721875,10.8220117 C1.44158203,10.5417187 0.980449219,10.5417187 0.697890625,10.8220117 C0.417597656,11.1023047 0.417597656,11.5634375 0.697890625,11.8459961 L2.67578125,13.8238867 L0.211894531,16.2900195 C-0.0683789062,16.5703125 -0.0683789062,17.0314453 0.211894531,17.3139844 C0.4921875,17.5942773 0.953320313,17.5942773 1.23587891,17.3139844 L3.70201172,14.8478516 L5.79517578,16.9410156 C6.07546875,17.2213086 6.53660156,17.2213086 6.81916016,16.9410156 C7.09945313,16.6607227 7.09945313,16.1995898 6.81916016,15.9170312 L4.72148438,13.8238867 L5.91498047,12.6303516 C7.10849609,13.5051367 8.54839844,13.9820898 10.0448047,13.9820898 C13.8966016,13.9843555 17.0295703,10.8491211 17.0295703,6.99732422 C17.0295703,4.59449219 15.8179883,2.38832031 13.7858398,1.09761719 Z" id="路径"></path>
            </g>
        </g>
    </g>
</svg>