<?xml version="1.0" encoding="UTF-8"?>
<svg width="36px" height="36px" viewBox="0 0 36 36" version="1.1" xmlns="http://www.w3.org/2000/svg" xmlns:xlink="http://www.w3.org/1999/xlink">
    <!-- Generator: Sketch 58 (84663) - https://sketch.com -->
    <title>公告消息复制 3</title>
    <desc>Created with Sketch.</desc>
    <g id="页面-1" stroke="none" stroke-width="1" fill="none" fill-rule="evenodd">
        <g id="5.我的-普通用户备份" transform="translate(-13.000000, -422.000000)">
            <g id="公告消息复制-3" transform="translate(13.000000, 422.000000)">
                <rect id="矩形复制-20" fill="#FFFFFF" opacity="0.00999999978" x="0" y="0" width="36" height="36"></rect>
                <path d="M12.1337952,11.2741007 C13.8579291,10.6515949 15.8855173,11.1009621 17.2651113,12.5044791 L17.9850023,13.2368533 C18.0149977,13.2673689 18.0449932,13.2673689 18.0749886,13.2368533 L18.7348887,12.5044791 L18.7348887,12.5044791 C20.5646114,10.6430279 23.504166,10.49045 25.4238752,12.2298387 C27.4635661,14.1218055 27.523557,17.3259427 25.6038479,19.2789407 L19.6647478,25.2905125 C18.7348887,26.2364958 17.2051204,26.2364958 16.2752613,25.2905125 L10.3961521,19.2789407 C9.34607127,18.2106509 8.88833443,16.768009 9.0229416,15.370545 M10.5098148,12.6831744 C10.5605319,12.6314962 10.6128122,12.5807885 10.6666558,12.5311113" id="形状复制" stroke="#454545" stroke-width="1.512" stroke-linecap="round"></path>
                <path d="M18.9285252,20.3292461 L22.3062928,20.3292461 C22.755786,20.3292461 23.1216375,20.6908444 23.1268936,21.1403068 C23.1320709,21.5830358 22.7773652,21.9461355 22.3346363,21.9513128 C22.3315117,21.9513493 22.3283868,21.9513676 22.325262,21.9513676 L18.9474944,21.9513676 C18.4980012,21.9513676 18.1321496,21.5897693 18.1268936,21.1403068 C18.1217163,20.6975779 18.4764219,20.3344782 18.9191509,20.3293009 C18.9222755,20.3292643 18.9254003,20.3292461 18.9285252,20.3292461 Z" id="矩形复制-13" fill="#FFE150" transform="translate(20.626894, 21.140307) rotate(-45.000000) translate(-20.626894, -21.140307) "></path>
            </g>
        </g>
    </g>
</svg>