<?xml version="1.0" encoding="UTF-8"?>
<svg width="26px" height="19px" viewBox="0 0 26 19" version="1.1" xmlns="http://www.w3.org/2000/svg" xmlns:xlink="http://www.w3.org/1999/xlink">
    <!-- Generator: Sketch 63.1 (92452) - https://sketch.com -->
    <title>land transportation</title>
    <desc>Created with Sketch.</desc>
    <g id="页面-1" stroke="none" stroke-width="1" fill="none" fill-rule="evenodd">
        <g id="个人中心备份" transform="translate(-15.000000, -454.000000)">
            <g id="编组-10" transform="translate(15.000000, 447.000000)">
                <g id="编组-19备份">
                    <g id="land-transportation" transform="translate(0.000000, 6.500000)">
                        <path d="M2,7.91426239 L2,14.9142624 L16,14.9142624 L16,5.45358567 C15.9999587,4.90710389 15.5612449,4.46183775 15.0148232,4.45373683 C12.9439872,4.42303585 11.4816751,4.42853064 10.627887,4.4702212 C9.55584322,4.52256921 8.27913724,4.4702212 7.90329835,4.4702212 C6.63913128,4.4702212 7.44896706,5.92037751 6.18696579,7.43850311 C5.67892696,8.0496489 4.2832717,8.20823533 2,7.91426239 Z" id="路径-3" fill="#FFE300"></path>
                        <path d="M18.182,15.7779998 C18.2206667,15.7779998 18.2586667,15.7793333 18.2966667,15.7813333 L18.182,15.7779998 C18.3244862,15.7779998 18.4664371,15.7954328 18.6046667,15.83 L18.6386667,15.8393333 C18.9745719,15.9312644 19.2742441,16.1239108 19.4973333,16.3913333 C19.6805767,16.6104127 19.8065669,16.871556 19.864,17.1513333 C20.0031335,17.8339453 19.7161046,18.5329794 19.1374222,18.9208505 C18.5587399,19.3087216 17.8030719,19.3085719 17.2245433,18.9204715 C16.6460146,18.5323712 16.3592627,17.8332235 16.4986667,17.1506667 L16.5053333,17.1193333 L16.5226667,17.05 L16.4993333,17.1513333 C16.5716459,16.7933734 16.7569596,16.4680812 17.028,16.2233333 C17.2856507,15.9901919 17.6077157,15.8403131 17.952,15.7933333 C18.0282375,15.7830849 18.1050767,15.7779622 18.182,15.7779998 Z M7.30666666,15.7813333 L7.192,15.778 C7.43090125,15.7785262 7.66713686,15.8282242 7.886,15.924 C8.12631334,16.0295833 8.33896185,16.1892979 8.50733334,16.3906667 C8.69081647,16.6096773 8.81703841,16.8708262 8.87466666,17.1506667 C9.0138002,17.8332787 8.72677132,18.5323127 8.14808895,18.9201839 C7.56940659,19.308055 6.81373857,19.3079053 6.23520993,18.9198049 C5.65668128,18.5317045 5.36992937,17.8325568 5.50933334,17.15 L5.516,17.1193333 L5.53266666,17.05 L5.50933334,17.1513333 C5.57589277,16.8215875 5.73848987,16.5188924 5.97666666,16.2813333 C6.21655313,16.0421912 6.52138789,15.8787627 6.85333334,15.8113333 C6.89418761,15.8031694 6.93532606,15.7964983 6.97666666,15.7913333 L7.074,15.782 C7.1132801,15.7793983 7.15263389,15.7780643 7.192,15.778 C7.23066666,15.778 7.26866666,15.7793333 7.30666666,15.7813333 Z M25.3333333,10.3333333 C25.3333333,10.8856181 24.8856181,11.3333333 24.3333333,11.3333333 L23.3333333,11.3333333 L23.3333333,11.3333333 L23.3333333,15.1513333 C23.3333333,16.2559028 22.4379028,17.1513333 21.3333333,17.1513333 L21.2133333,17.1513333 C21.1251125,16.3703672 20.7383766,15.6537474 20.134,15.1513333 L21.3333333,15.1513333 L21.3326667,11.3333333 L20.3333333,11.3333333 C19.7810486,11.3333333 19.3333333,10.8856181 19.3333333,10.3333333 C19.3333333,9.78104859 19.7810486,9.33333334 20.3333333,9.33333334 L23.3333333,9.33333334 L23.3333333,9.33333334 L24.3333333,9.33333334 C24.8856181,9.33333334 25.3333333,9.78104859 25.3333333,10.3333333 Z M21.3333333,0.666666656 C22.4379028,0.666666656 23.3333333,1.56209716 23.3333333,2.66666666 L23.3333333,6.99933334 C23.3332333,7.55157904 22.885579,7.99927812 22.3333333,7.99943334 L17.6666667,7.9999 C17.1144371,7.99995522 16.6667219,7.55232951 16.6666667,7.00009999 C16.6666667,7.00006666 16.6666667,7.00003333 16.6666667,7 C16.6666667,6.44771525 17.1143819,6 17.6666667,6 L21.3326667,6 L21.3326667,6 L21.3333333,2.66666666 L8.84866666,2.66666666 L8.84733334,7.19133334 L8.87866666,7.19133334 L8.87866666,11.6566667 C8.87877397,12.2089514 8.43105872,12.6566667 7.87877397,12.6566667 C7.8787382,12.6566667 7.87870242,12.6566667 7.87866666,12.6565593 L2.66666666,12.656 L2.66666666,12.656 L2.66666666,15.1513333 L5.23933334,15.1513333 C4.63520529,15.6538618 4.24871641,16.3704666 4.16066666,17.1513333 L2.66666666,17.1513333 C1.56209716,17.1513333 0.666666656,16.2559028 0.666666656,15.1513333 L0.666666656,9.608 C0.666666656,8.77424523 1.18395915,8.02798127 1.96466666,7.73533334 L6.848,5.904 L6.848,2.66666666 C6.848,1.56209716 7.7434305,0.666666656 8.848,0.666666656 L21.3333333,0.666666656 Z M15.1506667,17.1506667 L10.2233333,17.1506667 C10.1411192,16.422343 9.79881786,15.7481562 9.25933334,15.252 L9.144,15.1506667 L16.2293333,15.1506667 C15.6252053,15.6531951 15.2387164,16.3697999 15.1506667,17.1506667 Z M2.66666666,9.608 L2.666,10.656 L6.87933334,10.656 L6.87866666,8.028 L2.66666666,9.608 Z" id="形状" fill="#333333" fill-rule="nonzero"></path>
                    </g>
                </g>
            </g>
        </g>
    </g>
</svg>