<?xml version="1.0" encoding="UTF-8"?>
<svg width="21px" height="26px" viewBox="0 0 21 26" version="1.1" xmlns="http://www.w3.org/2000/svg" xmlns:xlink="http://www.w3.org/1999/xlink">
    <!-- Generator: Sketch 63.1 (92452) - https://sketch.com -->
    <title>Lock</title>
    <desc>Created with Sketch.</desc>
    <g id="页面-1" stroke="none" stroke-width="1" fill="none" fill-rule="evenodd">
        <g id="个人中心备份" transform="translate(-16.000000, -493.000000)">
            <g id="编组-10" transform="translate(15.000000, 447.000000)">
                <g id="编组-19备份-2" transform="translate(1.000000, 44.000000)">
                    <g id="Lock" transform="translate(0.000000, 2.500000)">
                        <path d="M15.3,12 C16.15,12 17,12.8125 17,13.625 L17,13.625 L17,23.375 C17,24.1875 16.15,25 15.3,25 L15.3,25 L1.7,25 C0.85,25 1.32942268e-13,24.1875 0,23.375 L0,23.375 L9.66102198e-14,13.625 C-4.23480695e-14,12.8125 0.85,12 1.7,12 L1.7,12 Z M11,14 C9.90228475,14 9,14.9022847 9,16 C9,17.0972625 9.90258192,18 11,18 C12.0974181,18 13,17.0972625 13,16 C13,14.9022847 12.0977153,14 11,14 Z" id="Combined-Shape" fill="#FFE300"></path>
                        <path d="M9,1 C10.3223096,1 11.5989163,1.42177236 12.5311984,2.20258982 C12.0438565,2.06730107 11.5219282,2 11,2 C9,2 7,2.98823529 7,5 L7,5 L7,8 L4,8 L4,5.375 C4,2.615 6.4125,1 9,1 Z" id="Combined-Shape" fill="#FFE300"></path>
                        <path d="M11,20 C8.79793523,20 7,18.2017548 7,16 C7,13.7977153 8.79771525,12 11,12 C13.2022847,12 15,13.7977153 15,16 C15,18.2017548 13.2020648,20 11,20 Z M11,18 C12.0974181,18 13,17.0972625 13,16 C13,14.9022847 12.0977153,14 11,14 C9.90228475,14 9,14.9022847 9,16 C9,17.0972625 9.90258192,18 11,18 Z M17,8 L17,5 C17,1.84571429 14.105,0 11,0 C7.895,0 5,1.84571429 5,5 L5,8 L3,8 C2,8 1,9 1,10 L1,22 C1,23 2,24 3,24 L19,24 C20,24 21,23 21,22 L21,10 C21,9 20,8 19,8 L17,8 Z M15,5 L15,8 L7,8 L7,5 C7,2.98823529 9,2 11,2 C13,2 15,2.98823529 15,5 Z M3,10 L19,10 L19,22 L3,22 L3,10 Z" fill="#32363E" fill-rule="nonzero"></path>
                    </g>
                </g>
            </g>
        </g>
    </g>
</svg>