<?xml version="1.0" encoding="UTF-8"?>
<svg width="200px" height="200px" viewBox="0 0 200 200" version="1.1" xmlns="http://www.w3.org/2000/svg" xmlns:xlink="http://www.w3.org/1999/xlink">
    <!-- Generator: Sketch 59.1 (86144) - https://sketch.com -->
    <title>编组 24</title>
    <desc>Created with Sketch.</desc>
    <defs>
        <linearGradient x1="50%" y1="0%" x2="50%" y2="100%" id="linearGradient-1">
            <stop stop-color="#18D5C2" offset="0%"></stop>
            <stop stop-color="#1FFEDB" offset="100%"></stop>
        </linearGradient>
        <circle id="path-2" cx="100" cy="100" r="100"></circle>
        <linearGradient x1="50%" y1="0%" x2="50%" y2="100%" id="linearGradient-4">
            <stop stop-color="#FFFFFF" offset="0%"></stop>
            <stop stop-color="#00FFE4" offset="100%"></stop>
        </linearGradient>
    </defs>
    <g id="页面1" stroke="none" stroke-width="1" fill="none" fill-rule="evenodd">
        <g id="编组-24">
            <g id="编组-23">
                <mask id="mask-3" fill="white">
                    <use xlink:href="#path-2"></use>
                </mask>
                <use id="椭圆形" fill="url(#linearGradient-1)" xlink:href="#path-2"></use>
                <polygon id="矩形" fill="#00B79D" opacity="0.600000024" mask="url(#mask-3)" points="125.745471 33.6937717 226 68.2175335 176.612768 183.693772 67 138.863754"></polygon>
                <ellipse id="椭圆形" fill="#FFFFFF" mask="url(#mask-3)" cx="100.5" cy="196.5" rx="120.5" ry="51.5"></ellipse>
            </g>
            <path d="M91.2131729,34 L128.13124,34 C130.340379,34 132.13124,35.790861 132.13124,38 C132.13124,38.8435457 131.86456,39.6654992 131.369321,40.3483667 L113.691074,64.7242927 C113.04259,65.6184643 113.241759,66.8690334 114.135931,67.517517 C114.477365,67.7651363 114.888342,67.8984761 115.310114,67.8984761 L127.038065,67.8984761 C129.799489,67.8984761 132.038065,70.1370523 132.038065,72.8984761 C132.038065,74.1590516 131.561918,75.3731086 130.704951,76.297586 L72.9999855,138.548448 C71.7093801,139.940725 69.5907747,140.170599 68.0315886,139.087531 L67.9235049,139.012452 C66.3951899,137.950828 65.8008379,135.975496 66.489578,134.246789 L80.4816756,99.1272388 C80.8904985,98.1011113 80.3900742,96.9378542 79.3639468,96.5290313 C79.1284324,96.4351992 78.8772257,96.3869995 78.6237074,96.3869995 L70.291457,96.3869995 C67.5300332,96.3869995 65.291457,94.1484232 65.291457,91.3869995 C65.291457,90.7708843 65.4053282,90.1600752 65.6273332,89.5853478 L85.6162243,37.838018 C86.5096474,35.5251204 88.7337173,34 91.2131729,34 Z" id="矩形备份-27" fill="#009681" opacity="0.5"></path>
            <path d="M89.2131729,33 L126.13124,33 C128.340379,33 130.13124,34.790861 130.13124,37 C130.13124,37.8435457 129.86456,38.6654992 129.369321,39.3483667 L111.691074,63.7242927 C111.04259,64.6184643 111.241759,65.8690334 112.135931,66.517517 C112.477365,66.7651363 112.888342,66.8984761 113.310114,66.8984761 L124.961055,66.8984761 C127.722479,66.8984761 129.961055,69.1370523 129.961055,71.8984761 C129.961055,73.1675186 129.478505,74.3890811 128.611229,75.3155262 L70.8340496,137.034474 C69.5881559,138.365367 67.5897999,138.663006 66.0101357,137.752957 C64.4620612,136.861108 63.8039695,134.967636 64.4652243,133.307916 L78.4816756,98.1272388 C78.8904985,97.1011113 78.3900742,95.9378542 77.3639468,95.5290313 C77.1284324,95.4351992 76.8772257,95.3869995 76.6237074,95.3869995 L68.291457,95.3869995 C65.5300332,95.3869995 63.291457,93.1484232 63.291457,90.3869995 C63.291457,89.7708843 63.4053282,89.1600752 63.6273332,88.5853478 L83.6162243,36.838018 C84.5096474,34.5251204 86.7337173,33 89.2131729,33 Z" id="矩形" fill="#FFFFFF"></path>
            <path d="M90.251788,34 L125.13124,34 C127.340379,34 129.13124,35.790861 129.13124,38 C129.13124,38.8435457 128.86456,39.6654992 128.369321,40.3483667 L110.79589,64.5797655 C110.147406,65.4739371 110.346576,66.7245062 111.240747,67.3729897 C111.601886,67.6348997 112.040224,67.7685487 112.486056,67.7526837 L124.382861,67.3293349 C127.142538,67.2311316 129.459308,69.3886823 129.557511,72.1483593 C129.60483,73.4780976 129.12018,74.7718528 128.210848,75.7432223 L70.3721261,137.527911 C69.3810333,138.58662 67.8177309,138.880113 66.5101357,138.252957 C65.2775337,137.66177 64.7213312,136.210753 65.2429525,134.947139 L80.4327972,98.1501371 C80.8542664,97.1291388 80.3682521,95.9597878 79.3472539,95.5383186 C79.1052321,95.4384117 78.8459481,95.3869995 78.5841163,95.3869995 L70.2236605,95.3869995 C67.4622367,95.3869995 65.2236605,93.1484232 65.2236605,90.3869995 C65.2236605,89.7855534 65.3321746,89.1890414 65.5439886,88.6261273 L84.6361817,37.8869534 C85.5161257,35.5484252 87.7531853,34 90.251788,34 Z" id="矩形备份-28" fill="url(#linearGradient-4)" opacity="0.699999988"></path>
            <text id="LT.run" font-family="AdobeFanHeitiStd-Bold, Adobe Fan Heiti Std" font-size="28" font-weight="bold" letter-spacing="0.49411775" fill="#01A491">
                <tspan x="58" y="176">LT.run</tspan>
            </text>
        </g>
    </g>
</svg>