<svg xmlns="http://www.w3.org/2000/svg" xmlns:xlink="http://www.w3.org/1999/xlink" width="100" height="100" viewBox="0 0 100 100">
  <defs>
    <path id="收藏备份-a" d="M36.0052233,61.0248501 L24.9045961,64.7266898 C21.4353854,65.883603 17.6851709,64.0091155 16.5282577,60.5399047 C16.2975849,59.8481911 16.182746,59.123127 16.1883776,58.3939864 L16.278754,46.6927312 C16.2898241,45.2594494 15.8355286,43.8612716 14.9841108,42.7082292 L8.03316954,33.2948367 C5.8608346,30.3529271 6.48469819,26.2070127 9.42660785,24.0346777 C10.0131848,23.6015436 10.6672746,23.2682682 11.3624688,23.0483073 L22.5189516,19.5183736 C23.8855044,19.0859936 25.0748655,18.2218721 25.9083715,17.0558159 L32.7130807,7.53617975 C34.8397146,4.56106637 38.975498,3.87323789 41.9506114,5.99987183 C42.5438087,6.42389383 43.0628973,6.94298244 43.4869193,7.53617975 L50.2916285,17.0558159 C51.1251345,18.2218721 52.3144956,19.0859936 53.6810484,19.5183736 L64.8375312,23.0483073 C68.3241982,24.1514958 70.2563893,27.8723088 69.1532009,31.3589758 C68.93324,32.05417 68.5999646,32.7082598 68.1668305,33.2948367 L61.2158892,42.7082292 C60.3644714,43.8612716 59.9101759,45.2594494 59.921246,46.6927312 L60.0116224,58.3939864 C60.0398671,62.0509077 57.0982436,65.0383251 53.4413222,65.0665699 C52.7121816,65.0722015 51.9871175,64.9573626 51.2954039,64.7266898 L40.1947767,61.0248501 C38.8350656,60.5714133 37.3649344,60.5714133 36.0052233,61.0248501 Z"/>
  </defs>
  <g fill="none" fill-rule="evenodd">
    <rect width="36" height="36" fill="#FFF" opacity=".01"/>
    <g transform="translate(9 11)">
      <path fill="#FFEB43" d="M36.0052233,61.0248501 L24.9045961,64.7266898 C21.4353854,65.883603 17.6851709,64.0091155 16.5282577,60.5399047 C16.2975849,59.8481911 16.182746,59.123127 16.1883776,58.3939864 L16.278754,46.6927312 C16.2898241,45.2594494 15.8355286,43.8612716 14.9841108,42.7082292 L8.03316954,33.2948367 C5.8608346,30.3529271 6.48469819,26.2070127 9.42660785,24.0346777 C10.0131848,23.6015436 10.6672746,23.2682682 11.3624688,23.0483073 L22.5189516,19.5183736 C23.8855044,19.0859936 25.0748655,18.2218721 25.9083715,17.0558159 L32.7130807,7.53617975 C34.8397146,4.56106637 38.975498,3.87323789 41.9506114,5.99987183 C42.5438087,6.42389383 43.0628973,6.94298244 43.4869193,7.53617975 L50.2916285,17.0558159 C51.1251345,18.2218721 52.3144956,19.0859936 53.6810484,19.5183736 L64.8375312,23.0483073 C68.3241982,24.1514958 70.2563893,27.8723088 69.1532009,31.3589758 C68.93324,32.05417 68.5999646,32.7082598 68.1668305,33.2948367 L61.2158892,42.7082292 C60.3644714,43.8612716 59.9101759,45.2594494 59.921246,46.6927312 L60.0116224,58.3939864 C60.0398671,62.0509077 57.0982436,65.0383251 53.4413222,65.0665699 C52.7121816,65.0722015 51.9871175,64.9573626 51.2954039,64.7266898 L40.1947767,61.0248501 C38.8350656,60.5714133 37.3649344,60.5714133 36.0052233,61.0248501 Z"/>
      <path fill="#F3C422" d="M36.0052233,61.0248501 L24.9045961,64.7266898 C21.4353854,65.883603 17.6851709,64.0091155 16.5282577,60.5399047 C16.2975849,59.8481911 16.182746,59.123127 16.1883776,58.3939864 L16.2958087,44.4846112 L16.2958087,44.4846112 C17.0931827,58.9136814 19.9038131,64.3758371 24.7277,60.871078 C26.0558155,59.9061457 32.9915664,57.7516013 38.5113905,56.4878525 C42.3604759,55.6066149 49.9311506,60.4369803 53.130512,58.1966148 C56.2378364,56.0206987 54.9652633,46.6442348 56.7012694,43.2547413 C58.8878603,38.9854964 62.925334,34.6931271 63.63576,30.1658348 C64.2586287,26.1965141 60.2386192,22.4253182 51.5757313,18.852247 L64.8375312,23.0483073 C68.3241982,24.1514958 70.2563893,27.8723088 69.1532009,31.3589758 C68.93324,32.05417 68.5999646,32.7082598 68.1668305,33.2948367 L61.2158892,42.7082292 C60.3644714,43.8612716 59.9101759,45.2594494 59.921246,46.6927312 L60.0116224,58.3939864 C60.0398671,62.0509077 57.0982436,65.0383251 53.4413222,65.0665699 C52.7121816,65.0722015 51.9871175,64.9573626 51.2954039,64.7266898 L40.1947767,61.0248501 C38.8350656,60.5714133 37.3649344,60.5714133 36.0052233,61.0248501 Z"/>
      <use stroke="#603C24" stroke-width="3.4" xlink:href="#收藏备份-a"/>
    </g>
    <path stroke="#FFF" stroke-linecap="round" stroke-width="3.4" d="M41.4202412,28 C41.0108031,28.3435127 40.6124639,28.7132355 40.226233,29.1076544 M36.2381758,34.0648287 C35.2375273,35.8029348 34.4755475,37.7098653 34,39.735407" transform="rotate(-165 37.71 33.868)"/>
    <path stroke="#603C24" stroke-linecap="round" stroke-width="3.4" d="M39.2025255,50.03944 C41.1434132,52.8496409 43.84401,54.2547413 47.3043158,54.2547413 C50.7646217,54.2547413 53.4652184,52.8496409 55.4061062,50.03944"/>
  </g>
</svg>
