<svg xmlns="http://www.w3.org/2000/svg" xmlns:xlink="http://www.w3.org/1999/xlink" width="100" height="100" viewBox="0 0 100 100">
  <defs>
    <path id="客服备份-2-a" d="M8.55690451,30.9629084 L8.55690451,26.5090909 C8.55690451,23.3986379 9.0820701,20.4133063 10.046887,17.640327 M15.1782633,8.83162761 C15.7553594,8.17421654 16.3641536,7.54636333 17.0021948,6.95056827 M22.7312595,2.89080953 C26.2754612,1.0425434 30.2905302,-9.09494702e-13 34.5443062,-9.09494702e-13 C48.8967519,-9.09494702e-13 60.5317079,11.8685243 60.5317079,26.5090909 L60.5317079,30.9020316"/>
  </defs>
  <g fill="none" fill-rule="evenodd">
    <circle cx="52.5" cy="48.5" r="23" fill="#6DCCFF"/>
    <path fill="#2B9EDA" d="M52.5,71.5 C54.0490253,71.5 55.5622848,71.3468684 57.0254661,71.0549173 C67.5608838,68.952768 75.5,59.653524 75.5,48.5 C75.5,40.710387 71.6276044,33.8252204 65.7028554,29.6645424 C69.4462096,35.3868333 71.635737,40.7827504 71.635737,48.5 C71.635737,56.8469428 64.6111515,66.6729243 52.5,71.5 Z"/>
    <g transform="rotate(30 5.18 66.856)">
      <path stroke="#603C24" stroke-width="3.4" d="M61.781715,31.152413 C59.6503132,31.1578571 57.9237788,32.88426 57.9181723,35.0156613 L57.885497,47.437711 C57.8854793,47.4477522 57.8854793,47.4477522 57.8854962,47.4577934 C57.8909603,49.5970336 59.6295867,51.326801 61.7688269,51.3213369 L62.1691899,51.3203143 C64.3005917,51.3148702 66.0271261,49.5884673 66.0327326,47.457066 L66.0654079,35.0350163 C66.0654257,35.0249751 66.0654257,35.0249751 66.0654087,35.0149339 C66.0599446,32.8756937 64.3213182,31.1459263 62.182078,31.1513904 L61.781715,31.152413 Z" transform="rotate(5 61.975 41.236)"/>
      <polyline stroke="#603C24" stroke-linecap="round" stroke-linejoin="round" stroke-width="3.4" points="28.787 25.985 41.786 25.985 41.786 34.102 33.692 34.102 33.692 39.362"/>
      <line x1="34.417" x2="32.748" y1="46.902" y2="46.902" stroke="#603C24" stroke-linecap="round" stroke-width="5.141"/>
      <path stroke="#603C24" stroke-width="3.4" d="M6.90925929,31.1539151 C6.90522559,31.1539124 6.90522559,31.1539124 6.90119189,31.1539152 C4.76194587,31.1561761 3.02957716,32.8922105 3.03183808,35.0314565 L3.04496195,47.4490452 C3.04721954,49.5851414 4.77833962,51.3162078 6.91443587,51.3183991 L7.31706066,51.3188122 C7.32109436,51.3188149 7.32109436,51.3188149 7.32512806,51.318812 C9.46437408,51.3165511 11.1967428,49.5805167 11.1944819,47.4412707 L11.181358,35.0236821 C11.1791004,32.8875859 9.44798033,31.1565195 7.31188408,31.1543281 L6.90925929,31.1539151 Z" transform="rotate(-2 7.113 41.236)"/>
      <path stroke="#979797" stroke-linejoin="square" stroke-width="2.787" d="M9.95026695,30.9629084 L9.95026695,26.5090909 C9.95026695,23.6069521 10.4318498,20.7740442 11.3628688,18.0982033 L8.66215766,17.4854604 L7.17217522,30.8080419 L9.95026695,30.9629084 Z M16.2254047,9.75084129 C16.7720835,9.12808071 17.3487773,8.53332634 17.9531587,7.96896231 L17.0021948,6.95056827 L16.0018658,5.98061937 L14.1779344,7.86167871 L15.1782633,8.83162761 L16.2254047,9.75084129 Z M25.4453236,3.16777747 L59.1383455,28.1352781 L59.1383455,26.5090909 C59.1383455,12.6319265 48.1209522,1.39336243 34.5443062,1.39336243 C31.3829245,1.39336243 28.3088349,2.00239065 25.4453236,3.16777747 Z"/>
      <use stroke="#603C24" stroke-width="3.4" xlink:href="#客服备份-2-a"/>
    </g>
    <path stroke="#FFF" stroke-linecap="round" stroke-width="3.4" d="M40.9875603,30.8356615 C40.5781222,31.1791741 40.179783,31.548897 39.7935521,31.9433159 M35.8054949,36.9004902 C34.8048464,38.6385963 34.0428666,40.5455267 33.5673191,42.5710685"/>
  </g>
</svg>
