<svg xmlns="http://www.w3.org/2000/svg" width="100" height="100" viewBox="0 0 100 100">
  <g fill="none" fill-rule="evenodd">
    <g transform="translate(22 18)">
      <path fill="#65DEFF" d="M14.712,5.71702572 L46.288,5.71702572 C51.0995047,5.71702572 55,9.61752098 55,14.4290257 L55,53.7099448 L55,53.7099448 C53.9429156,57.334454 52.3537329,59.1922821 50.2324517,59.2834292 C48.1111706,59.3745763 44.1064302,57.7571075 38.2182305,54.4310229 C34.0389126,57.6766192 31.0082067,59.8626903 29.1261126,60.9892364 C27.2440186,62.1157824 25.6603144,62.6917122 24.375,62.7170257 L16.4883198,55.932203 C13.8994401,55.1197534 11.9873151,54.8478794 10.7519447,55.1165811 C9.51657424,55.3852827 7.93259269,56.4175841 6,58.2134853 L6,14.4290257 C6,9.61752098 9.90049526,5.71702572 14.712,5.71702572 Z"/>
      <path fill="#36BBDF" d="M55,7.4877511 C56.8172533,8.63149713 56.8172533,24.1321644 55,53.989753 C54.0008225,57.5016655 52.4986949,59.3017796 50.4936171,59.3900951 C48.4885393,59.4784107 44.7031778,57.9111892 39.1375326,54.6884305 C35.1871569,57.8332012 32.3224725,59.9513613 30.5434792,61.0429108 C28.7644859,62.1344603 27.2675367,62.6924986 26.0526316,62.7170257 L18.5979822,56.142976 C16.1509209,55.3557654 14.3435416,55.0923373 13.1758446,55.3526916 C12.0081475,55.6130459 10.5109362,56.6132785 8.68421053,58.3533894 C11.9272882,56.7731258 14.3383731,56.0363213 15.9174651,56.142976 C20.9065148,56.4799451 21.7041263,59.0362909 28.2802693,58.3533894 C31.7377107,57.9943503 42.1295464,55.4483001 47.6657454,48.3019534 C55,38.8346047 52.2741201,5.77213204 55,7.4877511 Z"/>
      <path stroke="#593A25" stroke-linecap="round" stroke-width="3.4" d="M0,12.6579203 L0,8.712 M8.712,0 L12.9302692,0 L12.9302692,0 L46.288,0 C51.0995047,0 55,3.90049526 55,8.712 L55,56.4263178 C55,59.1167096 52.8190065,61.2977031 50.1286147,61.2977031 C49.1146613,61.2977031 48.1259777,60.9813086 47.30041,60.3926326 L43.4105863,57.6189702 C41.1867016,56.0332158 38.1583902,56.2112771 36.1356686,58.0467273 L31.3728109,62.368621 C29.171385,64.3662302 25.8169721,64.3791609 23.600211,62.3985829 L18.6927635,58.0139956 C16.6589671,56.1968884 13.6347963,56.0396393 11.4235076,57.6360129 L7.60505193,60.3926326 C5.45693943,61.943398 2.45840639,61.4591525 0.907640949,59.31104 C0.31757759,58.4936872 0,57.5112183 0,56.5031308 L0,19.565637 L0,19.565637"/>
      <g fill="#593A25" transform="translate(19.368 14.545)">
        <path d="M11.8512882,0.047827926 L12.3222071,0.0488293636 C13.1212874,0.0505286564 13.7688149,0.697570861 13.7711134,1.49664962 L13.7961481,10.2002808 C13.7984547,11.0021949 13.1502447,11.6541447 12.3483306,11.6564512 C12.3459092,11.6564582 12.3434878,11.6564591 12.3410664,11.656454 L11.8701475,11.6554525 C11.0710672,11.6537532 10.4235397,11.006711 10.4212413,10.2076323 L10.3962065,1.5040011 C10.3938999,0.70208696 11.0421099,0.0501372424 11.844024,0.0478306493 C11.8464454,0.0478236845 11.8488668,0.0478227767 11.8512882,0.047827926 Z" transform="rotate(45 12.096 5.852)"/>
        <path d="M8.66384826,1.63504644 L9.15984826,1.63504644 C9.96176572,1.63504644 10.6118483,2.28512898 10.6118483,3.08704644 L10.6118483,17.2765899 C10.6118483,18.0785074 9.96176572,18.7285899 9.15984826,18.7285899 L8.66384826,18.7285899 C7.86193081,18.7285899 7.21184826,18.0785074 7.21184826,17.2765899 L7.21184826,3.08704644 C7.21184826,2.28512898 7.86193081,1.63504644 8.66384826,1.63504644 Z" transform="rotate(90 8.912 10.182)"/>
        <path d="M8.66384826,8.90777371 L9.15984826,8.90777371 C9.96176572,8.90777371 10.6118483,9.55785626 10.6118483,10.3597737 L10.6118483,24.5493172 C10.6118483,25.3512347 9.96176572,26.0013172 9.15984826,26.0013172 L8.66384826,26.0013172 C7.86193081,26.0013172 7.21184826,25.3512347 7.21184826,24.5493172 L7.21184826,10.3597737 C7.21184826,9.55785626 7.86193081,8.90777371 8.66384826,8.90777371 Z" transform="rotate(90 8.912 17.455)"/>
        <path d="M8.6710253,10.3199385 L9.1670253,10.3199385 C9.96894275,10.3199385 10.6190253,10.970021 10.6190253,11.7719385 L10.6190253,26.3224839 C10.6190253,27.1244014 9.96894275,27.7744839 9.1670253,27.7744839 L8.6710253,27.7744839 C7.86910784,27.7744839 7.2190253,27.1244014 7.2190253,26.3224839 L7.2190253,11.7719385 C7.2190253,10.970021 7.86910784,10.3199385 8.6710253,10.3199385 Z" transform="rotate(-180 8.919 19.047)"/>
        <path d="M5.40842023,0.0488293638 L5.87933934,0.0478279258 C6.68125499,0.0461226035 7.3327185,0.69482124 7.33442382,1.49673688 C7.33442897,1.49915829 7.33442806,1.5015797 7.33442109,1.5040011 L7.30938632,10.2076323 C7.30708789,11.006711 6.65956035,11.6537532 5.86048009,11.6554525 L5.38956098,11.656454 C4.58764533,11.6581593 3.93618182,11.0094607 3.9344765,10.207545 C3.93447135,10.2051236 3.93447226,10.2027022 3.93447923,10.2002808 L3.959514,1.49664962 C3.96181243,0.697570861 4.60933997,0.0505286565 5.40842023,0.0488293638 Z" transform="rotate(-45 5.634 5.852)"/>
      </g>
    </g>
    <path stroke="#FFF" stroke-linecap="round" stroke-width="3.4" d="M36.0995214,26.9744064 C35.8472276,26.9744064 35.6856328,27.0134033 35.5,27.1076544 M31.3710643,31.5041113 C31.3125986,31.6056651 31.1613262,32.19629 31.0954485,32.7842522 C31.0491751,34.2938767 31.0954485,36.9033666 31.0954485,37.3831274"/>
  </g>
</svg>
