<svg xmlns="http://www.w3.org/2000/svg" width="100" height="100" viewBox="0 0 100 100">
  <g fill="none" fill-rule="evenodd">
    <circle cx="53" cy="53" r="29" fill="#FF6372"/>
    <path fill="#ED3243" d="M53.8270943,81.6643385 C69.1103231,81.6643385 81.5,69.156606 81.5,53.7275359 C81.5,47.3871315 75.8821182,31.1695844 75.8821182,36.8515611 C77.4122696,44.3265606 78.8885237,58.0270003 67.546211,68.3172667 C53.6131543,79.8005162 37.56163,74.3699259 31.5,70.2354692 C36.5358537,77.1653726 44.6610453,81.6643385 53.8270943,81.6643385 Z"/>
    <path stroke="#603C24" stroke-linecap="round" stroke-width="3.4" d="M38.3814878,21.6382032 C37.856852,21.815065 37.227173,22.1033109 36.7784409,22.3191016 C36.3297089,22.5348924 35.9182072,22.8055743 35.5,23 M22.9841578,35.7075209 C20.7581647,39.984263 19.5,44.8452015 19.5,50 C19.5,67.1208272 33.3791728,81 50.5,81 L50.5,81 C67.6208272,81 81.5,67.1208272 81.5,50 C81.5,32.8791728 67.6208272,19 50.5,19 C49.1574393,19 47.8348122,19.0853458 46.5372481,19.2509079"/>
    <path stroke="#603C24" stroke-width="3.4" d="M55.2218531,40.9139052 L64.7169563,56.9825414 C65.2788831,57.9334946 64.963515,59.1599262 64.0125618,59.7218531 C63.7044086,59.9039436 63.3530353,60 62.9951032,60 L44.0048968,60 C42.9003273,60 42.0048968,59.1045695 42.0048968,58 C42.0048968,57.642068 42.1009532,57.2906946 42.2830437,56.9825414 L51.7781469,40.9139052 C52.3400738,39.962952 53.5665054,39.6475839 54.5174586,40.2095107 C54.807909,40.3811405 55.0502233,40.6234548 55.2218531,40.9139052 Z" transform="rotate(90 53.5 49)"/>
    <path stroke="#FFF" stroke-linecap="round" stroke-width="3.4" d="M38.9875603,29.3356615 C38.5781222,29.6791741 38.179783,30.048897 37.7935521,30.4433159 M33.8054949,35.4004902 C32.8048464,37.1385963 32.0428666,39.0455267 31.5673191,41.0710685" transform="rotate(9 35.277 35.203)"/>
  </g>
</svg>
