<svg xmlns="http://www.w3.org/2000/svg" width="100" height="100" viewBox="0 0 100 100">
  <g fill="none" fill-rule="evenodd">
    <path fill="#FF885C" d="M28.4768704,37.5780281 C27.9878004,38.6589076 27.5580098,39.7733925 27.2056153,40.9218109 C26.4218188,43.4761256 26,46.1888023 26,49 C26,64.1878306 38.3121694,76.5 53.5,76.5 C68.6878306,76.5 81,64.1878306 81,49 C81,33.8121694 68.6878306,21.5 53.5,21.5 C50.6672306,21.5 47.9345,21.9283172 45.3630374,22.7237226 C39.7790959,24.4509486 37.1299701,26.7643202 34.8047914,28.9373567 C32.6566474,30.9449423 30.5537308,32.9880187 28.4768704,37.5780281 Z"/>
    <path fill="#F2571D" d="M34,68.9412911 C38.9914545,73.6272608 45.7233853,76.5 53.1301591,76.5 C68.5222445,76.5 81,64.0939657 81,48.7903468 C81,42.2503545 78.7212147,36.2395409 74.9100378,31.5 C76.9120485,42.8981602 77.0765407,52.4923432 66.4704193,62.6076097 C56.8621554,71.7711999 44.6702354,71.9857044 34,68.9412911 Z" opacity=".8"/>
    <g stroke="#603C24" stroke-width="3.4" transform="translate(9 16)">
      <circle cx="40.472" cy="15.318" r="5.106"/>
      <circle cx="26.856" cy="32.337" r="5.106"/>
      <circle cx="57.492" cy="28.934" r="5.106"/>
      <circle cx="43.876" cy="45.953" r="5.106"/>
      <path stroke-linecap="round" d="M34.1382998,60.2062103 C36.6992999,60.9005089 39.3934986,61.270992 42.1742283,61.270992 C59.0937456,61.270992 72.8097243,47.5550132 72.8097243,30.635496 C72.8097243,13.7159788 59.0937456,0 42.1742283,0 C25.2547111,0 11.5387323,13.7159788 11.5387323,30.635496 C11.5387323,35.064457 12.4785737,39.2739062 14.1696984,43.0752856 C18.3075963,52.1458559 7.92026698,60.7534106 -8.8817842e-14,52.9714312"/>
    </g>
    <path stroke="#FFF" stroke-linecap="round" stroke-width="3.4" d="M45.5000045,26 C44.951439,26.1937433 44.4044738,26.4176203 43.8607105,26.6704889 M37.9155899,30.1626802 C36.2392375,31.5313093 34.7447818,33.1546501 33.5000045,35"/>
  </g>
</svg>
