<svg xmlns="http://www.w3.org/2000/svg" width="100" height="100" viewBox="0 0 100 100">
  <g fill="none" fill-rule="evenodd" transform="translate(19 20)">
    <path fill="#69FFC6" d="M12.6831189,8 L11.7058824,8 C8.0023258,8 5,10.9462552 5,14.5806452 L5,52.4193548 C5,56.0537448 8.0023258,59 11.7058824,59 L55.2941176,59 C58.9976742,59 62,56.0537448 62,52.4193548 L62,46.1041306 C56.4450193,43.3191871 53.3649291,37.868918 53.3649291,32.683367 C53.3649291,27.497816 56.4450193,20.4157489 62,16.5419614 L62,14.5806452 C62,10.9462552 58.9976742,8 55.2941176,8 L27.6236341,8"/>
    <path fill="#46E1A6" d="M53.3649291,25.5012588 C51.9012773,31.5472242 51.3894501,35.8037441 51.8294473,38.2708185 C52.6654968,42.9585668 53.8521946,44.6556413 53.3649291,47.536618 C52.4601757,52.8860087 46.8044312,53.8316732 43.5262732,54.254459 C34.8199998,55.3773119 8.0023258,59 11.7058824,59 L55.2941176,59 C58.9976742,59 62,56.0537448 62,52.4193548 L62,46.1041306 C56.4450193,43.3191871 53.3649291,37.868918 53.3649291,32.683367 C53.3649291,27.497816 56.4450193,20.4157489 62,16.5419614 L62,14.5806452 C62,12.1577185 59.121643,15.7979231 53.3649291,25.5012588 Z"/>
    <path stroke="#603C24" stroke-linecap="round" stroke-linejoin="round" stroke-width="3.4" d="M8.41422833,2.672 L7.344,2.672 C3.2880208,2.672 0,5.9600208 0,10.016 L0,52.244 C0,56.2999792 3.2880208,59.588 7.344,59.588 L55.08,59.588 C59.1359792,59.588 62.424,56.2999792 62.424,52.244 L62.424,45.1962097 C56.340419,42.0882128 52.967234,36.0057125 52.967234,30.2186376 C52.967234,24.4315627 56.340419,19.5642122 62.424,15.2410654 L62.424,10.016 C62.424,5.9600208 59.1359792,2.672 55.08,2.672 L24.7764515,2.672 M15.0220032,2.672 L15.0220032,2.672"/>
    <rect width="4" height="29.376" x="14.688" y="20.76" fill="#603C24" rx="2"/>
    <rect width="4" height="3.672" x="14.688" y="13.688" fill="#FFF" rx="1.836"/>
  </g>
</svg>
