<svg xmlns="http://www.w3.org/2000/svg" width="100" height="100" viewBox="0 0 100 100">
  <g fill="none" fill-rule="evenodd" transform="translate(16 21)">
    <path fill="#FFCF43" fill-rule="nonzero" d="M49.6274125,57.8840657 L16.1845671,57 L16.1845671,57 L6.20963701,22 C5.56112043,19.596129 18.1535474,25.3911686 20.790453,22.4119796 C23.4273587,19.4327907 31.838755,8.0198909 33.997049,5.9470466 C36.155343,3.87420229 40.8427783,9.96500506 45.3900872,14.0382112 C46.0039566,14.5880786 46.6148211,18.2363545 50.1031504,18.370679 C52.3523256,18.4572877 56.4555171,18.015505 62.4127248,17.045331 C63.013129,17.045331 66.012255,18.521934 65.4707412,22 C64.9204916,25.5341742 61.5822073,36.1504437 55.4558882,53.8488084 C54.6003034,56.3205289 52.2421114,57.9531855 49.6274125,57.8840657 Z"/>
    <path stroke="#FFF" stroke-linecap="round" stroke-width="3.4" d="M27.9202412,17 C27.5108031,17.3435127 27.1124639,17.7132355 26.726233,18.1076544 M22.7381758,23.0648287 C21.7375273,24.8029348 20.9755475,26.7098653 20.5,28.735407" transform="rotate(-165 24.21 22.868)"/>
    <path fill="#EAAA2D" fill-rule="nonzero" d="M49.6274125,57.8840657 L16.1845671,57 L16.1845671,57 C29.7810319,56.8216288 40.2454048,54.4269407 47.5776858,49.8159355 C54.9099668,45.2049303 59.8549798,34.2813954 62.4127248,17.045331 C63.013129,17.045331 66.012255,18.521934 65.4707412,22 C64.9204916,25.5341742 61.5822073,36.1504437 55.4558882,53.8488084 C54.6003034,56.3205289 52.2421114,57.9531855 49.6274125,57.8840657 Z"/>
    <path stroke="#593A25" stroke-width="3.4" d="M6.16273735,16.9330064 L16.3106931,18.8699039 C17.7847875,19.151258 19.2923466,18.5838389 20.2151004,17.4003525 L30.599362,4.08192129 C31.9577181,2.33974911 34.4711929,2.02860467 36.213365,3.38696074 C36.4817926,3.5962513 36.7224088,3.83894779 36.9293809,4.10916702 L47.0964564,17.383126 C48.010736,18.5767938 49.5171783,19.156918 50.9959274,18.8847951 L61.6848198,16.9177994 C63.8574774,16.5179817 65.9428806,17.9551524 66.3426983,20.1278099 C66.4531498,20.7280166 66.4247984,21.3455387 66.2598146,21.9330997 L57.0455358,54.7481514 C56.5609052,56.4740791 54.9871527,57.6667955 53.194475,57.6667955 L13.6861575,57.6667955 C11.8537724,57.6667955 10.2556998,56.4217176 9.80760341,54.6449664 L1.53425777,21.8402499 C0.994028912,19.6981837 2.2925747,17.5237538 4.43464097,16.983525 C5.00010338,16.8409154 5.58990973,16.8236732 6.16273735,16.9330064 Z"/>
    <path fill="#593A25" fill-rule="nonzero" d="M35.0048785,47.5 C33.6974404,47.5 32.5070864,46.7738929 31.8826383,45.6101322 L24.711243,32.1423376 C24.2526639,31.276977 24.564888,30.1927897 25.413747,29.7252961 C26.2626061,29.2578025 27.3261191,29.576096 27.7846981,30.4414565 L34.9560935,43.8993045 L42.2153019,30.4315099 C42.6738809,29.5661494 43.7373939,29.2478558 44.586253,29.7153494 C45.435112,30.1828431 45.7473361,31.2670304 45.288757,32.1323909 L38.1173617,45.6001855 C37.5026706,46.7738929 36.3025596,47.5 35.0048785,47.5 L35.0048785,47.5 Z"/>
  </g>
</svg>
