<svg xmlns="http://www.w3.org/2000/svg" width="100" height="100" viewBox="0 0 100 100">
  <g fill="none" fill-rule="evenodd">
    <g transform="translate(21 21)">
      <path fill="#7FB5FF" d="M8.34176838,21.2010447 C7.87937492,22.2229672 7.47302743,23.276662 7.13985449,24.3624393 C6.39881045,26.7774278 6,29.3421403 6,32 C6,46.3594035 17.6405965,58 32,58 C46.3594035,58 58,46.3594035 58,32 C58,17.6405965 46.3594035,6 32,6 C29.3217453,6 26.7380727,6.40495447 24.3068717,7.1569741 C19.0275089,8.78998773 16.5228808,10.9771755 14.3245301,13.0316827 C12.2935575,14.9297637 10.3053454,16.8613995 8.34176838,21.2010447 Z"/>
      <path fill="#4894FB" d="M14.1533168,50.9076546 C18.8098858,55.3045054 25.0901597,58 32,58 C46.3594035,58 58.0000045,46.3594035 58.0000045,32 C58.0000045,25.8635176 55.8741069,20.2235642 52.3186285,15.7764474 C54.1863209,26.4713545 54.3397769,35.4735875 44.4452388,44.964754 C35.4816102,53.5629613 24.1076674,53.7642312 14.1533168,50.9076546 Z" opacity=".8"/>
      <path stroke="#603C24" stroke-linecap="round" stroke-width="3.4" d="M11.1943263,6.05711383 C10.5815459,6.53277332 9.98841731,7.03254593 9.41636455,7.55500777 M2.60296562,16.8965458 C0.931508918,20.5524242 0,24.6174293 0,28.9 C0,44.8610293 12.9389707,57.8 28.9,57.8 L28.9,57.8 C44.8610293,57.8 57.8,44.8610293 57.8,28.9 C57.8,12.9389707 44.8610293,0 28.9,0 C25.9230169,0 23.0511655,0.45012247 20.348792,1.28602121"/>
      <line x1="28.9" x2="28.9" y1="13.6" y2="34" stroke="#603C24" stroke-linecap="round" stroke-width="3.4"/>
      <line x1="41.263" x2="28.9" y1="34" y2="34" stroke="#603C24" stroke-linecap="round" stroke-width="3.4"/>
    </g>
    <path stroke="#FFF" stroke-linecap="round" stroke-width="3.4" d="M39.4202412,27 C39.0108031,27.3435127 38.6124639,27.7132355 38.226233,28.1076544 M34.2381758,33.0648287 C33.2375273,34.8029348 32.4755475,36.7098653 32,38.735407" transform="rotate(20 35.71 32.868)"/>
  </g>
</svg>
