<svg xmlns="http://www.w3.org/2000/svg" xmlns:xlink="http://www.w3.org/1999/xlink" width="58" height="59" viewBox="0 0 58 59">
  <defs>
    <ellipse id="nan_2-a" cx="27.5" cy="27.477" rx="27.5" ry="27.477"/>
  </defs>
  <g fill="none" fill-rule="evenodd" transform="matrix(-1 0 0 1 56.5 2)">
    <mask id="nan_2-b" fill="#fff">
      <use xlink:href="#nan_2-a"/>
    </mask>
    <ellipse cx="27.5" cy="27.477" stroke="#2D2D35" stroke-width="1.12" rx="28.06" ry="28.037"/>
    <path stroke="#363636" stroke-linecap="round" stroke-linejoin="bevel" stroke-width="1.12" d="M39.8469388,34.7663551 L39.6811433,34.7663551 L16.8367347,34.7663551 C15.9068675,34.7663551 15.1530612,34.2016146 15.1530612,33.5049718 L13.4693878,11.888677 C13.2799418,7.76791993 15.368658,6.17499869 20.2775501,6.17499869 C24.4345112,6.15975631 24.6043587,6.17499869 27.1124207,6.17499869 C34.8613138,6.17499869 41.6384106,11.888677 41.5306122,20.280638 L41.5306122,27.6619863" mask="url(#nan_2-b)"/>
    <path fill="#91CEFF" d="M19.0767347,17.9439252 L36.4844898,17.9439252 C37.7216076,17.9439252 38.7244898,18.9468074 38.7244898,20.1839252 L38.7244898,31.691215 C38.7244898,35.4025685 35.7158433,38.411215 32.0044898,38.411215 L23.5567347,38.411215 C19.8453812,38.411215 16.8367347,35.4025685 16.8367347,31.691215 L16.8367347,20.1839252 C16.8367347,18.9468074 17.8396169,17.9439252 19.0767347,17.9439252 Z" mask="url(#nan_2-b)"/>
    <path stroke="#2D2D35" stroke-width="1.12" d="M13.8118857,23.5514019 C20.5559297,24.6989045 25.4223442,23.0761317 28.4111291,18.6830836 C29.7350532,16.7371214 32.9566572,15.851905 35.3571429,17.6003689 C38.0139392,19.3018373 37.988946,23.5605998 40.6136527,24.005847" mask="url(#nan_2-b)"/>
    <ellipse cx="23.852" cy="24.673" fill="#91CEFF" stroke="#2D2D35" stroke-width=".896" mask="url(#nan_2-b)" rx="1.122" ry="1.121"/>
    <ellipse cx="34.235" cy="24.673" fill="#91CEFF" stroke="#2D2D35" stroke-width=".896" mask="url(#nan_2-b)" rx="1.122" ry="1.121"/>
    <ellipse cx="13.469" cy="22.991" fill="#91CEFF" mask="url(#nan_2-b)" rx="1.684" ry="1.682"/>
    <path stroke="#2D2D35" stroke-linecap="round" stroke-width="1.12" d="M15.368658,21.7943216 C14.9709836,21.1653763 14.2690082,20.7476636 13.4693878,20.7476636 C12.2295648,20.7476636 11.2244898,21.7518847 11.2244898,22.9906542 C11.2244898,24.2294237 12.2295648,25.2336449 13.4693878,25.2336449 L13.4693878,25.2336449 C13.7399127,25.2336449 13.9992615,25.1858342 14.2394315,25.0982084" mask="url(#nan_2-b)"/>
    <ellipse cx="41.531" cy="25.234" fill="#91CEFF" mask="url(#nan_2-b)" rx="1.684" ry="1.682"/>
    <path stroke="#2D2D35" stroke-linecap="round" stroke-width="1.12" d="M43.7094883,24.0373786 C43.3117154,23.407997 42.6098606,22.9898084 41.8105798,22.9894685 C40.5712836,22.988942 39.5670625,23.9931632 39.567589,25.2324594 C39.5681159,26.4717556 40.5731909,27.4768307 41.8124872,27.4773576 L41.8124872,27.4773576 C42.0828972,27.4774723 42.3421154,27.4297514 42.5821462,27.3421904" mask="url(#nan_2-b)" transform="rotate(135 41.639 25.233)"/>
    <ellipse cx="27.5" cy="55.514" fill="#91CEFF" mask="url(#nan_2-b)" rx="15.995" ry="15.981"/>
    <path fill="#FFF" stroke="#363636" stroke-width="1.12" d="M34.0310767,40.0802117 C39.6089748,42.5762159 43.494898,48.1711391 43.494898,54.6728972 C43.494898,63.4991301 36.3337382,70.6542056 27.5,70.6542056 C18.6662618,70.6542056 11.505102,63.4991301 11.505102,54.6728972 C11.505102,48.221185 15.3314333,42.662401 20.840421,40.1383989 C21.0612103,40.1013696 21.3564912,40.050294 21.4020127,40.2197079 C21.8666081,43.1667756 24.4198804,45.4205607 27.5,45.4205607 C30.6029667,45.4205607 33.1790418,43.1905653 33.6167032,40.2197079 C33.6332,40.1077272 33.793092,40.0831127 33.9721418,40.081338 Z" mask="url(#nan_2-b)"/>
    <path stroke="#2D2D35" stroke-linecap="round" stroke-width=".896" d="M27.5,34.1402979 C28.8539758,35.3351298 30.127844,35.3351298 31.3216043,34.1402979" mask="url(#nan_2-b)"/>
    <path stroke="#2D2D35" stroke-linecap="round" stroke-width=".896" d="M28.1585852,24.2069542 L28.1585852,29.0375503 C28.1585852,29.3468298 28.4093058,29.5975503 28.7185852,29.5975503 L30.4864969,29.5975503 L30.4864969,29.5975503" mask="url(#nan_2-b)" transform="matrix(-1 0 0 1 58.645 0)"/>
  </g>
</svg>
