<svg xmlns="http://www.w3.org/2000/svg" width="16" height="16" viewBox="0 0 16 16">
  <rect width="16" height="16" opacity="0"/>
  <path d="M8.465,4.86932813 L4.43667188,0.855 C4.28267188,0.931671875 4.13132812,1.012 3.984,1.09734375 C3.39067187,1.437 2.83165625,1.85667187 2.32665625,2.35967188 C2.10832812,2.576 1.91,2.803 1.725,3.035 C1.27,3.60567188 0.904328125,4.224 0.628671875,4.87067188 C0.628671875,4.87067188 8.222,4.83067188 8.465,4.86932813 Z M6.12067188,5.44 L0.423328125,5.44 C0.368328125,5.59932813 0.319671875,5.76367188 0.274328125,5.929 C0.096671875,6.586 0,7.27634375 0,7.99 C0,8.295 0.019,8.59532813 0.053671875,8.89067188 C0.135671875,9.61532813 0.317,10.309 0.582,10.9596719 C0.582,10.9596719 5.92132812,5.582 6.12067188,5.44 Z M15.16,4.413 C15.0843281,4.262 15.0036719,4.111 14.918,3.96267188 C14.576,3.37332813 14.156,2.81567188 13.6496719,2.31232813 C13.4333281,2.097 13.2063281,1.89732813 12.9723281,1.71267188 C12.3993281,1.25967188 11.7796719,0.895 11.1306719,0.621 C11.1306719,0.621 11.171,8.18567188 11.1306719,8.42667188 L15.16,4.413 Z M10.5713281,6.099 L10.5713281,0.423 C10.4103281,0.368671875 10.2453281,0.319 10.08,0.273 C9.42132813,0.097 8.728,0 8.01132813,0 C7.705,0 7.404,0.019 7.107,0.053328125 C6.38067187,0.135328125 5.68434375,0.316671875 5.02934375,0.579 C5.02934375,0.579 10.4263281,5.901 10.5713281,6.099 Z M4.86167188,7.53265625 L0.834671875,11.5470156 C0.909328125,11.7006875 0.991671875,11.8496719 1.07667188,11.9983438 C1.417,12.5886875 1.83832813,13.1463437 2.345,13.6500156 C2.561,13.8656875 2.78832812,14.0636875 3.02234375,14.2496875 C3.59532812,14.7036875 4.21367187,15.0666875 4.864,15.3403438 C4.864,15.3400156 4.82267188,7.77534375 4.86165625,7.53265625 L4.86167188,7.53265625 Z M7.496,11.1606719 L11.5253281,15.175 C11.6784694,15.0982867 11.8295238,15.0174763 11.9783281,14.9326563 C12.5686719,14.5936719 13.1273281,14.175 13.6346719,13.6696719 C13.85,13.4546719 14.0493281,13.229 14.236,12.9953281 C14.69,12.4243281 15.0566719,11.808 15.3313281,11.16 C15.3306719,11.16 7.73932812,11.2013281 7.496,11.1606719 L7.496,11.1606719 Z M15.946,7.11234375 C15.863,6.38867188 15.683,5.69432813 15.4183438,5.04265625 C15.4183438,5.04265625 10.078,10.42 9.87834375,10.5636719 L15.5756719,10.5636719 C15.6299332,10.4019465 15.6793976,10.2386511 15.724,10.074 C15.9026719,9.41634375 16,8.728 16,8.014 C16,7.70867188 15.9803281,7.408 15.946,7.11232813 L15.946,7.11234375 Z M5.429,9.9 L5.429,15.5766719 C5.59067187,15.6313281 5.755,15.6806719 5.92,15.725 C6.57967187,15.904 7.272,16 7.98867187,16 C8.294,16 8.59567187,15.981 8.89132812,15.9463281 C9.61867187,15.864 10.314,15.685 10.968,15.4213281 C10.969,15.4213281 5.57267187,10.1 5.429,9.9 Z"/>
</svg>
