<?xml version="1.0" encoding="UTF-8"?>
<svg width="36px" height="36px" viewBox="0 0 36 36" version="1.1" xmlns="http://www.w3.org/2000/svg" xmlns:xlink="http://www.w3.org/1999/xlink">
    <!-- Generator: Sketch 59.1 (86144) - https://sketch.com -->
    <title>作品集</title>
    <desc>Created with Sketch.</desc>
    <g id="页面-1" stroke="none" stroke-width="1" fill="none" fill-rule="evenodd">
        <g id="5.我的-普通用户备份-2" transform="translate(-16.000000, -316.000000)">
            <g id="作品集" transform="translate(16.000000, 316.000000)">
                <rect id="矩形复制-20" fill="#FFFFFF" opacity="0.00999999978" x="0" y="0" width="36" height="36"></rect>
                <g id="编组-8" transform="translate(7.000000, 9.500000)" stroke-width="1.5">
                    <circle id="椭圆形" stroke="#454545" cx="11.0218563" cy="4.1715" r="1.3905"></circle>
                    <circle id="椭圆形备份" stroke="#454545" cx="7.31385629" cy="8.8065" r="1.3905"></circle>
                    <circle id="椭圆形备份-2" stroke="#454545" cx="15.6568563" cy="7.8795" r="1.3905"></circle>
                    <circle id="椭圆形备份-3" stroke="#FFE150" cx="11.9488563" cy="12.5145" r="1.3905"></circle>
                    <path d="M9.2969226,16.3960268 C9.99436272,16.5851059 10.728077,16.686 11.4853563,16.686 C16.093068,16.686 19.8283563,12.9507117 19.8283563,8.343 C19.8283563,3.73528833 16.093068,0 11.4853563,0 C6.87764463,0 3.14235629,3.73528833 3.14235629,8.343 C3.14235629,9.54914406 3.39830439,10.6955082 3.85885034,11.7307423 C4.98572884,14.2009411 2.15693545,16.5450464 -8.8817842e-14,14.425771" id="路径" stroke="#454545" stroke-linecap="round"></path>
                </g>
            </g>
        </g>
    </g>
</svg>