<?xml version="1.0" encoding="UTF-8"?>
<svg width="200px" height="200px" viewBox="0 0 200 200" version="1.1" xmlns="http://www.w3.org/2000/svg" xmlns:xlink="http://www.w3.org/1999/xlink">
    <!-- Generator: Sketch 59.1 (86144) - https://sketch.com -->
    <title>编组 22</title>
    <desc>Created with Sketch.</desc>
    <g id="页面1" stroke="none" stroke-width="1" fill="none" fill-rule="evenodd">
        <g id="编组-22">
            <circle id="椭圆形" fill="#3C86FF" cx="100" cy="100" r="100"></circle>
            <g id="编组-16" transform="translate(34.000000, 34.000000)" stroke="#FFFFFF">
                <path d="M56.1407745,123.530046 C56.6503872,123.589907 58.2081777,123.687385 58.9247013,123.71518 C61.3098068,123.807704 64.2671733,123.879367 66.2087282,123.879367 C85.4392726,123.879367 103.729971,120.79161 116.190068,109.037726 C128.650166,97.2838426 132.743392,80.3281545 132.743392,61.7271936 C132.743392,45.9706207 130.294783,30.5382454 121.03397,18.1858704 C110.505681,4.14289397 88.2744953,-0.544071662 66.2087282,0.0493108773 C42.2510154,0.693570754 28.5190097,3.327963 14.1808302,16.453687 C3.07543528,26.6199949 1.42108547e-14,44.2147895 1.42108547e-14,61.7271936 C1.42108547e-14,76.0441437 2.03259906,89.8178229 9.30082827,100.809075 C14.8815884,109.248482 24.2315759,115.337221 33.2106685,118.955137" id="路径" stroke-width="10" stroke-linejoin="bevel"></path>
                <path d="M32.4286092,117.6269 C34.3271296,135.583274 35.5494918,144.561461 36.095696,144.561461 C37.7070764,144.561461 44.6954572,137.31845 57.0608384,122.832429" id="直线-3" stroke-width="6" stroke-linecap="square"></path>
            </g>
            <g id="编组-21" transform="translate(58.000000, 48.000000)">
                <path d="M28.5777688,34.2502856 C25.707197,38.8391251 23.7391786,42.3433867 22.6737134,44.7630703 C21.6082483,47.1827539 20.488494,50.4808904 19.3144505,54.6574797 C15.1339384,53.6057143 11.938633,53.0576316 9.72853428,53.0132314 C7.51843557,52.9688313 4.27559081,53.3875738 0,54.2694589 C1.93146963,48.1438186 5.59122611,43.2650763 10.9792694,39.6332319 C16.3673128,36.0013875 22.2334792,34.207072 28.5777688,34.2502856 Z" id="矩形" fill="#FFFFFF"></path>
                <path d="M61.8985279,68.0566325 C59.0279561,72.645472 57.0599377,76.1497336 55.9944725,78.5694172 C54.9290074,80.9891008 53.8092531,84.2872373 52.6352096,88.4638266 C48.4546975,87.4120612 45.2593921,86.8639785 43.0492934,86.8195783 C40.8391947,86.7751782 37.5963499,87.1939207 33.3207591,88.0758058 C35.2522287,81.9501655 38.9119852,77.0714232 44.3000286,73.4395788 C49.6880719,69.8077344 55.5542383,68.0134189 61.8985279,68.0566325 Z" id="矩形备份-25" fill="#FFFFFF" transform="translate(47.609643, 78.259848) scale(-1, 1) rotate(-90.000000) translate(-47.609643, -78.259848) "></path>
                <path d="M74.3332081,7 C78.1780274,10.4100446 81.0220228,13.2023383 82.8651944,15.376881 C84.7083659,17.5514237 86.8340994,20.6805583 89.2423948,24.7642848 C84.228803,26.3352744 79.7624527,27.2450434 75.8433439,27.4935916 C71.9242351,27.7421399 67.3731014,27.4623581 62.1899428,26.6542464 C63.8406045,22.6326495 65.5651497,19.1503367 67.3635785,16.207308 C69.1620072,13.2642794 71.4852171,10.1951767 74.3332081,7 Z" id="三角形" fill="#FFFFFF" transform="translate(75.716169, 17.290644) rotate(49.000000) translate(-75.716169, -17.290644) "></path>
                <polygon id="矩形" fill="#FFFFFF" points="17.4805174 64.8499935 21.5803316 69.0717691 4.36376065 86.2671524 3.58053124 85.5622716"></polygon>
                <polygon id="矩形备份-26" fill="#FFFFFF" points="23.2750715 70.7733431 27.2467465 74.8288507 6.69478926 88.6548276 5.88812162 87.7744442"></polygon>
                <path d="M20.3207591,61.8643919 C20.6398755,58.3277962 22.0310376,53.2919407 24.4942454,46.7568254 C27.1127675,39.809647 31.7360481,33.4710157 35.7269093,29.2440083 C42.3763695,22.2010879 49.5751062,17.1383752 57.3231195,14.0558703 C59.5947224,18.1960036 62.4867865,21.9923169 65.9993119,25.4448103 C69.5118373,28.8973036 73.4935744,32.1331877 77.944523,35.1524627 C72.9304694,45.077264 67.6194735,52.3560379 62.0115354,56.9887844 C58.4963971,59.8926582 52.9946597,64.1352591 45.6412352,67.4273654 C42.7225742,68.7340412 37.6547362,70.2927084 30.437721,72.103367 C29.0640587,70.1624995 27.4299943,68.2615628 25.5355277,66.4005571 C23.6410612,64.5395513 21.902805,63.0274963 20.3207591,61.8643919 Z" id="矩形" fill="#FFFFFF"></path>
                <circle id="椭圆形" fill="#2B75F0" cx="56.8207591" cy="35.5558703" r="7"></circle>
            </g>
        </g>
    </g>
</svg>