<?xml version="1.0" encoding="UTF-8"?>
<svg width="30px" height="31px" viewBox="0 0 30 31" version="1.1" xmlns="http://www.w3.org/2000/svg" xmlns:xlink="http://www.w3.org/1999/xlink">
    <!-- Generator: Sketch 54.1 (76490) - https://sketchapp.com -->
    <title>钱包@1.5x</title>
    <desc>Created with Sketch.</desc>
    <g id="正传（界面）" stroke="none" stroke-width="1" fill="none" fill-rule="evenodd">
        <g id="5.我的-登陆后" transform="translate(-280.000000, -360.000000)">
            <g id="钱包" transform="translate(279.500000, 360.000000)">
                <rect id="矩形复制-17" fill="#FFFFFF" opacity="0.00999999978" x="0.5" y="0.5" width="30" height="30"></rect>
                <path d="M12,7.57391444 L22,7.57391444 C23.6568542,7.57391444 25,8.91706019 25,10.5739144 L25,23.5589776 C24.6548296,24.7661975 24.1359128,25.3849867 23.4432495,25.4153452 C22.7505863,25.4457037 21.442916,24.9069713 19.5202385,23.799148 C18.1555633,24.8801629 17.165945,25.6082804 16.5513837,25.9835006 C15.9368224,26.3587207 15.4196945,26.5505464 15,26.5589776 L12.4247575,24.299148 C11.579409,24.0285444 10.9550417,23.9379909 10.5516554,24.0274877 C10.1482691,24.1169845 9.63105067,24.4608145 9,25.0589776 L9,10.5739144 C9,8.91706019 10.3431458,7.57391444 12,7.57391444 Z" id="矩形" fill="#F9C11B"></path>
                <path d="M9,5.5 C7.61928813,5.5 6.5,6.61928813 6.5,8 L6.5,24.4124318 C6.5,24.6550984 6.57615639,24.8916461 6.71773441,25.0887317 C7.0912445,25.6086815 7.81553688,25.7273944 8.33548673,25.3538843 L9.6629678,24.4002778 C10.6127538,23.7179915 11.9086205,23.7853009 12.7826079,24.5623171 L14.4930091,26.0829446 C15.0646673,26.5911757 15.9271824,26.5878526 16.4949074,26.0752318 L18.1551641,24.5761217 C19.0244328,23.7912254 20.3220861,23.715006 21.2772644,24.392741 L22.6294772,25.352187 C22.829844,25.4943548 23.0694486,25.5707236 23.3151283,25.5707236 C23.9695149,25.5707236 24.5,25.0402385 24.5,24.385852 L24.5,8 C24.5,6.61928813 23.3807119,5.5 22,5.5 L9,5.5 Z" id="矩形" stroke="#593A25"></path>
                <g id="编组-7" transform="translate(11.000000, 10.000000)" fill="#593A25">
                    <path d="M5.78727603,0.0116734509 L5.78727603,0.0116734509 C6.06341841,0.0116734509 6.28727603,0.235531076 6.28727603,0.511673451 L6.28727603,3.51167345 C6.28727603,3.78781583 6.06341841,4.01167345 5.78727603,4.01167345 L5.78727603,4.01167345 C5.51113366,4.01167345 5.28727603,3.78781583 5.28727603,3.51167345 L5.28727603,0.511673451 C5.28727603,0.235531076 5.51113366,0.0116734509 5.78727603,0.0116734509 Z" id="矩形" transform="translate(5.787276, 2.011673) rotate(-315.000000) translate(-5.787276, -2.011673) "></path>
                    <path d="M4.68475419,0.547478853 L4.68475419,0.547478853 C4.96089657,0.547478853 5.18475419,0.771336478 5.18475419,1.04747885 L5.18475419,5.95252115 C5.18475419,6.22866352 4.96089657,6.45252115 4.68475419,6.45252115 L4.68475419,6.45252115 C4.40861182,6.45252115 4.18475419,6.22866352 4.18475419,5.95252115 L4.18475419,1.04747885 C4.18475419,0.771336478 4.40861182,0.547478853 4.68475419,0.547478853 Z" id="矩形复制-9" transform="translate(4.684754, 3.500000) rotate(-270.000000) translate(-4.684754, -3.500000) "></path>
                    <path d="M4.68475419,2 L4.68475419,2 C4.96089657,2 5.18475419,2.22385763 5.18475419,2.5 L5.18475419,9.5 C5.18475419,9.77614237 4.96089657,10 4.68475419,10 L4.68475419,10 C4.40861182,10 4.18475419,9.77614237 4.18475419,9.5 L4.18475419,2.5 C4.18475419,2.22385763 4.40861182,2 4.68475419,2 Z" id="矩形复制-10" transform="translate(4.684754, 6.000000) rotate(-270.000000) translate(-4.684754, -6.000000) "></path>
                    <path d="M4.68475419,3.54747885 L4.68475419,3.54747885 C4.96089657,3.54747885 5.18475419,3.77133648 5.18475419,4.04747885 L5.18475419,9.04747885 C5.18475419,9.32362123 4.96089657,9.54747885 4.68475419,9.54747885 L4.68475419,9.54747885 C4.40861182,9.54747885 4.18475419,9.32362123 4.18475419,9.04747885 L4.18475419,4.04747885 C4.18475419,3.77133648 4.40861182,3.54747885 4.68475419,3.54747885 Z" id="矩形复制-11" transform="translate(4.684754, 6.547479) rotate(-180.000000) translate(-4.684754, -6.547479) "></path>
                    <path d="M3.55504299,0.0116734509 L3.55504299,0.0116734509 C3.83118536,0.0116734509 4.05504299,0.235531076 4.05504299,0.511673451 L4.05504299,3.51167345 C4.05504299,3.78781583 3.83118536,4.01167345 3.55504299,4.01167345 L3.55504299,4.01167345 C3.27890061,4.01167345 3.05504299,3.78781583 3.05504299,3.51167345 L3.05504299,0.511673451 C3.05504299,0.235531076 3.27890061,0.0116734509 3.55504299,0.0116734509 Z" id="矩形复制-6" transform="translate(3.555043, 2.011673) rotate(-45.000000) translate(-3.555043, -2.011673) "></path>
                </g>
            </g>
        </g>
    </g>
</svg>