<svg xmlns="http://www.w3.org/2000/svg" width="16" height="16" viewBox="0 0 16 16">
  <g fill="none" transform="translate(-1 -1)">
    <rect width="18" height="18" fill="#000" opacity="0"/>
    <path fill="#E7402E" d="M3.83795508,8.28207422 C3.79008984,8.17681641 3.76620117,8.03798438 3.76620117,7.86563086 C3.76620117,7.76037305 3.79490625,7.62633984 3.85229883,7.46360156 C3.9097793,7.30086328 3.9767168,7.18124414 4.05335742,7.10469141 C4.0438125,6.98981836 4.06290234,6.85096875 4.11075,6.68823047 C4.15861523,6.52550977 4.22082422,6.41061914 4.29744727,6.34368164 C4.29744727,5.59701563 4.54148437,4.82639063 5.02969922,4.03194727 C5.51789648,3.23743359 6.09702539,2.67746484 6.76712109,2.35200586 C7.51376953,1.99782422 8.38003711,1.82074219 9.36599414,1.82074219 C10.0839551,1.82074219 10.7970293,1.96913672 11.505375,2.26589063 C11.7638262,2.37116602 12.0032051,2.4956543 12.2233359,2.63916211 C12.4435371,2.78281055 12.6349805,2.93593359 12.7976484,3.0986543 C12.9603867,3.26139258 13.1040352,3.44329102 13.2284531,3.64426172 C13.3528711,3.84532031 13.4677441,4.04149219 13.5730723,4.23300586 C13.6783301,4.42443164 13.7645156,4.64937891 13.8315234,4.90783008 C13.8984785,5.16628125 13.9654863,5.40558984 14.0325117,5.6257207 C14.0995195,5.84592188 14.157,6.10918945 14.2048652,6.41550586 L14.219209,6.45855469 C14.5159102,6.8989043 14.6642871,7.29611719 14.6642871,7.65029883 C14.6642871,7.72685156 14.6403984,7.83699609 14.5925332,7.98057422 C14.5446855,8.12415234 14.5207793,8.22461133 14.5207793,8.28207422 L14.5207793,8.3107793 C14.5207793,8.32993945 14.5303242,8.3442832 14.5494844,8.35389844 C14.5686445,8.36344336 14.573373,8.36818945 14.5638281,8.36818945 C14.9754199,8.98080469 15.3008789,9.5551875 15.5402402,10.09125 C15.7795488,10.6272422 15.8943516,11.1824648 15.8848066,11.7567773 C15.8848066,11.9865234 15.8322129,12.2545898 15.7268848,12.5608359 C15.6215391,12.8672227 15.4731621,13.0203457 15.2817187,13.0203457 C15.2338711,13.0203457 15.1812598,13.0012559 15.1237969,12.9629355 C15.0668119,12.9251425 15.0179694,12.8763239 14.9801484,12.8193574 C14.9418984,12.7618945 14.8892344,12.6949395 14.8222266,12.6183164 C14.7552012,12.5417461 14.7121523,12.4699219 14.6929922,12.4029141 C14.673832,12.335959 14.6403984,12.2641348 14.5924629,12.187582 C14.5446152,12.1110117 14.520709,12.0678926 14.520709,12.0583477 C14.5111641,12.04875 14.5015488,12.0440039 14.4920215,12.0440039 L14.4489551,12.072709 C14.133041,12.8959277 13.7788594,13.4941992 13.3864453,13.8675234 C13.501248,13.9727988 13.6688027,14.0733105 13.8889336,14.169041 C14.1091348,14.2647539 14.2909629,14.3748281 14.4346113,14.4993164 C14.5781895,14.6237344 14.6739023,14.8008164 14.7217676,15.0305625 C14.7121523,15.0497227 14.7026074,15.0927715 14.6930625,15.1597969 C14.6834473,15.2267344 14.6642871,15.2745996 14.6355996,15.303375 C14.2909629,15.8202773 13.4821582,16.0787285 12.2089922,16.0787285 C11.9314512,16.0787285 11.6394785,16.0547695 11.3331621,16.0069746 C11.0268633,15.959127 10.7635957,15.9064453 10.5434648,15.8489824 C10.3232461,15.791502 10.0456348,15.7101328 9.71063086,15.604875 C9.62444531,15.5761699 9.56223633,15.5570273 9.52400391,15.5474824 C9.44736328,15.5283223 9.32294531,15.5139609 9.15066211,15.5043457 C8.97832617,15.4948008 8.87305078,15.4948008 8.83474805,15.5043457 C8.61459961,15.7437246 8.2747793,15.9159902 7.81533984,16.0213359 C7.35584766,16.1265938 6.90595312,16.1792578 6.46560352,16.1792578 C6.27417773,16.1792578 6.0875332,16.174459 5.90565234,16.1649141 C5.72375391,16.1552988 5.47491797,16.1313926 5.15898633,16.0930898 C4.843125,16.0548398 4.57505859,16.0021758 4.35492773,15.9351504 C4.13479687,15.8681426 3.93373828,15.7580684 3.75183984,15.604875 C3.5700293,15.451752 3.48384375,15.2842148 3.49338867,15.1023867 C3.49338867,14.8821855 3.52216406,14.7242637 3.57957422,14.6285332 C3.63703711,14.5328203 3.74711133,14.3987871 3.90984961,14.2265039 C3.96724219,14.2168887 4.07251758,14.1833848 4.22569336,14.1259746 C4.37888672,14.068582 4.51284961,14.039877 4.62774023,14.039877 C4.64688281,14.039877 4.68520312,14.0302617 4.74261328,14.0111016 C4.7521582,14.0015566 4.75695703,13.9920117 4.75695703,13.9823965 L4.74261328,13.953709 C4.48416211,13.8962988 4.19700586,13.6186875 3.88114453,13.1209453 C3.56521289,12.6231152 3.3689707,12.2019961 3.29241797,11.857377 L3.24929883,11.8430156 C3.23013867,11.8430156 3.1966875,11.895627 3.14883984,12.0009551 C3.05310937,12.2210859 2.90953125,12.4173984 2.71803516,12.5896113 C2.5265918,12.7619648 2.32080469,12.8624238 2.10060352,12.8911816 L2.08625977,12.8911816 C2.06709961,12.8911816 2.05273828,12.8816367 2.04319336,12.8624766 C2.03403202,12.8437205 2.0188856,12.8285494 2.00014453,12.8193574 C1.87565625,12.5226562 1.81344727,12.2546602 1.81344727,12.0152988 C1.81344727,10.5411445 2.48828906,9.29673633 3.83795508,8.28207422 L3.83795508,8.28207422 Z"/>
    <path fill="#F4DD50" d="M4.17875977,7.10469141 C4.17875977,7.10469141 11.414584,7.90925977 14.5290937,7.02569531 L14.82525,8.3107793 C14.82525,8.3107793 10.8448066,9.90567773 3.83795508,8.39856445 L3.79107422,7.67123438 L4.17875977,7.10469141 L4.17875977,7.10469141 Z"/>
    <path fill="#3D100B" d="M6.61621289,16.4429297 C6.42142969,16.4429297 6.22838672,16.4379902 6.04244531,16.4282344 C5.85504492,16.4183379 5.5978418,16.3936406 5.27786719,16.3548633 C4.94825977,16.3149434 4.6625625,16.2585879 4.42873828,16.1874141 C4.17526172,16.1102637 3.9410332,15.9821191 3.7325918,15.8065664 C3.42833203,15.5503301 3.37248633,15.2801191 3.38032617,15.0960234 C3.38095898,14.8280098 3.42144141,14.6306777 3.50404102,14.4929355 C3.57208594,14.3795918 3.69137109,14.2332539 3.86876953,14.0454492 C3.90822035,14.0036806 3.96023515,13.9759418 4.01690039,13.9664531 C4.03119141,13.9640625 4.09269727,13.9506855 4.28377148,13.8790723 L4.2872168,13.8777891 C4.13128125,13.7243496 3.97255078,13.5197402 3.80912695,13.2622207 C3.61617188,12.9581895 3.46672266,12.6831973 3.35859961,12.4325156 C3.27028711,12.5592012 3.16548633,12.6772734 3.04495313,12.7856602 C2.81416992,12.9934512 2.55856641,13.1169551 2.28536719,13.1526211 C2.2740293,13.1540977 2.26263867,13.1548359 2.25121289,13.1548359 L2.23686914,13.1548359 C2.13525,13.1548359 2.04208594,13.1055117 1.98376172,13.0233867 C1.95042703,12.9961017 1.92428253,12.9610674 1.90761328,12.9213457 C1.77011719,12.5936016 1.70038477,12.2887617 1.70038477,12.0152812 C1.70038477,10.5156914 2.36703516,9.22798828 3.68259961,8.18516602 C3.6628418,8.09015625 3.65313867,7.98419531 3.65313867,7.86561328 C3.65313867,7.72899609 3.68620312,7.56878906 3.75424805,7.37588672 C3.807,7.22654297 3.86771484,7.10588672 3.93839648,7.01047266 C3.94210547,6.89139844 3.96527344,6.76051172 4.00841016,6.61382227 C4.05416602,6.45829102 4.11266602,6.33478711 4.18587891,6.23993555 C4.20746484,5.47908398 4.46616211,4.69042383 4.95567773,3.89387109 C5.46829102,3.05961328 6.08967773,2.46104297 6.80254102,2.11480664 L6.80473828,2.11375195 C7.5834668,1.74434766 8.49587695,1.55705273 9.51662109,1.55705273 C10.2659063,1.55705273 11.0195332,1.71351562 11.7566367,2.02215234 C11.8244449,2.04979124 11.8916165,2.07896673 11.9580996,2.10965625 C12.0903047,2.17072266 12.1479609,2.32739648 12.0869121,2.45958398 C12.0258633,2.59177148 11.8691895,2.64944531 11.7369668,2.58839648 C11.6774202,2.56090754 11.6172521,2.53478546 11.5565098,2.51005078 L11.5541191,2.50906641 C10.8814922,2.22728906 10.1959805,2.08439648 9.51662109,2.08439648 C8.57511914,2.08439648 7.73910352,2.25441211 7.03177734,2.58973242 C6.41119922,2.89147852 5.86388672,3.42312891 5.40499219,4.1699707 C4.94500781,4.9185 4.71176367,5.64982031 4.71176367,6.34366406 C4.71176359,6.41977503 4.67887452,6.49217327 4.62155273,6.54224414 C4.60817578,6.55393359 4.56089063,6.60438281 4.51434375,6.76262109 C4.46653125,6.92521875 4.46206641,7.02652148 4.46674219,7.08285937 C4.47317016,7.16017933 4.44521096,7.23640481 4.3903125,7.29123047 C4.36325977,7.31826562 4.30925977,7.38799805 4.2515332,7.5514043 C4.19282227,7.71786914 4.18048242,7.81416211 4.18048242,7.86561328 C4.18048242,8.03218359 4.20663867,8.12466211 4.22857617,8.17291406 C4.2797661,8.28548554 4.24584339,8.41850847 4.14699609,8.49281836 C2.85551367,9.46372852 2.22771094,10.6159395 2.22771094,12.0152812 C2.22771094,12.187793 2.26807031,12.3842461 2.34782227,12.6005977 C2.46675586,12.5627344 2.58036328,12.4943379 2.69221289,12.3936328 C2.8545293,12.2476641 2.97743555,12.0801973 3.05762695,11.8957852 L3.05936719,11.8918828 C3.11591602,11.7674121 3.20136328,11.5793262 3.39989063,11.5793262 C3.42822656,11.5793262 3.45636914,11.5838965 3.48324609,11.5928438 L3.52636523,11.6072051 C3.61425586,11.6364902 3.68031445,11.7097383 3.70040625,11.8001777 C3.76992773,12.1131562 3.95630859,12.5099824 4.25436328,12.9796348 C4.61561133,13.5489023 4.84549805,13.6729863 4.95038672,13.6962949 C5.02790447,13.7135178 5.09353426,13.7647548 5.12905078,13.8357773 L5.14339453,13.8644648 C5.16170262,13.9010747 5.17122982,13.9414464 5.1712207,13.9823789 C5.1712207,14.0620781 5.13870117,14.1384727 5.07965625,14.1975352 C5.05073462,14.2264611 5.0154817,14.248264 4.97668359,14.2612207 C4.88540039,14.291666 4.82980078,14.3035488 4.77834961,14.3035488 C4.69576758,14.3035488 4.59161719,14.326875 4.46879883,14.3728945 C4.34063672,14.420918 4.25685938,14.4483223 4.19892188,14.4645996 C4.05137109,14.6248594 3.98557617,14.7154043 3.95623828,14.7642539 C3.9481875,14.7776836 3.90766992,14.8576465 3.90766992,15.1023867 C3.90766992,15.1069922 3.90754688,15.1115977 3.90730078,15.1162031 C3.90545508,15.1512715 3.89986523,15.2579707 4.07228906,15.4032012 C4.22585156,15.5325234 4.39744922,15.6266367 4.58230078,15.6829043 C4.78676953,15.745166 5.04212695,15.7951055 5.34128906,15.831334 C5.64950391,15.8686875 5.89471875,15.8923477 6.07016602,15.9016113 C6.24684375,15.910875 6.43058789,15.9155859 6.61619531,15.9155859 C7.03457227,15.9155859 7.46889258,15.8646973 7.9070625,15.7643262 C8.31146484,15.671584 8.60897461,15.5240684 8.79125977,15.3258574 C8.82619708,15.2878668 8.87151796,15.2609676 8.92160156,15.2484961 C8.98091016,15.2337305 9.06753516,15.2273145 9.31584375,15.2410781 C9.50667188,15.2517305 9.64490625,15.2682715 9.73854492,15.2916855 C9.78324609,15.3028477 9.84999023,15.3232383 9.94245117,15.3540176 C10.2708457,15.457166 10.5461016,15.5378496 10.7606602,15.5938711 C10.9714043,15.648873 11.2283789,15.7002187 11.5244648,15.7464844 C11.8161914,15.7919941 12.0971777,15.8150742 12.3596016,15.8150742 C13.5331172,15.8150742 14.2757402,15.5937129 14.566834,15.1571074 C14.5708418,15.1511133 14.5750781,15.1452773 14.5795605,15.1396348 C14.5804922,15.1355391 14.5815996,15.1298262 14.5826895,15.1223203 C14.5881914,15.0838066 14.5937461,15.0514277 14.5998281,15.0234609 C14.5617012,14.8811133 14.500125,14.7744668 14.4125684,14.698582 C14.2898027,14.5921992 14.1289453,14.4953965 13.9344609,14.4108633 C13.6848516,14.3023008 13.4965898,14.188166 13.3588828,14.0618672 C13.3050486,14.0124954 13.2741079,13.9430034 13.2734382,13.8699606 C13.2727685,13.7969178 13.3024297,13.7268702 13.3553496,13.6765195 C13.7173359,13.3321289 14.0531309,12.760752 14.353418,11.9782793 C14.3729824,11.9273027 14.4079102,11.8836387 14.4533496,11.8533516 L14.496416,11.8246289 C14.5397285,11.7957608 14.5906147,11.7803543 14.642666,11.7803496 C14.7226641,11.7803496 14.7992344,11.8130449 14.8582969,11.8724238 C14.8856019,11.8998909 14.9065284,11.9330299 14.9195918,11.9694902 C14.9256738,11.9804766 14.9390859,12.0036621 14.9667012,12.0478535 C15.0272402,12.1445332 15.071168,12.239666 15.0971309,12.3303867 C15.1009102,12.3436055 15.1156934,12.3811699 15.1712578,12.4446445 C15.2469316,12.5311816 15.3054492,12.6059238 15.3502734,12.673248 C15.3687697,12.7011578 15.3927012,12.7250534 15.4206387,12.7435078 C15.4302891,12.7499414 15.4373203,12.7537383 15.44175,12.7558828 C15.5118164,12.7442285 15.5833945,12.6053789 15.6281836,12.4750898 C15.723457,12.1980762 15.7717617,11.9564121 15.7717617,11.7567773 C15.7717617,11.7553184 15.7717617,11.7538594 15.7717969,11.7524004 C15.7806563,11.2193789 15.6724277,10.6966582 15.4501172,10.1987578 C15.2219883,9.68786719 14.9079902,9.13213477 14.516543,8.54648437 C14.4471621,8.48786133 14.407752,8.40404883 14.407752,8.3107793 L14.407752,8.28207422 C14.407752,8.19286523 14.4340488,8.07417773 14.493041,7.89720117 C14.5470762,7.73514844 14.5512773,7.66724414 14.5512773,7.65029883 C14.5512773,7.35127734 14.4166816,6.99989062 14.1511992,6.60589453 C14.1378671,6.5860992 14.1272823,6.5645866 14.1197344,6.54194531 L14.1053906,6.49889648 C14.1007526,6.48497712 14.0972836,6.47069521 14.0950195,6.45619922 C14.0493164,6.16366406 13.9941035,5.91008203 13.9309453,5.7024668 C13.8631289,5.47973437 13.7944863,5.23460742 13.7269688,4.97395898 C13.6658145,4.73806055 13.5869941,4.5315 13.4927051,4.36004297 C13.3904355,4.17408398 13.276793,3.97991602 13.1549238,3.78298828 C13.0418438,3.60033398 12.9096035,3.43279687 12.7618945,3.28507031 C12.6589395,3.18209766 12.6589395,3.0151582 12.7618945,2.91218555 C12.8648672,2.80923047 13.0318242,2.80923047 13.1347793,2.91218555 C13.3112109,3.08861719 13.468834,3.2882168 13.6033242,3.50544727 C13.7299395,3.71005664 13.8481875,3.91206445 13.9547988,4.10591602 C14.0701816,4.31576367 14.1652793,4.56329883 14.2374551,4.84163086 C14.3031445,5.09521289 14.3697656,5.33315039 14.4354551,5.54888672 C14.503623,5.77291992 14.5628086,6.04077539 14.6114473,6.34545703 C14.9214902,6.81514453 15.0786563,7.254 15.0786563,7.65026367 C15.0786563,7.75794727 15.0515508,7.88939648 14.9933672,8.06392969 C14.9669297,8.14327734 14.9524805,8.19604687 14.9446055,8.2299375 C14.9512852,8.24094141 14.9570156,8.25220898 14.9618145,8.26354687 C15.3666211,8.87020312 15.6928184,9.4487168 15.9317051,9.98370703 C16.1853926,10.5518672 16.3090195,11.1491543 16.2991758,11.7590801 C16.2988242,12.0166875 16.2408867,12.315252 16.1269277,12.6465469 C15.9457676,13.1733809 15.6492598,13.2839824 15.432416,13.2839824 C15.3317637,13.2839824 15.2294063,13.2497578 15.1281914,13.1822578 C15.0422759,13.1251351 14.9685968,13.0514739 14.9114531,12.9655723 C14.8799004,12.9181641 14.8338105,12.859752 14.7744316,12.7918301 C14.7259336,12.7364414 14.6864004,12.6819668 14.6553223,12.6276328 C14.4337852,13.123002 14.1962344,13.5194062 13.9371855,13.8260918 C13.9985508,13.8599824 14.0678438,13.89375 14.1448008,13.9272012 C14.3883984,14.0330742 14.5947129,14.1585117 14.7579961,14.299998 C14.9455371,14.4625254 15.0709043,14.6901973 15.1305996,14.9767207 C15.1413614,15.0283947 15.1363708,15.0821091 15.1162734,15.130916 C15.1144277,15.1387207 15.1103145,15.1581797 15.1047949,15.1969395 C15.0885703,15.3099316 15.0523066,15.3984023 14.9942285,15.4664824 C14.5887539,16.0557539 13.726582,16.3423301 12.3596895,16.3423301 C12.0701426,16.3423301 11.7617871,16.317123 11.4432188,16.2674297 C11.1297129,16.218457 10.8553008,16.1634727 10.6275586,16.104041 C10.4042109,16.045752 10.119832,15.9624141 9.78229688,15.8563652 C9.78085543,15.8559209 9.77941976,15.8554579 9.77799023,15.8549766 C9.67897266,15.822 9.63244336,15.8086406 9.61083984,15.8032441 C9.57691406,15.7947715 9.48981445,15.7788809 9.28668164,15.767543 C9.19858008,15.7626738 9.14015039,15.7610566 9.10209375,15.7608281 C8.84791406,15.9986602 8.48622656,16.1725078 8.02497656,16.278293 C7.54808203,16.3875586 7.07414063,16.4429297 6.61621289,16.4429297 Z"/>
    <polygon fill="#F4DD50" points="5.787 8.451 5.74 11.298 7.346 11.404 7.193 8.205"/>
    <path fill="#FFF" d="M11.9960156,13.8309082 C11.9116934,13.8309082 11.8288477,13.7905488 11.7778184,13.7155957 C11.6958516,13.5952207 11.727,13.4311992 11.847375,13.34925 C11.9202026,13.299547 11.9902237,13.2458516 12.0571172,13.1884102 C12.1175204,13.1364964 12.1754794,13.0818046 12.2308066,13.0245117 C12.3319863,12.9197813 12.4989082,12.9168984 12.6036387,13.0180957 C12.7083691,13.119293 12.711252,13.2861973 12.6100547,13.3909277 C12.5433156,13.4600373 12.4733962,13.5260032 12.4005234,13.5886113 C12.3187636,13.6588121 12.2331795,13.7244321 12.1441641,13.7851699 C12.1005103,13.8149795 12.0488764,13.8309206 11.9960156,13.8309082 L11.9960156,13.8309082 Z M12.9261797,12.7727227 C12.8841855,12.7727227 12.8415762,12.762668 12.8019727,12.7414512 C12.6735996,12.6727207 12.6252246,12.5129355 12.6939551,12.3845449 C12.8095488,12.1686152 12.9007793,11.9358457 12.9651152,11.6927051 C13.0381172,11.4168164 13.0742578,11.1366562 13.0725703,10.8599941 C13.0716738,10.714377 13.1889902,10.5956016 13.3346074,10.5946963 C13.4801191,10.5935273 13.5990176,10.711125 13.5998965,10.8567422 C13.6018828,11.1800039 13.5598359,11.5066406 13.474916,11.827582 C13.4001211,12.1102734 13.293791,12.3813984 13.1588789,12.633416 C13.1113477,12.7222031 13.0202754,12.7727227 12.9261797,12.7727227 L12.9261797,12.7727227 Z"/>
  </g>
</svg>
