<svg xmlns="http://www.w3.org/2000/svg" width="17" height="17" viewBox="0 0 17 17">
  <g transform="translate(-1 -1)">
    <rect width="19" height="19" opacity="0"/>
    <path d="M9.5,1.90246827 C5.31153192,1.90246827 1.90340564,5.31058259 1.90340564,9.49905067 C1.90151894,10.5661037 2.1255621,11.6198661 2.56035775,12.5938843 C2.59073648,12.6622364 2.62301388,12.7305886 2.6552913,12.7970421 L2.57364845,15.9963026 C2.56415509,16.3190767 2.82047567,16.5886879 3.14324973,16.5962826 C3.14894574,16.5962826 3.15464175,16.5962826 3.16033776,16.5962826 L3.17362847,16.5962826 L6.60452684,16.5127411 L6.68806836,16.5564105 C7.58234236,16.9133607 8.53737385,17.0956331 9.50189868,17.0937491 C13.6922654,17.0937491 17.1003797,13.6856201 17.1003797,9.49715202 C17.1003797,5.30868394 13.6903667,1.90246827 9.5,1.90246827 Z M9.5,15.9260518 L9.5,15.9260518 C8.67407815,15.9260518 7.85575097,15.7684621 7.09058658,15.4589787 C6.98426101,15.3735385 6.84945538,15.3317678 6.71275106,15.3431598 L3.76031778,15.4134106 L3.82866992,12.7590687 C3.84765664,12.612871 3.81537922,12.4647747 3.73563505,12.3413611 C3.6995603,12.2673129 3.66348556,12.1932647 3.62930947,12.1173179 C3.26096731,11.2932947 3.07110022,10.4009194 3.0729848,9.49905069 C3.0729848,5.95613072 5.95518137,3.07394825 9.49810134,3.07394825 C13.0410213,3.07394825 15.9251024,5.95613072 15.9251024,9.49905069 C15.9251024,13.0419706 13.04292,15.9260518 9.5,15.9260518 Z M14.0738983,8.91426002 C13.7511242,8.91426002 13.487209,9.17627661 13.487209,9.50094933 C13.487209,11.6996103 11.6986609,13.4881583 9.50000002,13.4881583 C7.30133909,13.4881583 5.51279107,11.6996103 5.51279107,9.50094933 C5.51279107,9.17817527 5.25077448,8.91426002 4.92610176,8.91426002 C4.6033277,8.91426002 4.33941245,9.17627661 4.33941245,9.50094933 C4.33941245,9.50094933 4.33941245,9.50094933 4.33941245,9.50094933 C4.33941245,12.3451584 6.65389231,14.6596383 9.49810137,14.6596383 C12.3423104,14.6596383 14.6586889,12.3451584 14.6586889,9.49905067 C14.6586889,9.17627661 14.3966723,8.91426002 14.0738983,8.91426002 Z M9.5,1.90246827 C5.31153192,1.90246827 1.90341761,5.31058259 1.90341761,9.49905067 C1.85025483,11.1698811 2.62301388,12.7305886 2.6552913,12.7970421 L2.57364845,15.9963026 C2.59073648,16.5127411 3.01414011,16.6019786 3.17362847,16.5981813 C3.22109523,16.5962826 6.60452684,16.5146398 6.60452684,16.5146398 C6.60452684,16.5146398 7.76081743,17.0956331 9.5,17.0956331 C13.6903667,17.0956331 17.0984811,13.6875187 17.0984811,9.49905067 C17.0984811,5.31058259 13.6903667,1.90246827 9.5,1.90246827 Z M9.5,15.9260518 L9.5,15.9260518 C8.67407815,15.9260518 7.85575097,15.7684621 7.09058658,15.4589787 C6.98426101,15.3735385 6.84945538,15.3317678 6.71275106,15.3431598 L3.76031778,15.4134106 L3.82866992,12.7590687 C3.84765664,12.612871 3.81537922,12.4647747 3.73563505,12.3413611 C3.6995603,12.2673129 3.09008693,11.1451984 3.07489756,9.49905069 C3.07489756,5.95613072 5.95708004,3.07394825 9.5,3.07394825 C13.04292,3.07394825 15.9270011,5.95613072 15.9270011,9.49905069 C15.9270011,13.0419706 13.04292,15.9260518 9.5,15.9260518 Z M13.4872089,9.49905067 C13.4872089,11.6977116 11.6986609,13.4862596 9.5,13.4862596 C7.30133907,13.4862596 5.51279105,11.6977116 5.51279105,9.49905067 C5.51279105,8.75477167 4.39067653,8.68831818 4.34131109,9.49905067 C4.34131109,9.49905067 4.34131109,9.49905067 4.34131109,9.49905067 C4.34131109,12.3432597 6.65579096,14.6577396 9.50000002,14.6577396 C12.3442091,14.6577396 14.6586889,12.3451584 14.6586889,9.49905067 C14.6397022,8.7395823 13.5346757,8.70350755 13.4872089,9.49905067 Z"/>
  </g>
</svg>
