<?xml version="1.0" encoding="UTF-8"?>
<svg width="329px" height="60px" viewBox="0 0 329 60" version="1.1" xmlns="http://www.w3.org/2000/svg" xmlns:xlink="http://www.w3.org/1999/xlink">
    <!-- Generator: Sketch 63.1 (92452) - https://sketch.com -->
    <title>编组 3</title>
    <desc>Created with Sketch.</desc>
    <defs>
        <path d="M8,4.26325641e-14 L320.32,4.26325641e-14 C324.738278,4.18209396e-14 328.32,3.581722 328.32,8 L328.32,51.3719213 C328.32,55.7901993 324.738278,59.3719213 320.32,59.3719213 L8,59.3719213 C3.581722,59.3719213 8.58062113e-14,55.7901993 8.52651283e-14,51.3719213 L8.52651283e-14,8 C8.47240453e-14,3.581722 3.581722,4.69969023e-14 8,4.26325641e-14 Z" id="path-1"></path>
    </defs>
    <g id="页面-1" stroke="none" stroke-width="1" fill="none" fill-rule="evenodd">
        <g id="个人中心" transform="translate(-15.000000, -236.000000)">
            <g id="编组-3" transform="translate(15.119574, 236.000000)">
                <mask id="mask-2" fill="white">
                    <use xlink:href="#path-1"></use>
                </mask>
                <use id="蒙版" fill="#FFE150" xlink:href="#path-1"></use>
                <polygon id="路径-11" fill="#FFFFFF" opacity="0.241931734" mask="url(#mask-2)" points="61.4175397 53.8865232 109.508787 1 132.293429 1 80.1917613 60 57.8804258 60"></polygon>
                <polygon id="路径-11备份" fill="#FFFFFF" opacity="0.241931734" mask="url(#mask-2)" points="211.41754 53.8865232 259.508787 1 282.293429 1 230.191761 60 207.880426 60"></polygon>
            </g>
        </g>
    </g>
</svg>