<?xml version="1.0" encoding="UTF-8"?>
<svg width="22px" height="22px" viewBox="0 0 22 22" version="1.1" xmlns="http://www.w3.org/2000/svg" xmlns:xlink="http://www.w3.org/1999/xlink">
    <!-- Generator: Sketch 63.1 (92452) - https://sketch.com -->
    <title>Trash</title>
    <desc>Created with Sketch.</desc>
    <g id="页面-1" stroke="none" stroke-width="1" fill="none" fill-rule="evenodd">
        <g id="个人中心" transform="translate(-16.000000, -624.000000)">
            <g id="编组-10" transform="translate(15.000000, 459.000000)">
                <g id="编组-19备份-4" transform="translate(1.000000, 161.000000)">
                    <g id="Trash" transform="translate(0.000000, 4.500000)">
                        <path d="M7.23923177,4.25333333 L7.23923177,2.56666667 C7.23923177,1.72249 7.8697701,0.88 7.0856901,0.88 L6.45333333,0.88 C5.65796,0.88 4.84,1.68538333 4.84,2.56666667 L4.84,4.25333333 L0.744553333,4.25333333 C0.333153333,4.25333333 0,4.63114667 0,5.09666667 C0,5.56218667 0.333153333,5.94 0.744553333,5.94 L1.61333333,5.94 L1.61333333,19.44261 C1.61333333,20.2606433 2.45065333,21.12 3.22666667,21.12 L15.1097819,21.12 C15.9164486,21.12 16.7231152,20.2766667 16.7231152,19.44261 L16.7231152,5.94 L17.5918952,5.94 C18.0032952,5.94 18.3364486,5.56218667 18.3364486,5.09666667 C18.3364486,4.63114667 18.0032952,4.25333333 17.5918952,4.25333333 L7.23923177,4.25333333 Z" id="Path" fill="#FFE300"></path>
                        <path d="M7.04,7.92 C6.55424,7.92 6.16,8.31424 6.16,8.8 L6.16,15.84 C6.16,16.32576 6.55424,16.72 7.04,16.72 C7.52576,16.72 7.92,16.32576 7.92,15.84 L7.92,8.8 C7.92,8.31424 7.52576,7.92 7.04,7.92 M14.96,8.8 L14.96,15.84 C14.96,16.32576 15.35424,16.72 15.84,16.72 C16.32576,16.72 16.72,16.32576 16.72,15.84 L16.72,8.8 C16.72,8.31424 16.32576,7.92 15.84,7.92 C15.35424,7.92 14.96,8.31424 14.96,8.8 M11.44,7.92 C10.95424,7.92 10.56,8.31424 10.56,8.8 L10.56,15.84 C10.56,16.32576 10.95424,16.72 11.44,16.72 C11.92576,16.72 12.32,16.32576 12.32,15.84 L12.32,8.8 C12.32,8.31424 11.92576,7.92 11.44,7.92 M18.48,18.48 L18.48,18.48 C18.48,18.96576 18.08576,19.36 17.6,19.36 L5.28,19.3688 L5.28,19.36968 C4.79424,19.36968 4.4,18.97544 4.4,18.48968 L4.4,18.48968 L4.4,5.28 L18.48,5.28 L18.48,18.48 Z M7.92,2.64 C7.92,2.15424 8.31424,1.76 8.8,1.76 L14.08,1.76 C14.56576,1.76 14.96,2.15424 14.96,2.64 L14.96,3.52 L7.92,3.52 L7.92,2.64 Z M21.18776,3.52 L16.72,3.52 L16.72,1.76 C16.72,0.87912 15.81536,0 14.96,0 L7.92,0 C7.05232,0 6.16,0.8404 6.16,1.76 L6.16,3.52 L1.69224,3.52 C1.24344,3.52 0.88,3.91424 0.88,4.4 C0.88,4.88576 1.24344,5.28 1.69224,5.28 L2.64,5.28 L2.64,19.36968 C2.64,20.22328 3.55344,21.12 4.4,21.12 L18.48,21.12 C19.36,21.12 20.24,20.24 20.24,19.36968 L20.24,5.28 L21.18776,5.28 C21.63656,5.28 22,4.88576 22,4.4 C22,3.91424 21.63656,3.52 21.18776,3.52 L21.18776,3.52 Z" fill="#32363E"></path>
                    </g>
                </g>
            </g>
        </g>
    </g>
</svg>