<svg xmlns="http://www.w3.org/2000/svg" viewBox="0 0 174.96 15.01"><title>资源 21</title><g id="图层_2" data-name="图层 2"><g id="nan"><path d="M1.62,12.38V8.81a5.6,5.6,0,0,1-1.5.07V8.19H.88a6.22,6.22,0,0,0,.74-.13v-4H.19V3.5H1.62V.06H4V3.5H5.38v.56H4v3.5a4.31,4.31,0,0,0,1.25-.62l.13-.13A2.25,2.25,0,0,1,4,8.12v4.69q.06,2.25-1.62,2.13A2.46,2.46,0,0,1,0,13.25a2.3,2.3,0,0,0,1.06.25C1.44,13.58,1.62,13.21,1.62,12.38ZM6.31,0h2.5c-.21,1.12-.43,2.25-.69,3.38h6.82v.5H12.56V6.81h2.13v.57H12.56v2.93h2.13v.5H12.56v2.88h2.56v.56H8.19v.63H5.62V6.31a2.82,2.82,0,0,1-1.12.07,3.77,3.77,0,0,0,.81-1.57C5.65,3.27,6,1.67,6.31,0ZM8.19,3.88V6.81h2V3.88Zm0,3.5v2.93h2V7.38Zm0,3.43v2.88h2V10.81ZM9.75.12h2.37a6.54,6.54,0,0,0,1.13,2.69c-2,.17-3-.21-3.13-1.12A6.51,6.51,0,0,1,9.75.12Z"/><path d="M19.68,11.56V1.75h2.75V3.56c.08-.91.89-1.35,2.44-1.31h.62V0h2.94V2.25h4.25V3H24.55c-1.25-.08-2,.23-2.12.94v8c.16,2.16-1.06,3.16-3.69,3A6,6,0,0,0,19.68,11.56Z"/><path d="M38.42,5.19V4.06l3.25-1.25h1.06V13.12H40.29V5.19Z"/><path d="M55.66,4.25V.06h2.87V5a68.86,68.86,0,0,0,3.82,7.25,6.65,6.65,0,0,0,2.37,2.56,7.94,7.94,0,0,1-3.44-.31,3.28,3.28,0,0,1-1.75-1.62c-.46-.76-1.14-2.09-2.06-4a43.4,43.4,0,0,1-2,4.12,3,3,0,0,1-1.81,1.5,14.05,14.05,0,0,1-3.94.38,9.32,9.32,0,0,0,2.88-2.5A18.52,18.52,0,0,0,55.66,4.25Z"/><path d="M75,13.12V12.5h6c.29,0,.46-.19.5-.56V8.62c0-.29-.16-.43-.5-.43H77.14V7.5H81c.34,0,.5-.12.5-.5V4a.44.44,0,0,0-.5-.5H75V2.81h6.75c1.54,0,2.32.69,2.32,2.07V6.12c.08,1.09-.59,1.63-2,1.63v.06c1.41,0,2.08.59,2,1.63v1.62c0,1.38-.78,2.06-2.32,2.06Z"/><path d="M101.13,1.31H96.31V5.62a.25.25,0,0,1-.06.19c0,.09,0,.15,0,.19a.05.05,0,0,0,.06.06h6.13v.63H96.63q3.62,6.56,5.68,7.87a11,11,0,0,1-3.37-.25,2.55,2.55,0,0,1-1.56-1.06,25.14,25.14,0,0,1-2.07-3.56,3.42,3.42,0,0,1-.18-.44,27.46,27.46,0,0,1-2.19,3.56A4.2,4.2,0,0,1,91,14.31a11.52,11.52,0,0,1-3.56.19,15.35,15.35,0,0,0,5.69-7.81H87.31V6.06h6a3.24,3.24,0,0,0,.07-.62V1.31H88.44V.69h12.69Z"/><path d="M119.49,1.69h-5.56V4.75a10.24,10.24,0,0,1-.06,1.19h6.62v.62h-6.68c-.13.46-.28.9-.44,1.32h1.69v4c0,1.45.27,2.18.93,2.18h2.13c.83.09,1.5-1,2-3.31q.43,4.07-2.19,3.94h-2.75c-1.87,0-2.77-.75-2.69-2.25V9.56a33.71,33.71,0,0,1-2.56,3.94q-.81,1.68-4.5,1.38a14.71,14.71,0,0,0,3.38-4.13,35.82,35.82,0,0,0,2.12-4.19h-5.44V5.94h5.63a6.4,6.4,0,0,0,.12-1.19V1.69h-4.68V1.06h12.93Z"/><path d="M126.11,14.88h-2V.25h2V1.44c.12-.75.43-1.13.93-1.13h.82c.83,0,1.27.57,1.31,1.57V5a1.78,1.78,0,0,1-1.38,1.69,2,2,0,0,1,1.38,1.81V12q.06,1.56-1.56,1.5a1.73,1.73,0,0,1-1.5-1.06Zm.56-13.82c-.21,0-.4.21-.56.63V6.5a1.25,1.25,0,0,0,1.06-1.44V1.94C127.17,1.31,127,1,126.67,1.06Zm.5,10.38v-3a1.6,1.6,0,0,0-1.06-1.75v5.5a1,1,0,0,0,.62.19C127,12.46,127.17,12.15,127.17,11.44Zm2.56.5V.38H132v1c.13-.59.59-.88,1.38-.88H136c1.38,0,2.05.54,2,1.75V6.06c.05,1.21-.6,1.77-1.93,1.69h-2.82c-.79.08-1.2-.21-1.25-.87v1.5h2.25c.38.7.8,1.43,1.25,2.18a14.71,14.71,0,0,0,1.07-2.18h2.12c-.25.66-.5,1.27-.75,1.81a1.78,1.78,0,0,1-2,1.06c.09.17.21.4.38.69a9,9,0,0,0,.68.94,6.83,6.83,0,0,0,1.82,1.62,9.2,9.2,0,0,1-2.88-.19,2.82,2.82,0,0,1-1.31-1.19A2.89,2.89,0,0,1,132,14.94Q129.49,15.12,129.73,11.94Zm3.31,1.5a3.76,3.76,0,0,0,1.57-.38s0-.06-.07-.06c-.95-1.58-1.79-3-2.5-4.31v3.19C131.92,13,132.25,13.56,133,13.44Zm0-12.32a1,1,0,0,0-1,.63V3.81h3.69V2.06a.83.83,0,0,0-.94-.94Zm1.82,6c.62,0,.91-.27.87-.93V4.44H132V6.56a.7.7,0,0,0,.82.56Z"/><path d="M142.35,2.5h2.25c.16.88.35,1.69.56,2.44a25.26,25.26,0,0,0,.5-2.94c0-.5-.15-.73-.56-.69h-3.19V.69h4c1.33,0,2,.39,1.88,1.31a60.66,60.66,0,0,1-1.5,6.56,6.56,6.56,0,0,0,.31,1.06c.12.3.35,1,.69,2.13a4,4,0,0,0,1.06,1.81.71.71,0,0,1,.19-.31,3.85,3.85,0,0,0,.81-1.13,10.62,10.62,0,0,0,1.87-4.06V2.81h2.07V8.06c0,.29-.09.56-.13.82h.56v3.68c0,.75.21,1.13.75,1.13h.75c.84-.09,1.42-.86,1.75-2.31.17,2.41-.58,3.54-2.25,3.37h-1.18c-1.3,0-1.94-.63-1.94-1.75v-.62a4.08,4.08,0,0,1-.63.87,2.52,2.52,0,0,0-.31.56c-.58,1-1.9,1.38-3.94,1.13A5.69,5.69,0,0,0,148,13.88,2.2,2.2,0,0,1,145.22,12a13.25,13.25,0,0,1-.62,1.44,2.24,2.24,0,0,1-2.75,1.18c.25-.45.54-1.06.87-1.81a43.21,43.21,0,0,0,1.44-4.12c-.25-.75-.62-2-1.12-3.69C142.7,3.92,142.47,3.08,142.35,2.5Zm8.06,7.75h-2.12V.44h2.12V1.69c.08-.75.58-1.13,1.5-1.13h2.25c1.46,0,2.17.59,2.13,1.75v7.88h-2.13V2.44c.08-.92-.44-1.34-1.56-1.25h-.88c-.83,0-1.27.27-1.31.93Z"/><path d="M165.09,14.75h-2.75V10.12a10.9,10.9,0,0,1-2.13.07A7.33,7.33,0,0,0,163,7.12l.44-.81a4.41,4.41,0,0,1,.19-.43h-3.5V5.31h3.81c.29-.54.48-.89.56-1.06a2.8,2.8,0,0,1,.25-.56H161V3.12H165a6.88,6.88,0,0,0,.31-.68,6.5,6.5,0,0,1,.38-.75h-4.94V1.06h9.13c.75,0,1.21-.16,1.37-.62h3.5a2.33,2.33,0,0,1-2.25,1.25H168.4l-.56,1.43h6.37v.57h-6.69a8.56,8.56,0,0,1-.75,1.62H175v.57h-8.44c-.16.29-.39.7-.68,1.24a.59.59,0,0,0-.13.26,2.36,2.36,0,0,1,1.06-.19h4.94c1.63,0,2.44.62,2.44,1.87v4.06c0,1.13-.73,1.67-2.31,1.63h-5.19c-1,0-1.48-.27-1.56-.94Zm1.5-7a1.32,1.32,0,0,0-1.5.87V9.5h6.31V8.94c0-.79-.44-1.19-1.31-1.19Zm-1.5,2.37v1.76h6.31V10.12Zm5.25,4.07c.71,0,1.06-.31,1.06-.94V12.5h-6.31v.81a1.16,1.16,0,0,0,1.37.88Z"/></g></g></svg>