<svg xmlns="http://www.w3.org/2000/svg" width="25" height="25" viewBox="0 0 25 25">
  <g fill="none" fill-rule="evenodd" transform="translate(1 1)">
    <circle cx="11.5" cy="11.5" r="11.5" stroke="#666" opacity=".8"/>
    <path fill="#858585" d="M14.3451646,8.34504708 L14.3516739,16.0232267 C14.3522725,16.7299836 13.7873129,17.302444 13.0898008,17.3018532 C12.3922887,17.3012614 11.8263577,16.7278424 11.8257586,16.0210855 L11.8192493,8.34290587 C11.8186507,7.63614896 12.3836103,7.0636886 13.0811224,7.06427942 C13.7786345,7.06487116 14.3445655,7.63829017 14.3451646,8.34504708 Z" transform="rotate(45 13.085 12.183)"/>
    <path fill="#858585" d="M6.0828916,12.0224669 L10.9979405,12.0266334 C11.6769039,12.027209 12.2271688,12.5774739 12.2277444,13.2564373 C12.2283187,13.9339143 11.6795805,14.4835836 11.0021035,14.4841579 C11.0014102,14.4841585 11.000717,14.4841585 11.0000238,14.4841579 L6.08497483,14.4799914 C5.40601147,14.4794158 4.85574654,13.9291509 4.85517098,13.2501875 C4.85459669,12.5727105 5.40333481,12.0230412 6.08081189,12.0224669 C6.08150512,12.0224663 6.08219836,12.0224663 6.0828916,12.0224669 Z" transform="rotate(45 8.541 13.253)"/>
  </g>
</svg>
