<?xml version="1.0" encoding="UTF-8"?>
<svg width="31px" height="30px" viewBox="0 0 31 30" version="1.1" xmlns="http://www.w3.org/2000/svg" xmlns:xlink="http://www.w3.org/1999/xlink">
    <!-- Generator: Sketch 54.1 (76490) - https://sketchapp.com -->
    <title>VIP@1.5x</title>
    <desc>Created with Sketch.</desc>
    <g id="正传（界面）" stroke="none" stroke-width="1" fill="none" fill-rule="evenodd">
        <g id="5.我的-登陆后" transform="translate(-125.000000, -360.000000)" fill-rule="nonzero">
            <g id="VIP" transform="translate(126.000000, 360.000000)">
                <rect id="矩形" fill="#FFFFFF" opacity="0.00999999978" x="-0.5" y="0" width="30" height="30"></rect>
                <path d="M21.6710439,26 L10.5615224,26 L7.77879667,15.5870968 C7.56262447,14.7858065 8.17969783,14 9.02080418,14 L23.2156925,14 C24.0567989,14 24.6699418,14.7858065 24.4577,15.5870968 L21.6710439,26 Z" id="路径" fill="#F9C11B"></path>
                <path d="M20.5507295,26 L9.44927054,26 C8.02301763,26 6.77161784,25.0419677 6.40819763,23.6714019 L3.02084697,10.9067294 C2.96599109,10.7021674 3.02084697,10.4839679 3.16827216,10.3305463 C3.31569734,10.1771248 3.52826387,10.1089374 3.73740192,10.1498498 L9.8332617,11.3635847 L14.5097256,5.23013232 C14.7428631,4.92328923 15.2571369,4.92328923 15.4902744,5.23013232 L20.1667383,11.3635847 L26.2625981,10.1498498 C26.4717361,10.1089374 26.6843027,10.1771248 26.8317278,10.3305463 C26.979153,10.4839679 27.0340089,10.7021674 26.979153,10.9067294 L23.5918024,23.6714019 C23.2283822,25.0419677 21.9769824,26 20.5507295,26 Z M4.46081385,11.5408718 L7.59788455,23.3577401 C7.82073657,24.1930351 8.58186192,24.776037 9.44927054,24.776037 L20.5507295,24.776037 C21.4181381,24.776037 22.1792634,24.1930351 22.4021154,23.3577401 L25.5391861,11.5408718 L20.0295986,12.6352788 C19.7964611,12.6796006 19.5598951,12.5909571 19.4193269,12.4034418 L15,6.60751684 L10.5806731,12.4034418 C10.4366764,12.5909571 10.2001104,12.6796006 9.97040141,12.6352788 L4.46081385,11.5408718 L4.46081385,11.5408718 Z" id="形状" fill="#593A25"></path>
                <path d="M15.5016262,21 C15.0658135,21 14.6690288,20.7579643 14.4608794,20.3700441 L12.0704143,15.8807792 C11.9175546,15.5923257 12.0216293,15.2309299 12.3045823,15.0750987 C12.5875354,14.9192675 12.9420397,15.0253653 13.0948994,15.3138188 L15.4853645,19.7997682 L17.9051006,15.3105033 C18.0579603,15.0220498 18.4124646,14.9159519 18.6954177,15.0717831 C18.9783707,15.2276144 19.0824454,15.5890101 18.9295857,15.8774636 L16.5391206,20.3667285 C16.3342235,20.7579643 15.9341865,21 15.5016262,21 L15.5016262,21 Z" id="路径" fill="#593A25"></path>
            </g>
        </g>
    </g>
</svg>