<svg xmlns="http://www.w3.org/2000/svg" width="14" height="12" viewBox="0 0 14 12">
  <g fill="none" transform="translate(-1 -2)">
    <rect width="16" height="16" fill="#000" opacity="0"/>
    <path fill="#FFF" d="M14.6582813,12.0690625 C14.6903332,12.2649599 14.6347176,12.4650485 14.506172,12.6163071 C14.3776263,12.7675656 14.1891272,12.8546875 13.990625,12.8546875 L13.9734375,12.8546875 C12.83625,12.8546875 11.7729688,12.3129688 11.0842188,11.408125 C10.3514122,10.4446153 9.21044096,9.87891651 7.99992188,9.87891651 C6.78940279,9.87891651 5.64843155,10.4446153 4.915625,11.408125 C4.226875,12.3125 3.16359375,12.8546875 2.02640625,12.8546875 L2.00921875,12.8546875 C1.81071651,12.8546875 1.62221749,12.7675656 1.4936718,12.6163071 C1.36512611,12.4650485 1.30951051,12.2649599 1.3415625,12.0690625 L2.47140625,5.159375 C2.68685965,3.84165881 3.82541111,2.8742181 5.160625,2.8742181 L5.89296875,2.8742181 C6.07260676,2.8742181 6.24486679,2.94567539 6.37175807,3.07283048 C6.49864935,3.19998557 6.56974847,3.37239363 6.569375,3.55203125 C6.5694992,3.73125802 6.64084803,3.90308789 6.76771232,4.02968844 C6.89457662,4.15628899 7.06655461,4.22728005 7.24578125,4.22703125 L8.7540625,4.22703125 C8.93370051,4.22703164 9.10596054,4.15557461 9.23285182,4.02841952 C9.3597431,3.90126443 9.43084222,3.72885637 9.43046875,3.54921875 C9.43059295,3.36999198 9.50194178,3.19816211 9.62880607,3.07156156 C9.75567037,2.94496101 9.92764836,2.87396995 10.106875,2.8742181 L10.8392188,2.8742181 C12.1744326,2.8742181 13.3129841,3.84165881 13.5284375,5.159375 L14.6582813,12.0690625 Z M13.6807812,11.900625 L12.6026562,5.310625 C12.4613233,4.44631434 11.7145399,3.81171875 10.83875,3.81171875 L10.3465625,3.81171875 C10.2184667,4.59188536 9.54420647,5.16449401 8.75359375,5.16453125 L7.24578125,5.16453125 C6.45482525,5.16500686 5.78005421,4.59224533 5.65203125,3.81171875 L5.160625,3.81171875 C4.28478728,3.81159363 3.53793101,4.44624613 3.39671875,5.310625 L2.31859375,11.900625 C2.63206085,11.8652774 2.93680616,11.7747689 3.21875,11.6332813 C3.59180777,11.4442303 3.91719051,11.1731225 4.17046875,10.8403125 C4.61228417,10.2610946 5.17884719,9.78878966 5.828125,9.4584375 C7.19433231,8.76843586 8.80707394,8.76843586 10.1732812,9.4584375 C10.8225591,9.78878966 11.3891221,10.2610946 11.8309375,10.8403125 C12.0838138,11.1729582 12.4087013,11.4440538 12.78125,11.6332812 C13.0630004,11.7746986 13.367528,11.8652052 13.6807812,11.900625 L13.6807812,11.900625 Z"/>
    <path fill="#FFD72E" d="M12.603125,5.310625 L13.68125,11.900625 C13.3678364,11.8652593 13.0631455,11.7747513 12.78125,11.6332813 C12.4081922,11.4442303 12.0828095,11.1731225 11.8295313,10.8403125 C11.3877158,10.2610946 10.8211528,9.78878966 10.171875,9.4584375 C8.80566769,8.76843586 7.19292606,8.76843586 5.82671875,9.4584375 C5.17744094,9.78878966 4.61087792,10.2610946 4.1690625,10.8403125 C3.91618615,11.1729582 3.59129873,11.4440538 3.21875,11.6332812 C2.93719307,11.7746283 2.63288309,11.8651332 2.31984375,11.900625 L3.39796875,5.310625 C3.53918101,4.44624613 4.28603728,3.81159363 5.161875,3.81171875 L5.65375,3.81171875 C5.78177296,4.59224533 6.456544,5.16500686 7.2475,5.16453125 L8.75578125,5.16453125 C9.54639397,5.16449401 10.2206542,4.59188536 10.34875,3.81171875 L10.8409375,3.81171875 C11.716077,3.8125654 12.4618973,4.44695572 12.603125,5.310625 Z M12.4917188,6.81515625 C12.4917188,6.5872525 12.3069663,6.4025 12.0790625,6.4025 C11.8511587,6.4025 11.6664062,6.5872525 11.6664062,6.81515625 C11.6664062,7.04306 11.8511587,7.22781253 12.0790625,7.22781253 C12.1885184,7.22785397 12.2935033,7.18439113 12.3709003,7.10699408 C12.4482974,7.02959703 12.4917602,6.9246122 12.4917188,6.81515625 Z M11.625,5.9484375 C11.6250632,5.78150521 11.5245459,5.63097793 11.3703327,5.56706651 C11.2161194,5.5031551 11.0385907,5.53845028 10.9205517,5.65648925 C10.8025128,5.77452821 10.7672176,5.95205691 10.831129,6.10627015 C10.8950404,6.2604834 11.0455677,6.3610007 11.2125,6.36093753 C11.4403175,6.36093753 11.625,6.17625496 11.625,5.9484375 Z M11.6250011,7.6828125 C11.6250011,7.51589441 11.5244426,7.36541509 11.3702243,7.30155291 C11.2160061,7.23769073 11.038503,7.27302449 10.9204965,7.39107576 C10.8024899,7.50912702 10.7672234,7.68664345 10.831144,7.84083751 C10.8950645,7.99503157 11.0455819,8.09553195 11.2125,8.09546878 C11.3220644,8.09546878 11.4271277,8.05188067 11.5045135,7.97431903 C11.5818993,7.89675739 11.625249,7.7915954 11.6250011,7.68203125 L11.6250011,7.6828125 Z M10.758125,6.8159375 C10.758125,6.64901941 10.6575676,6.49854009 10.5033493,6.43467791 C10.3491311,6.37081573 10.171628,6.40614949 10.0536215,6.52420076 C9.93561491,6.64225202 9.90034837,6.81976845 9.96426895,6.97396251 C10.0281895,7.12815657 10.1787069,7.22865695 10.345625,7.22859378 C10.4551624,7.22855254 10.5601855,7.18494587 10.6375374,7.10738874 C10.7148894,7.02983161 10.7582177,6.92469333 10.7579687,6.81515625 L10.758125,6.8159375 Z"/>
    <path fill="#141414" d="M12.0790625,6.40265622 C12.2459948,6.40259305 12.3965221,6.50311035 12.4604335,6.6573236 C12.5243449,6.81153684 12.4890497,6.98906554 12.3710108,7.1071045 C12.2529718,7.22514347 12.0754431,7.26043865 11.9212298,7.19652724 C11.7670166,7.13261582 11.6664993,6.98208854 11.6665625,6.81515625 C11.6665625,6.58733879 11.851245,6.40265622 12.0790625,6.40265622 L12.0790625,6.40265622 Z M11.2123438,5.53578122 C11.4402475,5.53578122 11.625,5.72053375 11.625,5.9484375 C11.625,6.17634125 11.4402475,6.36109375 11.2123438,6.36109375 C10.98444,6.36109375 10.7996875,6.17634125 10.7996875,5.9484375 C10.799646,5.83898155 10.8431089,5.73399672 10.9205059,5.65659967 C10.997903,5.57920262 11.1028878,5.53573978 11.2123438,5.53578122 Z M11.2123438,7.26953122 C11.3792618,7.26953122 11.5297412,7.37008864 11.5936033,7.5243069 C11.6574655,7.67852516 11.6221318,7.85602822 11.5040805,7.97403478 C11.3860292,8.09204134 11.2085128,8.12730788 11.0543187,8.0633873 C10.9001247,7.99946672 10.7996243,7.84894933 10.7996875,7.68203125 C10.7996875,7.57260237 10.8431686,7.4676577 10.9205612,7.39029445 C10.9979537,7.3129312 11.1029149,7.2694898 11.2123438,7.26953122 L11.2123438,7.26953122 Z M10.3454687,6.40265622 C10.5123868,6.40265622 10.6628662,6.50321364 10.7267283,6.6574319 C10.7905905,6.81165016 10.7552568,6.98915322 10.6372055,7.10715978 C10.5191542,7.22516634 10.3416378,7.26043288 10.1874437,7.1965123 C10.0332497,7.13259172 9.9327493,6.98207433 9.93281247,6.81515625 C9.93281247,6.70572737 9.97629364,6.6007827 10.0536862,6.52341945 C10.1310787,6.4460562 10.2360399,6.4026148 10.3454687,6.40265622 L10.3454687,6.40265622 Z"/>
    <path fill="#26251E" d="M13.990625,13.1875 L13.9734375,13.1875 C13.3615005,13.1864004 12.7582264,13.0428172 12.2114062,12.768125 C11.665986,12.4920033 11.1902614,12.0958243 10.82,11.609375 C10.4944366,11.1825923 10.0769841,10.8345639 9.59859375,10.5910938 C8.59325752,10.0839296 7.40689873,10.0839296 6.4015625,10.5910938 C5.92312152,10.8345534 5.50561589,11.1825815 5.18,11.609375 C4.80967672,12.0956046 4.33395558,12.491567 3.78859375,12.7675 C3.24177892,13.0424322 2.63844593,13.1862307 2.02640625,13.1875 L2.00921875,13.1875 C1.71315706,13.1875 1.43202371,13.0575228 1.24034969,12.8318824 C1.04867567,12.606242 0.965820564,12.3077813 1.01375,12.015625 L2.14359375,5.1059375 C2.38523893,3.62752397 3.6625933,2.54203081 5.160625,2.54203081 L5.89296875,2.54203081 C6.16081675,2.54203081 6.41766483,2.64857174 6.60687135,2.83815931 C6.79607786,3.02774688 6.90210193,3.28480879 6.9015625,3.55265625 C6.90127454,3.64296859 6.93717807,3.72963229 7.00125,3.79328125 C7.06596679,3.85846816 7.15408132,3.89504189 7.2459375,3.89484375 L8.75421875,3.89484375 C8.84560391,3.89484435 8.93322803,3.8584564 8.99772972,3.79372017 C9.0622314,3.72898393 9.09830106,3.6412283 9.09796875,3.54984375 C9.09792716,3.28240711 9.20420102,3.02592347 9.39338054,2.83689049 C9.58256005,2.64785751 9.83912598,2.54178243 10.1065625,2.54203081 L10.8389062,2.54203081 C12.3370148,2.54175947 13.6145955,3.62716061 13.8564062,5.105625 L14.98625,12.015625 C15.0341794,12.3077813 14.9513243,12.606242 14.7596503,12.8318824 C14.5679763,13.0575228 14.2868429,13.1875 13.9907812,13.1875 L13.990625,13.1875 Z M8,9.546875 C8.65986432,9.54494822 9.31073107,9.69993945 9.89890625,9.9990625 C10.466689,10.2879948 10.9621613,10.701013 11.3485937,11.2075 C11.6576527,11.6134918 12.0547426,11.9441241 12.51,12.1745312 C12.9641345,12.4027662 13.4651774,12.5221156 13.9734375,12.5231257 L13.990625,12.5231257 C14.0917195,12.5233313 14.1877795,12.4790262 14.2532507,12.4019959 C14.3187219,12.3249657 14.3469658,12.2230209 14.3304688,12.1232812 L13.200625,5.21296875 C13.0115003,4.0558257 12.0117153,3.2062492 10.8392187,3.2062492 L10.1070312,3.2062492 C10.0151751,3.20605186 9.92706054,3.24262559 9.86234375,3.3078125 C9.79832915,3.37148727 9.76248322,3.45814776 9.7628125,3.5484375 C9.76335193,3.81628496 9.65732786,4.07334687 9.46812135,4.26293444 C9.27891483,4.45252201 9.02206675,4.55906304 8.75421875,4.5590625 L7.24578125,4.5590625 C6.97834473,4.55931132 6.7217788,4.45323624 6.53259929,4.26420326 C6.34341977,4.07517028 6.23714591,3.81868664 6.2371875,3.55125 C6.23751981,3.45986545 6.20145015,3.37210982 6.13694847,3.30737358 C6.07244678,3.24263735 5.98482266,3.2062492 5.8934375,3.2062492 L5.160625,3.2062492 C3.98818756,3.2062492 2.98849016,4.05588404 2.799375,5.21296875 L1.66953125,12.1226562 C1.65303422,12.2223959 1.68127807,12.3243407 1.74674929,12.4013709 C1.81222052,12.4784012 1.90828047,12.5227063 2.009375,12.5225 L2.0265625,12.5225 C2.53482261,12.5214906 3.03586545,12.4021412 3.49,12.1739062 C3.94525739,11.9434991 4.34234732,11.6128668 4.65140625,11.206875 C5.03783871,10.700388 5.53331104,10.2873698 6.10109375,9.9984375 C6.68931634,9.69951404 7.34018451,9.5447367 8,9.546875 Z"/>
    <path fill="#26251E" d="M5.12203125,8.30203125 C4.93856916,8.30203125 4.78984375,8.15330584 4.78984375,7.96984375 L4.78984375,5.66046875 C4.78984375,5.47700666 4.93856916,5.32828125 5.12203125,5.32828125 C5.30549334,5.32828125 5.45421875,5.47700666 5.45421875,5.66046875 L5.45421875,7.96984375 C5.45421875,8.05794535 5.41922052,8.14243854 5.35692328,8.20473578 C5.29462604,8.26703302 5.21013285,8.30203125 5.12203125,8.30203125 L5.12203125,8.30203125 Z"/>
    <path fill="#26251E" d="M6.2765625,7.14734375 L3.9671875,7.14734375 C3.78372541,7.14734375 3.635,6.99861834 3.635,6.81515625 C3.635,6.63169416 3.78372541,6.48296875 3.9671875,6.48296875 L6.2765625,6.48296875 C6.46002459,6.48296875 6.60875,6.63169416 6.60875,6.81515625 C6.60875,6.99861834 6.46002459,7.14734375 6.2765625,7.14734375 L6.2765625,7.14734375 Z M11.2125,6.36875003 C11.0424078,6.3688132 10.8890319,6.26639244 10.8239112,6.10925987 C10.7587906,5.95212729 10.7947541,5.7712383 10.9150275,5.65096497 C11.0353008,5.53069165 11.2161898,5.49472806 11.3733224,5.55984871 C11.5304549,5.62496935 11.6328757,5.77834534 11.6328125,5.9484375 C11.6324683,6.18042696 11.4444895,6.3684058 11.2125,6.36875003 L11.2125,6.36875003 Z M11.2125,5.54359375 C11.0487418,5.54353055 10.9010731,5.64212748 10.8383618,5.79340221 C10.7756504,5.94467693 10.8102485,6.11883307 10.9260207,6.23464997 C11.0417929,6.35046687 11.2159357,6.38513223 11.3672346,6.32247928 C11.5185336,6.25982633 11.6171875,6.11219573 11.6171875,5.9484375 C11.6170155,5.72495545 11.4359819,5.54378205 11.2125,5.5434375 L11.2125,5.54359375 Z M11.2125,8.1025 C10.9803882,8.1025 10.7922163,7.9143514 10.7921875,7.68223956 C10.7921588,7.45012773 10.980284,7.26193253 11.2123959,7.261875 C11.4445077,7.26181749 11.6327262,7.44991943 11.6328125,7.68203125 C11.6325543,7.91408173 11.4445504,8.1021556 11.2125,8.1025 Z M11.2125,7.27734375 C10.9889973,7.27734375 10.8078125,7.45852852 10.8078125,7.68203125 C10.8078125,7.90553398 10.9889973,8.08671875 11.2125,8.08671875 C11.4360027,8.08671875 11.6171875,7.90553398 11.6171875,7.68203125 C11.6169292,7.4586356 11.4358957,7.27760206 11.2125,7.27734375 Z M12.0790625,7.23546875 C11.847012,7.23512369 11.6591453,7.04679086 11.659375,6.8147402 C11.6596052,6.58268955 11.8478448,6.39472942 12.0798955,6.39484421 C12.3119463,6.39495911 12.5,6.58310548 12.5,6.81515625 C12.4996552,7.0473895 12.311296,7.23546875 12.0790625,7.23546875 L12.0790625,7.23546875 Z M12.0790625,6.4103125 C11.8556618,6.41065754 11.674799,6.59196308 11.675,6.81536396 C11.6752014,7.03876485 11.8563904,7.21974434 12.0797914,7.21968702 C12.3031924,7.21962967 12.4842885,7.03855721 12.484375,6.81515625 C12.4841163,6.59151669 12.3027022,6.41038235 12.0790625,6.41046875 L12.0790625,6.4103125 Z M10.3454688,7.23546878 C10.175454,7.23553195 10.0221449,7.13316618 9.95703925,6.97611118 C9.89193362,6.81905617 9.9278552,6.63824665 10.0480514,6.51800572 C10.1682477,6.39776479 10.3490438,6.36177598 10.506123,6.42682321 C10.6632022,6.49187043 10.765625,6.6451415 10.765625,6.81515625 C10.765281,7.04708483 10.5773972,7.23503855 10.3454687,7.23546878 L10.3454688,7.23546878 Z M10.3454688,6.4103125 C10.1817879,6.4103125 10.0342242,6.50891144 9.97158625,6.6601328 C9.90894832,6.81135415 9.94357166,6.98541746 10.0593115,7.10115728 C10.1750513,7.21689709 10.3491146,7.25152043 10.500336,7.1888825 C10.6515573,7.12624456 10.7501562,6.97868081 10.7501562,6.815 C10.7498119,6.59166537 10.5688035,6.41072687 10.3454688,6.41046875 L10.3454688,6.4103125 Z"/>
  </g>
</svg>
