<svg xmlns="http://www.w3.org/2000/svg" xmlns:xlink="http://www.w3.org/1999/xlink" width="14" height="18" viewBox="0 0 14 18">
  <defs>
    <path id="观影记录-a" d="M11.2736842,0.15 C12.0061882,0.15 12.6,0.6872583 12.6,1.35 L12.6,16.05 C12.6,16.7127417 12.0061882,17.25 11.2736842,17.25 L1.32631579,17.25 C0.593811805,17.25 0,16.7127417 0,16.05 L0,1.35 C0,0.6872583 0.593811805,0.15 1.32631579,0.15 L11.2736842,0.15 Z M11.605,13.959 L0.994,13.959 L0.994736842,15.63 C0.994736842,15.9945079 1.26560457,16.2957513 1.61703711,16.3434272 L1.71473684,16.35 L10.8852632,16.35 C11.2497711,16.35 11.5510145,16.0791323 11.5986904,15.7276997 L11.6052632,15.63 L11.605,13.959 Z M6.15,14.276663 C6.64705627,14.276663 7.05,14.6796067 7.05,15.176663 C7.05,15.6737193 6.64705627,16.076663 6.15,16.076663 C5.65294373,16.076663 5.25,15.6737193 5.25,15.176663 C5.25,14.6796067 5.65294373,14.276663 6.15,14.276663 Z M11.605,3.348 L0.994,3.348 L0.994,13.059 L11.605,13.059 L11.605,3.348 Z M10.8852632,1.05 L1.71473684,1.05 C1.35022891,1.05 1.04898552,1.32086773 1.00130959,1.67230026 L0.994736842,1.77 L0.994,2.448 L11.605,2.448 L11.6052632,1.77 C11.6052632,1.37235498 11.2829082,1.05 10.8852632,1.05 Z"/>
  </defs>
  <use fill="#9B9B9B" fill-rule="evenodd" transform="translate(.641 -.15)" xlink:href="#观影记录-a"/>
</svg>
