<svg xmlns="http://www.w3.org/2000/svg" width="12" height="14" viewBox="0 0 12 14">
  <g fill="none" transform="translate(-2 -1)">
    <rect width="16" height="16" fill="#000" opacity="0"/>
    <path fill="#6B400D" d="M6.7078125,8.5015625 C6.0625,8.125 5.68125,7.640625 5.3921875,6.8296875 L5.3703125,6.775 C5.315625,6.6671875 5.20625,6.6015625 5.08125,6.6015625 C5.046875,6.603125 5.015625,6.609375 4.9859375,6.61875 C4.84375,6.66875 4.7578125,6.815625 4.7828125,6.9734375 L4.803125,7.0421875 C5.134375,7.975 5.6015625,8.565625 6.3640625,9.0171875 C6.365625,9.0171875 6.4765625,9.0921875 6.5359375,9.0921875 L6.5796875,9.09375 C6.609375,9.0921875 6.640625,9.0875 6.6703125,9.0765625 C6.8328125,9.01875 6.9171875,8.8390625 6.859375,8.675 C6.834375,8.5953125 6.7765625,8.53125 6.7078125,8.5015625 L6.7078125,8.5015625 Z M4.9671875,6.4515625 C5.0515625,6.4234375 5.1203125,6.365625 5.1625,6.284375 C5.203125,6.2046875 5.209375,6.1140625 5.1828125,6.028125 C5.1375,5.8890625 5.009375,5.796875 4.8640625,5.796875 C4.8296875,5.796875 4.7953125,5.803125 4.759375,5.8140625 C4.584375,5.871875 4.4875,6.0609375 4.5453125,6.2359375 C4.590625,6.375 4.71875,6.4671875 4.8640625,6.4671875 C4.8984375,6.46875 4.9328125,6.4625 4.9671875,6.4515625 L4.9671875,6.4515625 Z"/>
    <path fill="#6B400D" d="M10.66875,10.4578125 C12.1359375,9.55625 13.11875,7.946875 13.11875,6.109375 C13.11875,3.290625 10.8125,0.996875 7.9796875,0.996875 C5.146875,0.996875 2.840625,3.290625 2.840625,6.109375 C2.840625,7.946875 3.8234375,9.55625 5.290625,10.4578125 L3.196875,13.115625 C3.053125,13.3734375 3.03125,13.6625 3.03125,13.8125 C3.03125,14.60625 3.4375,14.9953125 4.065625,14.9953125 L11.8953125,14.9953125 C12.5234375,14.9953125 12.9296875,14.60625 12.9296875,13.8125 C12.9296875,13.534375 12.8796875,13.321875 12.7671875,13.1203125 L10.66875,10.4578125 Z M3.7921875,6.109375 C3.7921875,3.815625 5.6703125,1.9484375 7.9796875,1.9484375 C10.2890625,1.9484375 12.1671875,3.8140625 12.1671875,6.109375 C12.1671875,8.4046875 10.2890625,10.2703125 7.9796875,10.2703125 C5.6703125,10.2703125 3.7921875,8.403125 3.7921875,6.109375 Z M11.5125,14.0171875 L4.4484375,14.0171875 C4.2375,14.0171875 4.096875,13.828125 4.096875,13.6390625 C4.096875,13.5640625 4.096875,13.525 4.1328125,13.45 L6.1234375,10.8703125 C6.7,11.09375 7.325,11.221875 7.98125,11.221875 C8.6375,11.221875 9.2609375,11.0953125 9.8390625,10.8703125 L11.828125,13.45 C11.8625129,13.4875 11.8625129,13.5640625 11.8625129,13.6390625 C11.8640625,13.828125 11.7234375,14.0171875 11.5125,14.0171875 Z"/>
    <path fill="#FFD524" d="M9.8375,10.8703125 C9.2609375,11.09375 8.6359375,11.221875 7.9796875,11.221875 C7.325,11.221875 6.7,11.0953125 6.121875,10.8703125 L4.13125,13.45 C4.0953125,13.525 4.0953125,13.5640625 4.0953125,13.6390625 C4.0953125,13.828125 4.2359375,14.0171875 4.446875,14.0171875 L11.5109375,14.0171875 C11.721875,14.0171875 11.8625,13.828125 11.8625,13.6390625 C11.8625,13.5640625 11.8625,13.4875 11.828125,13.45 L9.8375,10.8703125 Z"/>
  </g>
</svg>
