<svg xmlns="http://www.w3.org/2000/svg" width="23" height="23" viewBox="0 0 23 23">
  <g fill="none" transform="translate(-1 -1)">
    <path fill="#666" d="M17.14,22.81 L13.6,21.36 C12.9602237,21.0922174 12.2397763,21.0922174 11.6,21.36 L8.1,22.92 C7.28046411,23.2765126 6.33409822,23.1779594 5.60560382,22.6602373 C4.87710943,22.1425152 4.47282276,21.2811944 4.54,20.39 L4.82,16.57 C4.87810388,15.8832855 4.65015066,15.2030441 4.19,14.69 L1.64,11.83 C1.04644426,11.1616119 0.846209639,10.2312252 1.11225393,9.37783696 C1.37829823,8.52444872 2.07177197,7.87267611 2.94,7.66 L6.67,6.75 C7.3395372,6.58555977 7.91346582,6.1560157 8.26,5.56 L10.2,2.26 C10.6497243,1.4877314 11.4722047,1.00862308 12.3658185,0.998375217 C13.2594324,0.988127352 14.0926837,1.44824792 14.56,2.21 L16.56,5.46 C16.9215853,6.05600339 17.5164557,6.47313811 18.2,6.61 L21.94,7.43 C22.8104546,7.62638148 23.5158427,8.26184841 23.8016956,9.10715609 C24.0875484,9.95246377 23.912614,10.8856243 23.34,11.57 L20.86,14.49 C20.412122,15.016189 20.1989514,15.7026706 20.27,16.39 L20.64,20.2 C20.727038,21.0889824 20.3425788,21.9586995 19.6265221,22.4926733 C18.9104653,23.026647 17.9672123,23.1470238 17.14,22.81 Z M17.94,21.2 C18.1612798,21.2849788 18.4105325,21.2522016 18.6023195,21.1129036 C18.7941065,20.9736057 18.9023701,20.7467132 18.89,20.51 L18.35,15.06 C18.3302773,14.8751654 18.388229,14.6904444 18.51,14.55 L22.06,10.36 C22.2173264,10.178494 22.2672237,9.92745177 22.1912658,9.69957807 C22.1153079,9.47170438 21.9247647,9.30080896 21.69,9.25 L16.31,8.07 C16.12788,8.02943655 15.9694905,7.91784399 15.87,7.76 L12.98,3.09 C12.8549259,2.88374021 12.6312191,2.75777088 12.39,2.75777088 C12.1487809,2.75777088 11.9250741,2.88374021 11.8,3.09 L9,7.82 C8.91257547,7.98213895 8.75952785,8.09874666 8.58,8.14 L3.24,9.44 C3.00473647,9.49771956 2.81697193,9.67458295 2.74530086,9.90597814 C2.67362978,10.1373733 2.72855077,10.3894048 2.89,10.57 L6.5,14.66 C6.62431213,14.7994333 6.68578971,14.9838661 6.67,15.17 L6.26,20.63 C6.23894554,20.8801021 6.35340281,21.1223351 6.55998501,21.2648768 C6.76656721,21.4074185 7.03365324,21.4284504 7.26,21.32 L12.31,19.12 C12.4822842,19.0454658 12.6777158,19.0454658 12.85,19.12 L17.94,21.2 Z"/>
    <rect width="1.94" height="4.96" x="6.686" y="9.75" fill="#FFD952" rx=".97" transform="rotate(-39.17 7.656 12.23)"/>
  </g>
</svg>
