<svg xmlns="http://www.w3.org/2000/svg" width="26" height="18" viewBox="0 0 26 18">
  <g fill="none" transform="translate(-1)">
    <path fill="#666" d="M22.43,7.48 C21.7746754,3.18868298 18.0910422,0.0143078297 13.75,1.77635684e-15 L13.75,1.77635684e-15 C9.40791874,0.0157681711 5.72635364,3.19626675 5.08,7.49 C2.48694411,8.03393099 0.727229413,10.4533304 1.00848569,13.0878502 C1.28974197,15.72237 3.52055633,17.7157482 6.17,17.7 L21.37,17.7 C24.0009433,17.6763478 26.1945063,15.6805819 26.4659379,13.0635709 C26.7373696,10.4465598 25.0000871,8.04309366 22.43,7.48 L22.43,7.48 Z"/>
    <path fill="#FFD952" d="M21.06,8.94 L20.93,8.94 C20.93,8.94 20.93,8.85 20.93,8.81 C21.0281667,6.17911493 19.6805887,3.70495546 17.4171305,2.36035512 C15.1536724,1.01575478 12.3363276,1.01575478 10.0728695,2.36035512 C7.80941129,3.70495546 6.46183334,6.17911493 6.56,8.81 C6.56,8.81 6.56,8.89 6.56,8.94 C4.98815902,8.89625892 3.56037348,9.8507897 3,11.32 C2.64397634,12.42181 2.84283466,13.6277758 3.53375827,14.556949 C4.22468188,15.4861221 5.32234109,16.0237488 6.48,16 L21.18,16 C22.5059378,15.9183342 23.7116469,15.2038399 24.42,14.08 C24.8032904,13.3526076 24.9166555,12.5129969 24.74,11.71 C24.1898979,10.124861 22.7354592,9.03007973 21.06,8.94 Z"/>
    <rect width="5.55" height="1.64" x="8.689" y="10.935" fill="#666" rx=".79" transform="rotate(45 11.464 11.755)"/>
    <rect width="8.24" height="1.64" x="11.098" y="9.984" fill="#666" rx=".82" transform="rotate(135 15.218 10.804)"/>
  </g>
</svg>
