<svg xmlns="http://www.w3.org/2000/svg" width="26" height="19" viewBox="0 0 26 19">
  <g fill="none" transform="translate(-1)">
    <path fill="#666" d="M20.1876521,16.01 C20.1887572,16.0034363 20.1895504,16 20.19,16 L21.19,16 C22.526184,15.9435518 23.7457564,15.223066 24.44,14.08 C24.8182391,13.3508527 24.9279754,12.5119011 24.75,11.71 C24.1904684,10.1019613 22.7014726,9.00208976 21,8.94 L20.9,8.94 L20.9,8.81 C20.9,4.8445955 17.6854045,1.63 13.72,1.63 C9.7545955,1.63 6.54,4.8445955 6.54,8.81 C6.54,8.81 6.54,8.89 6.54,8.94 C4.97453322,8.90182938 3.55546182,9.85589433 3,11.32 C2.64579886,12.4167106 2.84123808,13.616875 3.52509672,14.5445441 C4.20895536,15.4722132 5.29759443,16.0139289 6.45,16 L7.53,16 L7.53129412,16.01 L7.87,16.01 C8.33391919,16.01 8.71,16.3860808 8.71,16.85 L8.71,16.86 C8.71,17.3239192 8.33391919,17.7 7.87,17.7 L7.75,17.7 L6.17,17.7 C3.52055633,17.7157482 1.28974197,15.72237 1.00848569,13.0878502 C0.727229413,10.4533304 2.48694411,8.03393099 5.08,7.49 C5.72635364,3.19626675 9.40791874,0.0157681711 13.75,4.97379915e-14 C18.0910422,0.0143078297 21.7746754,3.18868298 22.43,7.48 C25.0000871,8.04309366 26.7373696,10.4465598 26.4659379,13.0635709 C26.1945063,15.6805819 24.0009433,17.6763478 21.37,17.7 L20,17.7 L19.9,17.7 C19.4360808,17.7 19.06,17.3239192 19.06,16.86 L19.06,16.85 C19.06,16.3860808 19.4360808,16.01 19.9,16.01 L20.1876521,16.01 Z"/>
    <path fill="#666" d="M12.98,15.2373456 L12.98,10.63 C12.98,10.1771265 13.3471265,9.81 13.8,9.81 C14.2528735,9.81 14.62,10.1771265 14.62,10.63 L14.62,15.2274863 L16.0070404,13.8404459 C16.3155546,13.5319317 16.815755,13.5319317 17.1242691,13.8404459 L17.1666956,13.8828723 C17.4752097,14.1913865 17.4752097,14.6915868 17.1666956,15.000101 L14.4832713,17.6835252 C14.3363567,17.9044213 14.0851792,18.05 13.8,18.05 C13.5292649,18.05 13.2891744,17.9187948 13.1398452,17.7165011 L10.427618,15.0042738 C10.1191038,14.6957596 10.1191038,14.1955593 10.427618,13.8870451 L10.4700444,13.8446187 C10.7785586,13.5361045 11.2787589,13.5361045 11.5872731,13.8446187 L12.98,15.2373456 Z"/>
    <path fill="#FFD952" d="M8.64,6.15 C8.64,6.15 8.73,6 8.78,5.91 C9.34433447,4.90213872 10.1744939,4.06852026 11.18,3.5 L11.4,3.39 C11.7555556,3.12333333 12.2444444,3.12333333 12.6,3.39 C12.7520997,3.53864171 12.8378451,3.74232968 12.8378451,3.955 C12.8378451,4.16767032 12.7520997,4.37135829 12.6,4.52 C12.5196069,4.5959899 12.42867,4.65998253 12.33,4.71 C11.2821793,5.23554251 10.4381526,6.09363636 9.93,7.15 C9.90347819,7.19564084 9.87338415,7.23911001 9.84,7.28 C9.51540374,7.58984227 9.00459626,7.58984227 8.68,7.28 C8.32,7 8.47,6.52 8.64,6.15 Z"/>
  </g>
</svg>
