<svg xmlns="http://www.w3.org/2000/svg" width="25" height="23" viewBox="0 0 25 23">
  <g fill="none">
    <path fill="#666" d="M10.27,23 C9.14552684,23.0080244 8.11099053,22.3865306 7.59,21.39 L7.37,21 C7.07275406,20.4431149 6.91814598,19.8212469 6.92,19.19 L6.92,8.66 C6.91271584,7.86889963 7.21821621,7.10694576 7.77,6.54 L13.48,0.64 C13.8763344,0.239378297 14.4164588,0.0139474384 14.98,0.0139474384 C15.5435412,0.0139474384 16.0836656,0.239378297 16.48,0.64 C16.9453845,1.10482462 17.1736111,1.75637467 17.1,2.41 L16.6,6.66 C16.593174,6.77664894 16.6748971,6.87987807 16.79,6.9 L22.74,6.9 C23.8952746,6.91084836 24.8291516,7.8447254 24.84,9 C24.84,9.07 24.84,9.15 24.84,9.22 L24.39,13.39 C24.3832981,13.4835109 24.3595756,13.5750119 24.32,13.66 L21.2,21.15 C20.7297726,22.283268 19.6168475,23.0159766 18.39,23 L10.27,23 Z M2.13,22.05 C0.953633483,22.05 7.29746938e-14,21.0963665 7.28306304e-14,19.92 L7.28306304e-14,10.44 C7.26865671e-14,9.26363348 0.953633483,8.31 2.13,8.31 L4.13,8.31 C4.69664177,8.30733968 5.24098816,8.53057478 5.64260607,8.93031597 C6.04422398,9.33005716 6.27000624,9.87335199 6.27,10.44 L6.27,19.92 C6.27000624,20.486648 6.04422398,21.0299428 5.64260607,21.429684 C5.24098816,21.8294252 4.69664177,22.0526603 4.13,22.05 L2.13,22.05 Z M4,9.46 L2.35,9.46 C1.81322975,9.5128024 1.41504749,9.98177261 1.45,10.52 L1.45,19.39 C1.41504749,19.9282274 1.81322975,20.3971976 2.35,20.45 L4,20.45 C4.53276561,20.3922145 4.92527805,19.9247278 4.89,19.39 L4.89,10.52 C4.92527805,9.98527221 4.53276561,9.51778548 4,9.46 Z M15.43,3 C15.57,2.15 15.14,1.29 14.25,2.32 L9.25,7.63 C8.89050721,7.97538131 8.67296145,8.44256975 8.64,8.94 L8.64,18.68 C8.6384115,19.1359732 8.73743099,19.5866826 8.93,20 L9.13,20.4 C9.48882105,20.9940818 10.147151,21.3405713 10.84,21.3 L17.94,21.3 C18.6817809,21.29209 19.3436416,20.8323544 19.61,20.14 L22.54,13 L22.95,9.48 C22.95,9.45 22.95,9.37 22.95,9.37 C23.03,8.66 22.55,8.37 21.73,8.37 L15.73,8.37 C15.1346663,8.19719603 14.7559167,7.61417699 14.84,7 C14.84,7 15.43,3.35 15.43,3 Z"/>
    <rect width="1.94" height="8.97" x="10.04" y="9.72" fill="#FFD952" rx=".91"/>
  </g>
</svg>
