<svg xmlns="http://www.w3.org/2000/svg" width="25" height="23" viewBox="0 0 25 23">
  <g fill="none" fill-rule="evenodd" transform="translate(0 -1)">
    <path stroke="#666" stroke-width="2" d="M4.17,9.9 C4.78643122,9.89432803 5.29365997,10.3837593 5.31,11 L5.31,20.48 C5.3100118,20.7814353 5.18958684,21.0703812 4.97550299,21.2825871 C4.76141913,21.494793 4.47142351,21.6126676 4.17,21.61 L2.17,21.61 C1.86857323,21.6207781 1.57534711,21.5106028 1.35559761,21.3040007 C1.13584812,21.0973986 1.00781496,20.8115181 1,20.51 L1,11 C1.01626239,10.3876646 1.51744869,9.89978409 2.13,9.9 L4.17,9.9 Z M15.55,2.61 C15.8073771,2.8507721 15.9337992,3.2002918 15.89,3.55 L15.4,7.66 C15.3296607,8.28366461 15.7766555,8.84687806 16.4,8.92 L22.29,8.92 C22.9140818,8.92 23.42,9.42591823 23.42,10.05 L23.42,10.17 L23,14.05 C22.9887123,14.1599328 22.9617734,14.2676886 22.92,14.37 L19.71,22 C19.5297644,22.4195217 19.1165986,22.6910307 18.66,22.69 L9.66,22.69 C9.24124141,22.6907416 8.85640855,22.4598418 8.66,22.09 L8,20.86 C7.90852819,20.6983139 7.86030825,20.515767 7.86,20.33 L7.86,9.39 C7.86153868,9.0953992 7.97608062,8.81262381 8.18,8.6 L13.98,2.6 C14.4205839,2.17986941 15.1148036,2.18429119 15.55,2.61 Z"/>
    <path fill="#666" fill-rule="nonzero" d="M10.27,24 C9.14552684,24.0080244 8.11099053,23.3865306 7.59,22.39 L7.37,22 C7.07275406,21.4431149 6.91814598,20.8212469 6.92,20.19 L6.92,9.66 C6.91271584,8.86889963 7.21821621,8.10694576 7.77,7.54 L13.48,1.64 C14.1113754,0.987413321 15.0894488,0.811944903 15.9082993,1.20435803 C16.7271499,1.59677116 17.2031167,2.46905115 17.09,3.37 L16.59,7.62 C16.583174,7.73664894 16.6648971,7.83987807 16.78,7.86 L22.73,7.86 C23.2940061,7.86263528 23.8337132,8.08990718 24.229705,8.49152921 C24.6256968,8.89315124 24.845327,9.43601294 24.84,10 C24.8449852,10.0732486 24.8449852,10.1467514 24.84,10.22 L24.39,14.39 C24.3832981,14.4835109 24.3595756,14.5750119 24.32,14.66 L21.2,22.15 C20.7297726,23.283268 19.6168475,24.0159766 18.39,24 L10.27,24 Z M2.13,23.05 C0.953633483,23.05 1.44063349e-16,22.0963665 0,20.92 L0,11.44 C-1.44063349e-16,10.2636335 0.953633483,9.31 2.13,9.31 L4.13,9.31 C4.69664177,9.30733968 5.24098816,9.53057478 5.64260607,9.93031597 C6.04422398,10.3300572 6.27000624,10.873352 6.27,11.44 L6.27,20.92 C6.27000624,21.486648 6.04422398,22.0299428 5.64260607,22.429684 C5.24098816,22.8294252 4.69664177,23.0526603 4.13,23.05 L2.13,23.05 Z"/>
    <path fill="#FFD952" fill-rule="nonzero" d="M4,10.46 C4.53276561,10.5177855 4.92527805,10.9852722 4.89,11.52 L4.89,20.39 C4.92527805,20.9247278 4.53276561,21.3922145 4,21.45 L2.35,21.45 C1.81322975,21.3971976 1.41504749,20.9282274 1.45,20.39 L1.45,11.52 C1.41504749,10.9817726 1.81322975,10.5128024 2.35,10.46 L4,10.46 Z M15.43,4 C15.43,4.35 14.84,8 14.84,8 C14.7559167,8.61417699 15.1346663,9.19719603 15.73,9.37 L21.73,9.37 C22.55,9.37 23.03,9.66 22.95,10.37 C22.95,10.37 22.95,10.45 22.95,10.48 L22.54,14 L22.54,14 L19.61,21.14 C19.3436416,21.8323544 18.6817809,22.29209 17.94,22.3 L10.84,22.3 C10.147151,22.3405713 9.48882105,21.9940818 9.13,21.4 L8.93,21 C8.73743099,20.5866826 8.6384115,20.1359732 8.64,19.68 L8.64,9.94 C8.67296145,9.44256975 8.89050721,8.97538131 9.25,8.63 L14.25,3.32 C15.14,2.29 15.57,3.15 15.43,4 Z"/>
  </g>
</svg>
