<svg xmlns="http://www.w3.org/2000/svg" width="25" height="23" viewBox="0 0 25 23">
  <g fill="none">
    <path fill="#666" d="M10.27,6.04876392e-16 C9.14552684,-0.00802438007 8.11099053,0.613469448 7.59,1.61 L7.37,2 C7.07157067,2.55642948 6.91688704,3.17860144 6.92,3.81 L6.92,14.31 C6.91271584,15.1011004 7.21821621,15.8630542 7.77,16.43 L13.48,22.33 C13.8763344,22.7306217 14.4164588,22.9560526 14.98,22.9560526 C15.5435412,22.9560526 16.0836656,22.7306217 16.48,22.33 C16.9453845,21.8651754 17.1736111,21.2136253 17.1,20.56 L16.6,16.31 C16.588174,16.1918305 16.6722698,16.0856042 16.79,16.07 L22.74,16.07 C23.8838121,16.0595259 24.8130701,15.143543 24.84,14 C24.84,13.93 24.84,13.85 24.84,13.78 L24.39,9.6 C24.3821184,9.50989467 24.3584229,9.42188266 24.32,9.34 L21.19,1.87 C20.727427,0.732293165 19.6181194,-0.00856582217 18.39,6.04876392e-16 L10.27,6.04876392e-16 Z M2.13,1 C0.972886253,0.999681151 0.0271622516,1.92320506 0,3.08 L0,12.56 C0.00547371034,13.7340918 0.955908242,14.6845263 2.13,14.69 L4.13,14.69 C5.30799511,14.6900129 6.26449535,13.7379822 6.27,12.56 L6.27,3.08 C6.24321849,1.93476616 5.31543768,1.01582136 4.17,1 L2.13,1 Z"/>
    <path fill="#FFD952" d="M3.89,13.31 C4.40665995,13.2378939 4.78109074,12.78074 4.75,12.26 L4.75,3.45 C4.78109074,2.92925998 4.40665995,2.47210612 3.89,2.4 L2.33,2.4 C1.80933485,2.46735865 1.42941076,2.92588772 1.46,3.45 L1.46,12.26 C1.42941076,12.7841123 1.80933485,13.2426414 2.33,13.31 L3.89,13.31 Z M15.33,19.81 C15.28,19.46 14.74,15.81 14.74,15.81 C14.6559167,15.195823 15.0346663,14.612804 15.63,14.44 L21.63,14.44 C22.45,14.44 22.93,14.15 22.85,13.39 C22.85,13.39 22.85,13.31 22.85,13.27 L22.46,9.82 L22.46,9.82 L19.51,2.7 C19.2427239,2.00976922 18.580164,1.55351536 17.84,1.55 L10.74,1.55 C10.0366929,1.49789532 9.36388939,1.84589714 9,2.45 L8.8,2.82 C8.60846625,3.23720392 8.50953322,3.6909313 8.51,4.15 L8.51,13.91 C8.54296145,14.4074303 8.76050721,14.8746187 9.12,15.22 L14.12,20.53 C15,21.56 15.47,20.7 15.33,19.81 Z"/>
  </g>
</svg>
