<?xml version="1.0" encoding="UTF-8"?>
<svg width="36px" height="36px" viewBox="0 0 36 36" version="1.1" xmlns="http://www.w3.org/2000/svg" xmlns:xlink="http://www.w3.org/1999/xlink">
    <!-- Generator: Sketch 61.2 (89653) - https://sketch.com -->
    <title>编组 3</title>
    <desc>Created with Sketch.</desc>
    <g id="页面-1" stroke="none" stroke-width="1" fill="none" fill-rule="evenodd">
        <g id="收费影片" transform="translate(-15.000000, -322.000000)">
            <g id="编组-3" transform="translate(16.000000, 323.000000)">
                <circle id="形状结合" fill="#FFE300" cx="17" cy="18" r="16"></circle>
                <circle id="椭圆形" stroke="#333333" cx="17" cy="17" r="17"></circle>
                <g id="钻石" transform="translate(7.000000, 10.000000)" fill="#333333" fill-rule="nonzero">
                    <path d="M19.4918974,5.92867494 L7.86834508,5.92867494 C7.64713561,5.92867494 7.486256,5.74768537 7.48625599,5.54658585 C7.48625599,5.32537638 7.66724556,5.16449676 7.86834508,5.16449676 L18.4662898,5.16449676 L13.8410008,1.02184664 L6.15899916,1.02184664 L1.53371019,5.16449676 L4.71108261,5.16449676 C4.93229209,5.16449676 5.0931717,5.34548633 5.0931717,5.54658585 C5.0931717,5.76779532 4.91218213,5.92867494 4.71108261,5.92867494 L0.508102637,5.92867494 C0.347223021,5.92867494 0.206453357,5.82812518 0.1461235,5.66724556 C0.0857936434,5.50636595 0.126013548,5.34548633 0.24667326,5.24493657 L5.73669017,0.317998321 C5.81712998,0.257668465 5.89756978,0.21744856 5.99811954,0.21744856 L13.9817705,0.21744856 C14.0823203,0.21744856 14.1627601,0.257668465 14.2431999,0.317998321 L19.7332168,5.24493657 C19.8538765,5.34548633 19.8940964,5.5264759 19.8337665,5.66724556 C19.7935466,5.82812518 19.652777,5.92867494 19.4918974,5.92867494 L19.4918974,5.92867494 Z" id="路径"></path>
                    <path d="M10,15.7825514 C9.89945024,15.7825514 9.79890048,15.7423315 9.71846067,15.6618917 C9.61791091,15.561342 0.648872302,6.23032422 0.24667326,5.80801523 C0.0857936439,5.64713561 0.0857936439,5.40581619 0.24667326,5.24493657 C0.407552877,5.08405695 0.648872301,5.08405695 0.809751918,5.24493657 C1.19184101,5.62702566 8.45153369,13.1883676 10.02011,14.8172737 L19.230468,5.26504652 C19.3712377,5.10416691 19.632667,5.10416691 19.7935466,5.24493657 C19.9544263,5.38570623 19.9544263,5.64713561 19.8136566,5.80801523 L10.3217592,15.6618917 C10.2010995,15.7423315 10.1005498,15.7825514 10,15.7825514 Z" id="路径"></path>
                    <path d="M10,15.7825514 C9.85923034,15.7825514 9.71846067,15.7021116 9.65813082,15.5814519 L4.30888357,5.72757542 C4.26866367,5.64713561 4.24855372,5.5264759 4.26866367,5.44603609 L5.63614041,0.519097841 C5.69647026,0.317998321 5.91767974,0.197338609 6.11877926,0.237558512 C6.31987878,0.297888368 6.44053849,0.519097841 6.40031858,0.720197361 L5.07306175,5.48625599 L10.3619791,15.1993628 C10.4625289,15.3803524 10.402199,15.6216718 10.2010995,15.7222216 C10.1206597,15.7624415 10.0603299,15.7825514 10,15.7825514 L10,15.7825514 Z" id="路径"></path>
                    <path d="M10,15.7825514 C9.93967014,15.7825514 9.87934029,15.7624415 9.81901043,15.7423315 C9.63802086,15.6417818 9.55758106,15.4004624 9.65813082,15.2194728 L14.9470482,5.50636595 L13.6197914,0.720197361 C13.5594615,0.519097841 13.6801212,0.297888369 13.9013307,0.237558512 C14.1024302,0.177228656 14.3236397,0.297888368 14.3839695,0.519097841 L15.7514463,5.44603609 C15.7715562,5.54658585 15.7715562,5.64713561 15.7112264,5.72757542 L10.3619791,15.5814519 C10.2815393,15.7021116 10.1407697,15.7825514 10,15.7825514 L10,15.7825514 Z" id="路径"></path>
                </g>
            </g>
        </g>
    </g>
</svg>