<?xml version="1.0" encoding="UTF-8"?>
<svg width="50px" height="50px" viewBox="0 0 50 50" version="1.1" xmlns="http://www.w3.org/2000/svg" xmlns:xlink="http://www.w3.org/1999/xlink">
    <!-- Generator: Sketch 61.2 (89653) - https://sketch.com -->
    <title>泡吧</title>
    <desc>Created with Sketch.</desc>
    <g id="泡吧" stroke="none" stroke-width="1" fill="none" fill-rule="evenodd">
        <g id="编组-11">
            <rect id="矩形" fill="#000000" fill-rule="nonzero" opacity="0" x="0" y="0" width="50" height="50"></rect>
            <g id="图标/原型/视频备份-4复制" transform="translate(7.692308, 7.692308)" stroke="#979797" stroke-width="3.69230769">
                <path d="M11.2309373,1.62359926 C10.7487639,1.82314659 10.2773079,2.04337133 9.81767321,2.28316876 M2.26885846,9.84197311 C0.996231113,12.2885442 0.276923077,15.069313 0.276923077,18.0181887 C0.276923077,27.812401 8.2118149,35.7521789 18,35.7521789 L18,35.7521789 C27.7881851,35.7521789 35.7230769,27.812401 35.7230769,18.0181887 C35.7230769,8.2239764 27.7881851,0.28419856 18,0.28419856 C17.2324417,0.28419856 16.4762798,0.333021811 15.7344466,0.427733959" id="形状" stroke-linecap="round"></path>
                <path d="M20.545368,13.6837398 L25.5174796,22.3795805 C25.8548791,22.9696663 25.6500364,23.7215418 25.0599506,24.0589414 C24.8739163,24.1653121 24.6633323,24.2212656 24.4490346,24.2212656 L14.5048115,24.2212656 C13.8250764,24.2212656 13.2740423,23.6702315 13.2740423,22.9904964 C13.2740423,22.7761987 13.3299958,22.5656147 13.4363666,22.3795805 L18.4084781,13.6837398 C18.7458777,13.093654 19.4977531,12.8888112 20.087839,13.2262108 C20.2784255,13.3351844 20.4363944,13.4931533 20.545368,13.6837398 Z" id="三角形" transform="translate(19.476923, 18.018189) rotate(-270.000000) translate(-19.476923, -18.018189) "></path>
            </g>
        </g>
    </g>
</svg>