<?xml version="1.0" encoding="UTF-8"?>
<svg width="50px" height="50px" viewBox="0 0 50 50" version="1.1" xmlns="http://www.w3.org/2000/svg" xmlns:xlink="http://www.w3.org/1999/xlink">
    <!-- Generator: Sketch 61.2 (89653) - https://sketch.com -->
    <title>泡吧</title>
    <desc>Created with Sketch.</desc>
    <g id="泡吧" stroke="none" stroke-width="1" fill="none" fill-rule="evenodd">
        <g id="图标/原型/视频备份-4复制">
            <rect id="矩形" fill="#000000" fill-rule="nonzero" opacity="0" x="2.18628534e-13" y="-1.74902827e-12" width="50" height="50"></rect>
            <circle id="椭圆形" fill="#FFE301" cx="26.9230769" cy="27.2262221" r="15.3846154"></circle>
            <path d="M18.923245,9.31590696 C18.4410716,9.51545428 17.9696155,9.73567902 17.5099809,9.97547645 M9.96116615,17.5342808 C8.68853881,19.9808519 7.96923077,22.7616207 7.96923077,25.7104964 C7.96923077,35.5047087 15.9041226,43.4444865 25.6923077,43.4444865 L25.6923077,43.4444865 C35.4804928,43.4444865 43.4153846,35.5047087 43.4153846,25.7104964 C43.4153846,15.9162841 35.4804928,7.97650625 25.6923077,7.97650625 C24.9247494,7.97650625 24.1685874,8.0253295 23.4267543,8.12004165" id="形状" stroke="#333333" stroke-width="3.69230769" stroke-linecap="round"></path>
            <path d="M28.2376757,21.3760475 L33.2097873,30.0718882 C33.5471868,30.661974 33.3423441,31.4138495 32.7522583,31.7512491 C32.566224,31.8576198 32.35564,31.9135733 32.1413423,31.9135733 L22.1971192,31.9135733 C21.5173841,31.9135733 20.96635,31.3625392 20.96635,30.6828041 C20.96635,30.4685064 21.0223035,30.2579224 21.1286743,30.0718882 L26.1007858,21.3760475 C26.4381854,20.7859617 27.1900608,20.5811189 27.7801467,20.9185185 C27.9707332,21.0274921 28.1287021,21.185461 28.2376757,21.3760475 Z" id="三角形" stroke="#333333" stroke-width="3.69230769" transform="translate(27.169231, 25.710496) rotate(-270.000000) translate(-27.169231, -25.710496) "></path>
        </g>
    </g>
</svg>