<?xml version="1.0" encoding="UTF-8"?>
<svg width="21px" height="19px" viewBox="0 0 21 19" version="1.1" xmlns="http://www.w3.org/2000/svg" xmlns:xlink="http://www.w3.org/1999/xlink">
    <!-- Generator: Sketch 59.1 (86144) - https://sketch.com -->
    <title>收费-金币</title>
    <desc>Created with Sketch.</desc>
    <g id="页面-1" stroke="none" stroke-width="1" fill="none" fill-rule="evenodd">
        <g id="首页" transform="translate(-296.000000, -102.000000)">
            <g id="Group1" transform="translate(0.000000, 99.000000)">
                <g id="矩形">
                    <g id="编组-59" transform="translate(297.000000, 1.000000)">
                        <g id="收费-金币" transform="translate(0.000000, 2.000000)">
                            <g id="编组-8" transform="translate(0.000000, 0.950000)">
                                <ellipse id="椭圆形" fill="#FFFFFF" fill-rule="nonzero" cx="10.0263317" cy="8.62025326" rx="9.04761905" ry="8.5952381"></ellipse>
                                <ellipse id="椭圆形" fill="#FF8600" fill-rule="nonzero" cx="10.4761905" cy="9.18801312" rx="8.57142857" ry="8.14285714"></ellipse>
                                <ellipse id="椭圆形" fill="#FFEB5A" fill-rule="nonzero" cx="10" cy="8.73563218" rx="8.0952381" ry="7.69047619"></ellipse>
                                <path d="M15.4079041,2.46484102 C13.773169,0.940269259 11.5325619,0 9.06078464,0 C4.0566513,0 -2.85714286e-07,3.85381901 -2.85714286e-07,8.60774568 C-2.85714286e-07,13.3616724 4.0566513,17.2154913 9.06078464,17.2154913 C14.064918,17.2154913 18.1215695,13.3616724 18.1215695,8.60774568 C18.1215695,7.14159098 17.7357162,5.76105114 17.055216,4.55277244" id="路径" stroke="#000000" stroke-width="0.952380952" stroke-linecap="round" transform="translate(9.060785, 8.607746) scale(-1, 1) translate(-9.060785, -8.607746) "></path>
                                <ellipse id="椭圆形" fill="#D58C67" fill-rule="nonzero" cx="18.8286809" cy="3.35905857" rx="1" ry="1"></ellipse>
                                <path d="M8.79538092,7.22509855 C7.75793557,5.09601704 5.48909978,3.61904812 2.85714338,3.61904812 M9.11796617,11.6341092 C9.29960515,11.0637832 9.39725881,10.4588044 9.39725881,9.83215777" id="形状" stroke="#FFFFFF" stroke-width="0.806614237" stroke-linecap="round" transform="translate(6.127201, 7.626579) rotate(-131.000000) translate(-6.127201, -7.626579) "></path>
                                <path d="M9.90794848,2.71428571 L9.90794848,3.58434443 C10.7260257,3.64020005 11.3684422,3.81206349 11.835198,4.09993477 C12.6833885,4.55966949 13.1225404,5.3051272 13.1526537,6.33630789 L13.1526537,6.33630789 L11.1727059,6.33630789 C11.132555,5.95391172 11.0572717,5.67463362 10.9468564,5.49847358 C10.756139,5.19341596 10.4098364,5.02584909 9.90794848,4.995773 L9.90794848,4.995773 L9.90794848,7.45127202 C11.1024416,7.80359208 11.9054623,8.11509459 12.3170104,8.38577952 C12.994559,8.83692107 13.3333333,9.4728158 13.3333333,10.2934638 C13.3333333,11.3762035 12.869087,12.1624788 11.9405945,12.6522896 C11.3734611,12.9530507 10.7009313,13.1292107 9.92300514,13.1807698 L9.92300514,13.1807698 L9.92300514,14.4761905 L9.19275821,14.4761905 L9.19275821,13.1936595 C8.20403906,13.0991346 7.46626386,12.9143814 6.9794326,12.6393999 C6.1212043,12.1452925 5.69961848,11.3031615 5.71467511,10.1130071 L5.71467511,10.1130071 L7.74732108,10.1130071 C7.81758538,10.654377 7.91545352,11.0174385 8.0409255,11.2021918 C8.23666177,11.4900631 8.62060601,11.6769645 9.19275821,11.7628963 L9.19275821,11.7628963 L9.19275821,9.01093281 L8.58296442,8.85625571 C7.62435854,8.61564688 6.94806461,8.28051316 6.55408261,7.85085453 C6.16010062,7.42119591 5.96310962,6.90345728 5.96310962,6.29763862 C5.96310962,5.8980561 6.03964752,5.53499456 6.19272333,5.20845401 C6.34579913,4.88191346 6.56035621,4.60048706 6.83639455,4.36417482 C7.19273495,4.0591172 7.58922639,3.84858447 8.02586886,3.73257665 C8.29186945,3.65953468 8.68083256,3.60582736 9.19275821,3.57145466 L9.19275821,3.57145466 L9.19275821,2.71428571 L9.90794848,2.71428571 Z M10.1156679,9.12987014 L10.1156679,11.8818585 C10.7777706,11.5926559 11.1088219,11.1000305 11.1088219,10.4039821 C11.1088219,9.70793365 10.7777706,9.28322963 10.1156679,9.12987014 L10.1156679,9.12987014 Z M8.97959184,4.85281385 L8.82721868,4.86157984 C8.5341634,4.88968074 8.31125432,4.98119518 8.15849147,5.13612314 C7.98026813,5.31687243 7.89115647,5.56362567 7.89115647,5.87638287 C7.89115647,6.21757255 8.02482396,6.48768105 8.29215897,6.68670835 C8.44067842,6.79637646 8.6698227,6.89792101 8.97959184,6.99134199 L8.97959184,6.99134199 L8.97959184,4.85281385 Z" id="形状结合" fill="#FF8600" fill-rule="nonzero"></path>
                            </g>
                        </g>
                    </g>
                </g>
            </g>
        </g>
    </g>
</svg>