<?xml version="1.0" encoding="UTF-8"?>
<svg width="50px" height="50px" viewBox="0 0 50 50" version="1.1" xmlns="http://www.w3.org/2000/svg" xmlns:xlink="http://www.w3.org/1999/xlink">
    <!-- Generator: Sketch 61.2 (89653) - https://sketch.com -->
    <title>泡吧</title>
    <desc>Created with Sketch.</desc>
    <g id="泡吧" stroke="none" stroke-width="1" fill="none" fill-rule="evenodd">
        <g id="酒杯" fill-rule="nonzero">
            <rect id="矩形" fill="#000000" opacity="0" x="0" y="0" width="50" height="50"></rect>
            <g id="编组-2" transform="translate(6.974359, 6.037350)" fill="#979797">
                <path d="M0.995335602,15.52515 C0.995335602,13.884525 1.6543981,12.322025 2.8768981,10.9939 C4.5700231,9.27515001 7.7697106,8.02515001 10.5925231,9.11890001 C11.6275231,9.50952501 12.5687731,10.0564 13.3206481,10.759525 L13.6965856,11.072025 C13.9787731,11.3064 14.3556481,11.540775 14.7315856,11.77515 C16.5193981,12.8689 18.7768981,13.02515 20.7531481,12.2439 C21.7881481,11.77515 22.4462731,10.83765 22.8231481,9.19702501 C23.0115856,8.57202501 23.5034963,8.13432986 24.5384963,8.36870486 C25.5734963,8.60307986 25.6459606,9.97827501 25.4575231,10.603275 C24.8931481,12.947025 23.7643981,14.4314 21.9765856,15.21265 C19.1537731,16.384525 15.6728356,16.15015 13.1322106,14.58765 C12.6615856,14.353275 11.9097106,13.8064 11.5328356,13.4939 C10.9239231,12.9911572 10.2257417,12.5695502 9.4628356,12.2439 C7.8634606,11.6189 5.9818981,12.40015 4.9468981,13.4939 C4.1003356,14.353275 3.7234606,15.52515 3.7234606,16.6189 C3.6297106,17.08765 2.9715856,16.6189 2.3125231,16.6189 C1.5597106,16.6189 0.995335602,16.15015 0.995335602,15.52515 Z M24.2397106,37.8465786 L8.3022106,37.8465786 C7.5522106,37.8465786 6.375,37.0924332 6.375,36.072025 C6.375,35.0516168 7.5522106,34.27515 8.3022106,34.27515 L24.2397106,34.27515 C24.9897106,34.27515 26.1073842,35.0516168 26.1073842,36.072025 C26.1073842,37.0924332 24.9897106,37.8465786 24.2397106,37.8465786 Z" id="形状"></path>
                <path d="M16.5522106,36.072025 C15.3277208,36.072025 14.4093535,35.603275 14.4093535,34.978275 L14.4093535,27.2439 C14.4093535,26.6189 15.3277208,26.15015 16.5522106,26.15015 C17.7767004,26.15015 18.6950677,26.6189 18.6950677,27.2439 L18.6950677,34.978275 C18.6950677,35.52515 17.7767004,36.072025 16.5522106,36.072025 L16.5522106,36.072025 Z" id="路径"></path>
                <path d="M16.280782,28.9711259 C7.84328203,28.9711259 -2.58254956e-13,22.634525 -2.58254956e-13,15.6814 C-2.58254956e-13,14.509525 0.1875,13.33765 0.5625,12.2439 L3.28125,3.33765001 C3.65625,2.40015001 4.21875,0.078125 6.375,0.078125 L17.3022106,0.078125 C18.0522106,0.078125 18.7545828,1.05966444 18.7545828,1.68466444 C18.7545828,2.30966444 18.0522106,3.18140001 17.3022106,3.18140001 L7.1772106,3.18140001 C7.1772106,3.18140001 7.0834606,3.33765001 6.8959606,3.88452501 L4.1772106,12.71265 C2.3022106,18.259525 6.03236436,24.1516349 13.2673226,25.0320805 C20.5022808,25.912526 26.4897106,23.884525 28.3647106,18.33765 C29.0209606,16.540775 29.0209606,14.58765 28.3647106,12.71265 L28.3647106,12.478275 L26.0209606,3.72827501 C25.8334606,3.18140001 25.6459606,3.10327501 25.6459606,3.10327501 L23.3959606,3.10327501 C22.6459606,3.10327501 21.7270174,2.30966444 21.7270174,1.68466444 C21.7270174,1.05966444 22.6459606,-7.00294523e-14 23.3959606,-7.00294523e-14 L26.7348547,-7.00294523e-14 C28.3286047,-7.00294523e-14 29.6411047,1.93140001 29.9223547,3.18140001 L29.9223547,3.25952501 L32.2661047,12.2439 C34.4223547,19.040775 28.6585308,26.511074 20.5022808,28.307949 C19.2835308,28.698574 17.593282,28.9711259 16.280782,28.9711259 Z" id="路径"></path>
            </g>
        </g>
    </g>
</svg>