<svg xmlns="http://www.w3.org/2000/svg" width="40" height="41" viewBox="0 0 40 41">
  <g fill="none" fill-rule="evenodd" transform="translate(0 .5)">
    <rect width="40" height="40" fill="#000" opacity=".01"/>
    <path fill="#FFF" d="M21.9125437,21.5266247 C22.292643,21.1784029 22.8810943,21.1968521 23.2386335,21.5682004 L23.2386335,21.5682004 L27.5999977,26.0969984 L27.5999977,22.5335503 C27.5999977,21.9812655 28.047713,21.5335503 28.5999977,21.5335503 C29.1522825,21.5335503 29.5999977,21.9812655 29.5999977,22.5335503 L29.5999977,22.5335503 L29.5999977,28.1335497 C29.5999977,28.6858344 29.1522825,29.1335497 28.5999977,29.1335497 L28.5999977,29.1335497 L22.9999983,29.1335498 C22.4477136,29.1335498 21.9999983,28.6858346 21.9999983,28.1335498 C21.9999983,27.5812651 22.4477136,27.1335498 22.9999983,27.1335498 L22.9999983,27.1335498 L26.0249977,27.1329984 L21.8719864,22.8202321 C21.8668036,22.8148491 21.8616876,22.809402 21.8566398,22.8038921 C21.5193696,22.435747 21.5443987,21.8638949 21.9125437,21.5266247 Z M18.8874531,21.5266247 C19.2555982,21.8638949 19.2806272,22.435747 18.943357,22.8038921 C18.9383092,22.809402 18.9331933,22.8148491 18.9280104,22.8202321 L14.7749991,27.1329984 L17.7999986,27.1335498 C18.3522833,27.1335498 18.7999986,27.5812651 18.7999986,28.1335498 C18.7999986,28.6858346 18.3522833,29.1335498 17.7999986,29.1335498 L12.1999991,29.1335497 C11.6477144,29.1335497 11.1999991,28.6858344 11.1999991,28.1335497 L11.1999991,22.5335503 C11.1999991,21.9812655 11.6477144,21.5335503 12.1999991,21.5335503 C12.7522839,21.5335503 13.1999991,21.9812655 13.1999991,22.5335503 L13.1999991,26.0969984 L17.5613634,21.5682004 C17.9189026,21.1968521 18.5073539,21.1784029 18.8874531,21.5266247 Z M28.5999977,10.3999992 C29.1522825,10.3999992 29.5999977,10.8477145 29.5999977,11.3999992 L29.5999977,16.9999986 C29.5999977,17.5522834 29.1522825,17.9999986 28.5999977,17.9999986 C28.047713,17.9999986 27.5999977,17.5522834 27.5999977,16.9999986 L27.5999977,13.4365505 L23.2386335,17.9653485 C22.8810943,18.3366968 22.292643,18.355146 21.9125437,18.0069242 C21.5443987,17.669654 21.5193696,17.0978019 21.8566398,16.7296568 C21.8616876,16.7241469 21.8668036,16.7186998 21.8719864,16.7133168 L26.0249977,12.4005505 L22.9999983,12.399999 C22.4477136,12.399999 21.9999983,11.9522838 21.9999983,11.399999 C21.9999983,10.8477143 22.4477136,10.399999 22.9999983,10.399999 L28.5999977,10.3999992 Z M17.7999986,10.399999 C18.3522833,10.399999 18.7999986,10.8477143 18.7999986,11.399999 C18.7999986,11.9522838 18.3522833,12.399999 17.7999986,12.399999 L17.7999986,12.399999 L14.7749991,12.4005505 L18.9280104,16.7133168 C18.9331933,16.7186998 18.9383092,16.7241469 18.943357,16.7296568 C19.2806272,17.0978019 19.2555982,17.669654 18.8874531,18.0069242 C18.5073539,18.355146 17.9189026,18.3366968 17.5613634,17.9653485 L17.5613634,17.9653485 L13.1999991,13.4365505 L13.1999991,16.9999986 C13.1999991,17.5522834 12.7522839,17.9999986 12.1999991,17.9999986 C11.6477144,17.9999986 11.1999991,17.5522834 11.1999991,16.9999986 L11.1999991,16.9999986 L11.1999991,11.3999992 C11.1999991,10.8477145 11.6477144,10.3999992 12.1999991,10.3999992 L12.1999991,10.3999992 Z"/>
  </g>
</svg>
