<svg xmlns="http://www.w3.org/2000/svg" width="40" height="40" viewBox="0 0 40 40">
  <g fill="none" fill-rule="evenodd">
    <rect width="40" height="40" fill="#000" opacity=".01"/>
    <path fill="#FFF" d="M17.5999977,21.3999992 C18.1522825,21.3999992 18.5999977,21.8477145 18.5999977,22.3999992 L18.5999977,27.9999986 C18.5999977,28.5522834 18.1522825,28.9999986 17.5999977,28.9999986 C17.047713,28.9999986 16.5999977,28.5522834 16.5999977,27.9999986 L16.5999977,24.4365505 L12.2386335,28.9653485 C11.8810943,29.3366968 11.292643,29.355146 10.9125437,29.0069242 C10.5443987,28.669654 10.5193696,28.0978019 10.8566398,27.7296568 C10.8616876,27.7241469 10.8668036,27.7186998 10.8719864,27.7133168 L15.0249977,23.4005505 L11.9999983,23.399999 C11.4477136,23.399999 10.9999983,22.9522838 10.9999983,22.399999 C10.9999983,21.8477143 11.4477136,21.399999 11.9999983,21.399999 L17.5999977,21.3999992 Z M28.5999977,21.5335503 C29.1522825,21.5335503 29.5999977,21.9812655 29.5999977,22.5335503 L29.5999977,22.5335503 L29.5999977,28.1335497 C29.5999977,28.6858344 29.1522825,29.1335497 28.5999977,29.1335497 L28.5999977,29.1335497 L22.9999983,29.1335498 C22.4477136,29.1335498 21.9999983,28.6858346 21.9999983,28.1335498 C21.9999983,27.5812651 22.4477136,27.1335498 22.9999983,27.1335498 L22.9999983,27.1335498 L27.5999977,27.1325503 L27.5999977,22.5335503 C27.5999977,21.9812655 28.047713,21.5335503 28.5999977,21.5335503 Z M29.3874531,10.5266247 C29.7555982,10.8638949 29.7806272,11.435747 29.443357,11.8038921 C29.4383092,11.809402 29.4331933,11.8148491 29.4280104,11.8202321 L25.2749991,16.1331045 L28.2999986,16.1335498 C28.8522833,16.1335498 29.2999986,16.5812651 29.2999986,17.1335498 C29.2999986,17.6858346 28.8522833,18.1335498 28.2999986,18.1335498 L22.6999991,18.1335497 C22.1477144,18.1335497 21.6999991,17.6858344 21.6999991,17.1335497 L21.6999991,11.5335503 C21.6999991,10.9812655 22.1477144,10.5335503 22.6999991,10.5335503 C23.2522839,10.5335503 23.6999991,10.9812655 23.6999991,11.5335503 L23.6999991,15.0971045 L28.0613634,10.5682004 C28.4189026,10.1968521 29.0073539,10.1784029 29.3874531,10.5266247 Z M17.2999986,10.399999 C17.8522833,10.399999 18.2999986,10.8477143 18.2999986,11.399999 C18.2999986,11.9522838 17.8522833,12.399999 17.2999986,12.399999 L17.2999986,12.399999 L12.6999991,12.4009986 L12.6999991,16.9999986 C12.6999991,17.5522834 12.2522839,17.9999986 11.6999991,17.9999986 C11.1477144,17.9999986 10.6999991,17.5522834 10.6999991,16.9999986 L10.6999991,16.9999986 L10.6999991,11.3999992 C10.6999991,10.8477145 11.1477144,10.3999992 11.6999991,10.3999992 L11.6999991,10.3999992 Z"/>
  </g>
</svg>
