<svg xmlns="http://www.w3.org/2000/svg" xmlns:xlink="http://www.w3.org/1999/xlink" width="50" height="50" viewBox="0 0 50 50">
  <defs>
    <path id="gif-a" d="M33.1032846,15.5 C34.6275906,15.5 35.8632847,16.7356941 35.8632847,18.2600001 L35.863,20.317 L40.2812034,18.8015766 C40.7617611,18.6365557 41.2851059,18.892349 41.4501268,19.3729067 C41.4831472,19.4690656 41.5,19.5700329 41.5,19.6717033 L41.5,31.0229654 C41.5,31.5310674 41.088102,31.9429655 40.58,31.9429655 C40.4783295,31.9429655 40.3773622,31.9261126 40.2812034,31.8930922 L35.863,30.375 L35.8632847,32.2399999 C35.8632847,33.7643059 34.6275906,35 33.1032846,35 L14.7600001,35 C13.2356941,35 12,33.7643059 12,32.2399999 L12,18.2600001 C12,16.7356941 13.2356941,15.5 14.7600001,15.5 L33.1032846,15.5 Z M31.6876474,17.8571429 L16.3676474,17.8571429 C15.4022537,17.8571429 14.610508,18.6006188 14.533747,19.5462343 L14.5276474,19.6971429 L14.5276474,31.0171428 C14.5276474,31.9825366 15.2711234,32.7742822 16.2167388,32.8510433 L16.3676474,32.8571429 L31.6876474,32.8571429 C32.6530411,32.8571429 33.4447868,32.1136669 33.5215479,31.1680514 L33.5276474,31.0171428 L33.5276474,19.6971429 C33.5276474,18.6809389 32.7038513,17.8571429 31.6876474,17.8571429 Z M38.7038876,21.6182122 L38.6223474,21.6338017 L35.863,22.421 L35.863,28.51 L38.6223474,29.2987321 C38.6634445,29.3104741 38.7059775,29.3164311 38.7487191,29.3164311 C38.9745422,29.3164311 39.1623588,29.1537059 39.2013079,28.9391166 L39.2087191,28.8564311 L39.2087191,22.0761027 C39.2087191,22.0333611 39.2027621,21.990828 39.1910201,21.949731 C39.1289817,21.7325966 38.9209204,21.5967105 38.7038876,21.6182122 Z M20.0955026,22.6796039 C21.513843,22.7371041 22.357168,23.3887643 22.6255026,24.6346039 L20.9580026,24.6346039 C20.8238353,24.2129351 20.5267549,23.9925206 20.0667526,23.9733539 C19.3959159,24.0116874 19.0605026,24.5291822 19.0605026,25.5258539 C19.0605026,26.4841921 19.4342488,26.9633539 20.1817526,26.9633539 C20.6417549,26.9250204 20.9388353,26.7237724 21.0730026,26.3596039 L20.2967526,26.3596039 L20.2967526,25.2096039 L22.6830026,25.2096039 L22.6830026,28.113354 L21.5617526,28.113354 L21.5042526,27.5958539 C21.1400841,27.9791892 20.6034228,28.1804372 19.8942526,28.199604 C18.245911,28.1421037 17.3930028,27.2508626 17.3355025,25.5258539 C17.4121696,23.7241782 18.3321604,22.7754377 20.0955026,22.6796039 Z M25.6016351,22.8233539 L25.6016351,28.113354 L23.847885,28.113354 L23.847885,22.8233539 L25.6016351,22.8233539 Z M30.9352676,22.8233539 L30.9352676,24.0596039 L28.5490175,24.0596039 L28.5490175,25.0083539 L30.4465176,25.0083539 L30.4465176,26.2446039 L28.5490175,26.2446039 L28.5490175,28.113354 L26.8240175,28.113354 L26.8240175,22.8233539 L30.9352676,22.8233539 Z"/>
  </defs>
  <g fill="none" fill-rule="evenodd">
    <rect width="50" height="50" fill="#000" opacity=".01"/>
    <mask id="gif-b" fill="#fff">
      <use xlink:href="#gif-a"/>
    </mask>
    <use fill="#D8D8D8" xlink:href="#gif-a"/>
    <g fill="#FFF" mask="url(#gif-b)">
      <rect width="50" height="50"/>
    </g>
  </g>
</svg>
