<svg xmlns="http://www.w3.org/2000/svg" xmlns:xlink="http://www.w3.org/1999/xlink" width="50" height="50" viewBox="0 0 50 50">
  <defs>
    <path id="暂停大-a" d="M19.7984615,8.9 C20.9582595,8.9 21.8984615,9.84020203 21.8984615,11 L21.8984615,38.65 C21.8984615,39.809798 20.9582595,40.75 19.7984615,40.75 L13.66,40.75 C12.500202,40.75 11.56,39.809798 11.56,38.65 L11.56,11 C11.56,9.84020203 12.500202,8.9 13.66,8.9 L19.7984615,8.9 Z M36.34,8.9 C37.499798,8.9 38.44,9.84020203 38.44,11 L38.44,38.65 C38.44,39.809798 37.499798,40.75 36.34,40.75 L30.2015385,40.75 C29.0417405,40.75 28.1015385,39.809798 28.1015385,38.65 L28.1015385,11 C28.1015385,9.84020203 29.0417405,8.9 30.2015385,8.9 L36.34,8.9 Z"/>
  </defs>
  <g fill="none" fill-rule="evenodd">
    <rect width="50" height="50" fill="#000" opacity=".01"/>
    <use fill="#FFF" xlink:href="#暂停大-a"/>
  </g>
</svg>
