<svg xmlns="http://www.w3.org/2000/svg" xmlns:xlink="http://www.w3.org/1999/xlink" width="50" height="50" viewBox="0 0 50 50">
  <defs>
    <path id="截图-a" d="M14.583,28.882 L14.5833333,32.8823529 C14.5833333,33.9367147 15.3992111,34.8005181 16.434071,34.8768672 L16.5833333,34.8823529 L21.18,34.882 L21.18,37 L15.5,37 C13.8431458,37 12.5,35.6568542 12.5,34 L12.5,28.882 L14.583,28.882 Z M37.5,28.882 L37.5,34 C37.5,35.6568542 36.1568542,37 34.5,37 L28.819,37 L28.819,34.882 L33.4166667,34.8823529 C34.4710285,34.8823529 35.3348318,34.0664752 35.4111809,33.0316153 L35.4166667,32.8823529 L35.416,28.882 L37.5,28.882 Z M31.3333333,17.2352941 C32.4379028,17.2352941 33.3333333,18.1307246 33.3333333,19.2352941 L33.3333333,30.7647059 C33.3333333,31.8692754 32.4379028,32.7647059 31.3333333,32.7647059 L18.6666667,32.7647059 C17.5620972,32.7647059 16.6666667,31.8692754 16.6666667,30.7647059 L16.6666667,19.2352941 C16.6666667,18.1307246 17.5620972,17.2352941 18.6666667,17.2352941 L31.3333333,17.2352941 Z M29.25,19.3529412 L20.75,19.3529412 C19.6956382,19.3529412 18.8318349,20.168819 18.7554857,21.2036788 L18.75,21.3529412 L18.75,28.6470588 C18.75,29.7014206 19.5658778,30.5652239 20.6007377,30.6415731 L20.75,30.6470588 L29.25,30.6470588 C30.3043618,30.6470588 31.1681651,29.831181 31.2445143,28.7963212 L31.25,28.6470588 L31.25,21.3529412 C31.25,20.2483717 30.3545695,19.3529412 29.25,19.3529412 Z M27.4305556,23.2352941 C28.9646799,23.2352941 30.2083333,25.2055184 30.2083333,26.5882353 C30.2083333,26.6310658 30.2071401,26.6734441 30.2047818,26.715357 C30.2072604,26.7300256 30.2083333,26.7457699 30.2083333,26.7617647 L30.2083333,28.5323529 C30.2083333,28.7256526 30.051633,28.8823529 29.8583333,28.8823529 L20.4888889,28.8823529 C20.2955892,28.8823529 20.1388889,28.7256526 20.1388889,28.5323529 L20.1388889,26.7617647 C20.1388889,26.7372305 20.1414132,26.7132859 20.1462164,26.6901765 C20.2403697,25.5950814 21.28934,24.2941176 22.5694444,24.2941176 C23.5046532,24.2941176 24.3164974,24.9884886 24.7229413,25.7896134 C25.0016052,24.5435244 26.1081687,23.2352941 27.4305556,23.2352941 Z M21.5277778,20.4117647 C22.1030744,20.4117647 22.5694444,20.8858161 22.5694444,21.4705882 C22.5694444,22.0553603 22.1030744,22.5294118 21.5277778,22.5294118 C20.9524812,22.5294118 20.4861111,22.0553603 20.4861111,21.4705882 C20.4861111,20.8858161 20.9524812,20.4117647 21.5277778,20.4117647 Z M34.5,13 C36.1568542,13 37.5,14.3431458 37.5,16 L37.5,21.117 L35.416,21.117 L35.4166667,17.1176471 C35.4166667,16.0130776 34.5212362,15.1176471 33.4166667,15.1176471 L28.819,15.117 L28.819,13 L34.5,13 Z M21.18,13 L21.18,15.117 L16.5833333,15.1176471 C15.5289715,15.1176471 14.6651682,15.9335248 14.5888191,16.9683847 L14.5833333,17.1176471 L14.583,21.117 L12.5,21.117 L12.5,16 C12.5,14.3431458 13.8431458,13 15.5,13 L21.18,13 Z"/>
  </defs>
  <g fill="none" fill-rule="evenodd">
    <rect width="50" height="50" fill="#000" opacity=".01"/>
    <mask id="截图-b" fill="#fff">
      <use xlink:href="#截图-a"/>
    </mask>
    <use fill="#D8D8D8" xlink:href="#截图-a"/>
    <g fill="#FFF" mask="url(#截图-b)">
      <rect width="50" height="50"/>
    </g>
  </g>
</svg>
